G04 GENERATED BY PULSONIX 10.5 GERBER.DLL 7875A*
G04 #@! TF.GenerationSoftware,Pulsonix,Pulsonix,10.5.7875a*
G04 #@! TF.CreationDate,2019-10-01T10:17:35--1:00*
G04 #@! TF.Part,Single*
%FSLAX35Y35*%
%LPD*%
%MOMM*%
G04 #@! TF.FileFunction,Legend,Bot*
G04 #@! TF.FilePolarity,Positive*
%ADD99C,0.00001*%
G04 #@! TA.AperFunction,NonMaterial*
%ADD103C,0.20000*%
G04 #@! TA.AperFunction,Profile*
%ADD175C,0.30000*%
G04 #@! TD.AperFunction*
%ADD176C,0.20000*%
X0Y0D02*
D02*
D99*
X660801Y3575474D02*
Y3560825D01*
X673984Y3547275*
X686436Y3534092*
X698887Y3521641*
X710605Y3509556*
X721958Y3497837*
X732578Y3486851*
X743198Y3476230*
X753452Y3465977*
Y3464878*
Y3425693*
Y3424595*
X754551*
X780186*
X782017Y3407017*
X783848Y3389072*
X785679Y3370029*
X787510Y3350254*
X789341Y3329746*
X791172Y3308506*
X793003Y3286533*
X794834Y3263462*
X784946Y3253208*
X773960Y3241855*
X761875Y3229038*
X748691Y3215122*
X734409Y3200107*
X719028Y3183628*
X702183Y3166050*
X684604Y3147373*
X687900Y3144443*
X690464Y3142246*
X691929Y3141147*
X692661Y3140781*
X769199Y3219517*
Y3214023*
X769565Y3208530*
X770664Y3203403*
X772861Y3198643*
X775425Y3194248*
X779087Y3190586*
X783481Y3186924*
X788975Y3183994*
X794834Y3181064*
X801792*
X808384*
X811680Y3181431*
X815342Y3182163*
X818638Y3183628*
X821934Y3185459*
X825229Y3187656*
X828892Y3190586*
X832187Y3194248*
X835483Y3197910*
X922275*
Y3182163*
X922642Y3181431*
X923374Y3181064*
X942417*
X944248Y3181431*
X944614Y3182163*
Y3197910*
X946812Y3199375*
X948276Y3201572*
X949009Y3205601*
X949375Y3210361*
Y3211094*
Y3211826*
Y3212925*
Y3214756*
X949741Y3216587*
Y3218784*
X950107Y3221714*
X950474Y3224644*
Y3228306*
X950840Y3232334*
X951206Y3236362*
X951938Y3241123*
X952305Y3246250*
X952671Y3251377*
X953037Y3257236*
X953770Y3263462*
X1076450Y3138218*
X1076816Y3138950*
X1078281Y3140415*
X1080845Y3142979*
X1084507Y3146274*
X1079380Y3151401*
X1073887Y3157261*
X1068027Y3163120*
X1061802Y3169346*
X1055210Y3176304*
X1048252Y3183262*
X1040928Y3190952*
X1033237Y3198643*
X1025181Y3206699*
X1016758Y3215488*
X1007969Y3224277*
X998813Y3233799*
X988926Y3243320*
X979038Y3253574*
X968784Y3263828*
X958164Y3274814*
X956699Y3276279*
X955601Y3277378*
X955234Y3278477*
X954868Y3279209*
X956333Y3297520*
X957798Y3314731*
X959263Y3330845*
X960361Y3345493*
X961460Y3359409*
X962559Y3371860*
X963657Y3383213*
X964390Y3393101*
X965122Y3401890*
X965854Y3409946*
X966587Y3416172*
X966953Y3421665*
X967686Y3425693*
X968052Y3428623*
Y3430454*
X968418Y3431187*
X969150Y3431919*
X970615Y3433384*
X973179Y3435947*
X976841Y3439609*
X981235Y3444004*
X986362Y3449497*
X992588Y3455723*
X999912Y3463413*
X1007969Y3471470*
X1016758Y3480991*
X1026646Y3491245*
X1037632Y3502598*
X1049351Y3514683*
X1061802Y3527866*
X1075352Y3542148*
X1090000Y3557163*
Y3572910*
X1088901*
X969517Y3448032*
Y3450229*
X969883Y3453159*
Y3456455*
X970249Y3460850*
X970981Y3466343*
X971348Y3472202*
X972080Y3478794*
X972812Y3486484*
X987461*
X989292Y3486851*
X989658Y3488682*
Y3496372*
X989292Y3497471*
X987461*
X976108*
X969517Y3508823*
X964756Y3513218*
X960361Y3516880*
X955234Y3519810*
X950474Y3522373*
Y3529331*
X950107Y3530063*
X949375Y3530430*
X931064*
X930332Y3529697*
X929966Y3527866*
X919712Y3530063*
X910557Y3531528*
X902500Y3532261*
X896274Y3532627*
Y3534092*
X895908Y3535190*
X895542Y3535557*
X895176Y3535923*
X839878*
X839146Y3535557*
X838413Y3534824*
X838047Y3533359*
X837681Y3531528*
X829624Y3531162*
X821567Y3530063*
X813877Y3528232*
X806553Y3526035*
X799595Y3523105*
X792637Y3519443*
X786411Y3515049*
X780186Y3509922*
X778354Y3512852*
X775791Y3515049*
X772861Y3516514*
X769199Y3516880*
X766636*
X763706Y3516514*
X761143Y3515781*
X758945Y3514316*
X756748Y3512485*
X754917Y3510288*
X753452Y3507358*
X751987Y3503696*
X750889Y3500034*
X751255Y3496372*
X752354Y3493442*
X753818Y3490879*
X755649Y3488682*
X758579Y3486851*
X761875Y3485386*
X765537Y3484653*
X770298Y3484287*
X772861Y3483921*
X775791Y3484287*
Y3483921*
Y3482822*
X776157Y3481357*
Y3479160*
Y3476597*
X776523Y3473301*
Y3469272*
X776890Y3464878*
X770298*
X660801Y3575474*
X887119Y3527866D02*
Y3520176D01*
X846836*
Y3525669*
X847202Y3527500*
X849033Y3527866*
X887119*
X929966Y3515781D02*
Y3497471D01*
X786045*
X790439Y3502598*
X795200Y3506992*
X800693Y3510654*
X806553Y3513584*
X812778Y3516147*
X819370Y3517612*
X826694Y3518711*
X834385Y3519077*
X835483*
X837681Y3520176*
X838047Y3516147*
X838413Y3513218*
X839146Y3511753*
X839878Y3511021*
X895176*
X895908Y3511387*
X896274Y3512119*
Y3521274*
X897373*
X905063Y3520542*
X911655Y3519810*
X917148Y3518711*
X921909Y3517979*
X925571Y3517612*
X928135Y3516880*
X929600Y3516147*
X929966Y3515781*
X962925Y3497471D02*
X950474D01*
Y3508823*
X951572*
X955967Y3506626*
X959263Y3503696*
X961460Y3500767*
X962925Y3497471*
X960361Y3486484D02*
Y3479893D01*
X959995Y3473667*
X959629Y3467808*
X959263Y3462681*
X958896Y3457920*
X958530Y3453525*
X958164Y3449497*
X957798Y3445835*
X957432Y3442539*
X957065Y3439976*
X956699Y3437412*
X956333Y3435581*
X955967Y3434116*
X955601Y3433018*
X955234Y3432651*
X954868Y3432285*
X879429Y3353550*
X876133Y3356846*
X872471Y3360508*
X868076Y3365269*
X862949Y3370762*
X857090Y3376621*
X850498Y3383579*
X843174Y3391270*
X835483Y3399692*
X896274*
X897007Y3400059*
X897373Y3401890*
Y3420933*
X897007Y3422764*
X896274Y3423130*
X824131*
X823398Y3422764*
X823032Y3420933*
Y3412144*
X816074Y3418735*
X810215Y3424595*
X805088Y3429355*
X801060Y3433750*
X798130Y3437046*
X795566Y3439609*
X794468Y3441440*
X793735Y3442539*
Y3463779*
Y3464512*
X792637Y3464878*
X791172Y3465610*
X789341Y3465977*
X786045Y3486484*
X788242*
X960361*
X780186Y3436680D02*
Y3433384D01*
X761143*
Y3457187*
X762241*
X766636Y3453159*
X770298Y3449863*
X773228Y3446934*
X775791Y3444004*
X777622Y3441807*
X779087Y3439609*
X780186Y3438145*
Y3436680*
X793735Y3425693D02*
X794102Y3425327D01*
X794834Y3424229*
X796299Y3423130*
X797764Y3421665*
X799961Y3419468*
X802158Y3416904*
X805088Y3413975*
X808384Y3410679*
X812046Y3406650*
X816440Y3402622*
X820835Y3397861*
X825962Y3392734*
X831455Y3387241*
X837314Y3381382*
X843540Y3374790*
X850132Y3368198*
X872837Y3345493*
X805088Y3275913*
X803623Y3293125*
X802158Y3309604*
X800693Y3324985*
X799595Y3339268*
X798496Y3352085*
X797397Y3364170*
X796299Y3375156*
X795566Y3385044*
X794834Y3393833*
X794102Y3401523*
X793369Y3408115*
X793003Y3413608*
X792271Y3417637*
X791904Y3420933*
Y3423130*
X791538Y3424595*
X793735Y3425693*
X954868Y3415439D02*
X953770Y3400791D01*
X952305Y3387241*
X951572Y3374058*
X950474Y3362339*
X949375Y3351353*
X948643Y3341099*
X947910Y3331577*
X947178Y3323521*
X946812Y3315830*
X946079Y3309238*
X945713Y3303379*
X945347Y3298618*
X944980Y3294590*
Y3291660*
X944614Y3289463*
Y3287998*
X931064Y3301914*
X917148Y3316196*
X902866Y3330479*
X888584Y3345493*
X896641Y3353916*
X903965Y3361973*
X910923Y3369297*
X917515Y3376255*
X923374Y3382480*
X928867Y3387974*
X933994Y3393467*
X938389Y3397861*
X942051Y3401890*
X945347Y3405552*
X948276Y3408481*
X950840Y3411045*
X952671Y3412876*
X953770Y3414341*
X954502Y3415073*
X954868Y3415439*
X943516Y3274814D02*
X938022Y3209263D01*
X838779*
Y3209995*
X839146Y3211460*
X839512Y3213657*
X839878Y3216221*
X839512Y3222446*
X838047Y3228306*
X835850Y3233799*
X832554Y3238193*
X828159Y3242222*
X823032Y3245884*
X816807Y3248813*
X809482Y3251011*
X808750Y3251377*
X808018Y3252476*
X807651Y3254307*
X807285Y3256504*
Y3257603*
X807651Y3259067*
X808384Y3260532*
X809849Y3262729*
X811680Y3264927*
X813877Y3267856*
X816807Y3270786*
X820103Y3274082*
X824131Y3278110*
X831089Y3285068*
X837314Y3291660*
X843174Y3297886*
X848301Y3303745*
X853428Y3308872*
X858188Y3313633*
X862217Y3318027*
X865879Y3322056*
X869175Y3325352*
X872104Y3328281*
X874668Y3330845*
X876499Y3333042*
X878330Y3334507*
X879429Y3335605*
X880161Y3336338*
X880527Y3336704*
X943516Y3274814*
X823032Y3215122D02*
X822666Y3211460D01*
X821934Y3208164*
X820103Y3205601*
X817905Y3203037*
X815342Y3201206*
X811680Y3199375*
X807651Y3197910*
X802891Y3196812*
X798862Y3197910*
X795566Y3199375*
X792637Y3200840*
X790073Y3202671*
X788242Y3205234*
X787144Y3207798*
X786045Y3210728*
Y3214023*
Y3218418*
Y3221714*
X787144Y3224644*
X788608Y3227207*
X790439Y3229404*
X793003Y3231235*
X795933Y3233066*
X799595Y3234165*
X803989Y3235264*
X808018Y3234897*
X811680Y3233799*
X814609Y3232334*
X817173Y3230137*
X819370Y3227207*
X821201Y3223911*
X822300Y3219883*
X823032Y3215122*
X684604Y3147373D02*
G36*
X687900Y3144443D01*
X690464Y3142246*
X691929Y3141147*
X692661Y3140781*
X765817Y3216038*
X749559*
X748691Y3215122*
X734409Y3200107*
X719028Y3183628*
X702183Y3166050*
X684604Y3147373*
G37*
X769199Y3216038D02*
G36*
Y3214023D01*
X769565Y3208530*
X770664Y3203403*
X772861Y3198643*
X775425Y3194248*
X779087Y3190586*
X783481Y3186924*
X788975Y3183994*
X794834Y3181064*
X801792*
X808384*
X811680Y3181431*
X815342Y3182163*
X818638Y3183628*
X821934Y3185459*
X825229Y3187656*
X828892Y3190586*
X832187Y3194248*
X835483Y3197910*
X922275*
Y3182163*
X922642Y3181431*
X923374Y3181064*
X942417*
X944248Y3181431*
X944614Y3182163*
Y3197910*
X946812Y3199375*
X948276Y3201572*
X949009Y3205601*
X949375Y3210361*
Y3211094*
Y3211826*
Y3212925*
Y3214756*
X949631Y3216038*
X938590*
X938022Y3209263*
X838779*
Y3209995*
X839146Y3211460*
X839512Y3213657*
X839852Y3216038*
X822891*
X823032Y3215122*
X822666Y3211460*
X821934Y3208164*
X820103Y3205601*
X817905Y3203037*
X815342Y3201206*
X811680Y3199375*
X807651Y3197910*
X802891Y3196812*
X798862Y3197910*
X795566Y3199375*
X792637Y3200840*
X790073Y3202671*
X788242Y3205234*
X787144Y3207798*
X786045Y3210728*
Y3214023*
Y3216038*
X769199*
G37*
X1016208D02*
G36*
X1000223D01*
X1076450Y3138218*
X1076816Y3138950*
X1078281Y3140415*
X1080845Y3142979*
X1084507Y3146274*
X1079380Y3151401*
X1073887Y3157261*
X1068027Y3163120*
X1061802Y3169346*
X1055210Y3176304*
X1048252Y3183262*
X1040928Y3190952*
X1033237Y3198643*
X1025181Y3206699*
X1016758Y3215488*
X1016208Y3216038*
G37*
X761875Y3229038D02*
G36*
X749559Y3216038D01*
X765817*
X769199Y3219517*
Y3216038*
X786045*
Y3218418*
Y3221714*
X787144Y3224644*
X788608Y3227207*
X790439Y3229404*
X793003Y3231235*
X795933Y3233066*
X799595Y3234165*
X803989Y3235264*
X808018Y3234897*
X811680Y3233799*
X814609Y3232334*
X817173Y3230137*
X819370Y3227207*
X821201Y3223911*
X822300Y3219883*
X822891Y3216038*
X839852*
X839878Y3216221*
X839512Y3222446*
X838047Y3228306*
X835850Y3233799*
X832554Y3238193*
X828159Y3242222*
X823032Y3245884*
X816807Y3248813*
X809482Y3251011*
X808750Y3251377*
X808018Y3252476*
X807651Y3254307*
X807285Y3256504*
Y3257603*
X807651Y3259067*
X808384Y3260532*
X809849Y3262729*
X811680Y3264927*
X813877Y3267856*
X816807Y3270786*
X819004Y3272983*
X794078*
X794834Y3263462*
X784946Y3253208*
X773960Y3241855*
X761875Y3229038*
G37*
X943363Y3272983D02*
G36*
X938590Y3216038D01*
X949631*
X949741Y3216587*
Y3218784*
X950107Y3221714*
X950474Y3224644*
Y3228306*
X950840Y3232334*
X951206Y3236362*
X951938Y3241123*
X952305Y3246250*
X952671Y3251377*
X953037Y3257236*
X953770Y3263462*
X1000223Y3216038*
X1016208*
X1007969Y3224277*
X998813Y3233799*
X988926Y3243320*
X979038Y3253574*
X968784Y3263828*
X959934Y3272983*
X943363*
G37*
X787374Y3351718D02*
G36*
X787510Y3350254D01*
X789341Y3329746*
X791172Y3308506*
X793003Y3286533*
X794078Y3272983*
X819004*
X820103Y3274082*
X824131Y3278110*
X831089Y3285068*
X837314Y3291660*
X843174Y3297886*
X848301Y3303745*
X853428Y3308872*
X858188Y3313633*
X862217Y3318027*
X865879Y3322056*
X869175Y3325352*
X872104Y3328281*
X874668Y3330845*
X876499Y3333042*
X878330Y3334507*
X879429Y3335605*
X880161Y3336338*
X880527Y3336704*
X943516Y3274814*
X943363Y3272983*
X959934*
X958164Y3274814*
X956699Y3276279*
X955601Y3277378*
X955234Y3278477*
X954868Y3279209*
X956333Y3297520*
X957798Y3314731*
X959263Y3330845*
X960361Y3345493*
X960853Y3351718*
X949412*
X949375Y3351353*
X948643Y3341099*
X947910Y3331577*
X947178Y3323521*
X946812Y3315830*
X946079Y3309238*
X945713Y3303379*
X945347Y3298618*
X944980Y3294590*
Y3291660*
X944614Y3289463*
Y3287998*
X931064Y3301914*
X917148Y3316196*
X902866Y3330479*
X888584Y3345493*
X894539Y3351718*
X866612*
X872837Y3345493*
X805088Y3275913*
X803623Y3293125*
X802158Y3309604*
X800693Y3324985*
X799595Y3339268*
X798527Y3351718*
X787374*
G37*
X780663Y3420017D02*
G36*
X782017Y3407017D01*
X783848Y3389072*
X785679Y3370029*
X787374Y3351718*
X798527*
X798496Y3352085*
X797397Y3364170*
X796299Y3375156*
X795566Y3385044*
X794834Y3393833*
X794102Y3401523*
X793369Y3408115*
X793003Y3413608*
X792271Y3417637*
X792006Y3420017*
X780663*
G37*
X799412D02*
G36*
X799961Y3419468D01*
X802158Y3416904*
X805088Y3413975*
X808384Y3410679*
X812046Y3406650*
X816440Y3402622*
X820835Y3397861*
X825962Y3392734*
X831455Y3387241*
X837314Y3381382*
X843540Y3374790*
X850132Y3368198*
X866612Y3351718*
X894539*
X896641Y3353916*
X903965Y3361973*
X910923Y3369297*
X917515Y3376255*
X923374Y3382480*
X928867Y3387974*
X933994Y3393467*
X938389Y3397861*
X942051Y3401890*
X945347Y3405552*
X948276Y3408481*
X950840Y3411045*
X952671Y3412876*
X953770Y3414341*
X954502Y3415073*
X954868Y3415439*
X953770Y3400791*
X952305Y3387241*
X951572Y3374058*
X950474Y3362339*
X949412Y3351718*
X960853*
X961460Y3359409*
X962559Y3371860*
X963657Y3383213*
X964390Y3393101*
X965122Y3401890*
X965854Y3409946*
X966587Y3416172*
X966843Y3420017*
X943114*
X879429Y3353550*
X876133Y3356846*
X872471Y3360508*
X868076Y3365269*
X862949Y3370762*
X857090Y3376621*
X850498Y3383579*
X843174Y3391270*
X835483Y3399692*
X896274*
X897007Y3400059*
X897373Y3401890*
Y3420017*
X823032*
Y3412144*
X816074Y3418735*
X814792Y3420017*
X799412*
G37*
X753452Y3425693D02*
G36*
Y3424595D01*
X754551*
X780186*
X780663Y3420017*
X792006*
X791904Y3420933*
Y3423130*
X791538Y3424595*
X793735Y3425693*
X794102Y3425327*
X794834Y3424229*
X796299Y3423130*
X797764Y3421665*
X799412Y3420017*
X814792*
X810215Y3424595*
X805088Y3429355*
X801060Y3433750*
X798130Y3437046*
X795566Y3439609*
X794468Y3441440*
X793735Y3442539*
Y3445285*
X774670*
X775791Y3444004*
X777622Y3441807*
X779087Y3439609*
X780186Y3438145*
Y3436680*
Y3433384*
X761143*
Y3445285*
X753452*
Y3425693*
G37*
X823032Y3420933D02*
G36*
Y3420017D01*
X897373*
Y3420933*
X897007Y3422764*
X896274Y3423130*
X824131*
X823398Y3422764*
X823032Y3420933*
G37*
X954868Y3432285D02*
G36*
X943114Y3420017D01*
X966843*
X966953Y3421665*
X967686Y3425693*
X968052Y3428623*
Y3430454*
X968418Y3431187*
X969150Y3431919*
X970615Y3433384*
X973179Y3435947*
X976841Y3439609*
X981235Y3444004*
X982431Y3445285*
X957737*
X957432Y3442539*
X957065Y3439976*
X956699Y3437412*
X956333Y3435581*
X955967Y3434116*
X955601Y3433018*
X955234Y3432651*
X954868Y3432285*
G37*
X716814Y3503147D02*
G36*
X721958Y3497837D01*
X732578Y3486851*
X743198Y3476230*
X753452Y3465977*
Y3464878*
Y3445285*
X761143*
Y3457187*
X762241*
X766636Y3453159*
X770298Y3449863*
X773228Y3446934*
X774670Y3445285*
X793735*
Y3463779*
Y3464512*
X792637Y3464878*
X791172Y3465610*
X789341Y3465977*
X786045Y3486484*
X788242*
X960361*
Y3479893*
X959995Y3473667*
X959629Y3467808*
X959263Y3462681*
X958896Y3457920*
X958530Y3453525*
X958164Y3449497*
X957798Y3445835*
X957737Y3445285*
X982431*
X986362Y3449497*
X992588Y3455723*
X999912Y3463413*
X1007969Y3471470*
X1016758Y3480991*
X1026646Y3491245*
X1037632Y3502598*
X1038164Y3503147*
X1022207*
X969517Y3448032*
Y3450229*
X969883Y3453159*
Y3456455*
X970249Y3460850*
X970981Y3466343*
X971348Y3472202*
X972080Y3478794*
X972812Y3486484*
X987461*
X989292Y3486851*
X989658Y3488682*
Y3496372*
X989292Y3497471*
X987461*
X976108*
X972813Y3503147*
X959675*
X961460Y3500767*
X962925Y3497471*
X950474*
Y3503147*
X929966*
Y3497471*
X786045*
X790439Y3502598*
X791034Y3503147*
X751822*
X750889Y3500034*
X751255Y3496372*
X752354Y3493442*
X753818Y3490879*
X755649Y3488682*
X758579Y3486851*
X761875Y3485386*
X765537Y3484653*
X770298Y3484287*
X772861Y3483921*
X775791Y3484287*
Y3483921*
Y3482822*
X776157Y3481357*
Y3479160*
Y3476597*
X776523Y3473301*
Y3469272*
X776890Y3464878*
X770298*
X732409Y3503147*
X716814*
G37*
X710783Y3509372D02*
G36*
X716814Y3503147D01*
X732409*
X726246Y3509372*
X710783*
G37*
X751987Y3503696D02*
G36*
X751822Y3503147D01*
X791034*
X795200Y3506992*
X798770Y3509372*
X754459*
X753452Y3507358*
X751987Y3503696*
G37*
X929966Y3509372D02*
G36*
Y3503147D01*
X950474*
Y3508823*
X951572*
X955967Y3506626*
X959263Y3503696*
X959675Y3503147*
X972813*
X969517Y3508823*
X968922Y3509372*
X929966*
G37*
X1028158D02*
G36*
X1022207Y3503147D01*
X1038164*
X1044201Y3509372*
X1028158*
G37*
X696507Y3524021D02*
G36*
X698887Y3521641D01*
X710605Y3509556*
X710783Y3509372*
X726246*
X711743Y3524021*
X696507*
G37*
X754917Y3510288D02*
G36*
X754459Y3509372D01*
X798770*
X800693Y3510654*
X806553Y3513584*
X812778Y3516147*
X819370Y3517612*
X826694Y3518711*
X834385Y3519077*
X835483*
X837681Y3520176*
X838047Y3516147*
X838413Y3513218*
X839146Y3511753*
X839878Y3511021*
X895176*
X895908Y3511387*
X896274Y3512119*
Y3521274*
X897373*
X905063Y3520542*
X911655Y3519810*
X917148Y3518711*
X921909Y3517979*
X925571Y3517612*
X928135Y3516880*
X929600Y3516147*
X929966Y3515781*
Y3509372*
X968922*
X964756Y3513218*
X960361Y3516880*
X955234Y3519810*
X950474Y3522373*
Y3524021*
X887119*
Y3520176*
X846836*
Y3524021*
X801770*
X799595Y3523105*
X792637Y3519443*
X786411Y3515049*
X780186Y3509922*
X778354Y3512852*
X775791Y3515049*
X772861Y3516514*
X769199Y3516880*
X766636*
X763706Y3516514*
X761143Y3515781*
X758945Y3514316*
X756748Y3512485*
X754917Y3510288*
G37*
X1042163Y3524021D02*
G36*
X1028158Y3509372D01*
X1044201*
X1049351Y3514683*
X1058170Y3524021*
X1042163*
G37*
X660801Y3575474D02*
G36*
Y3560825D01*
X673984Y3547275*
X686436Y3534092*
X696507Y3524021*
X711743*
X660801Y3575474*
G37*
X806553Y3526035D02*
G36*
X801770Y3524021D01*
X846836*
Y3525669*
X847202Y3527500*
X849033Y3527866*
X887119*
Y3524021*
X950474*
Y3529331*
X950107Y3530063*
X949375Y3530430*
X931064*
X930332Y3529697*
X929966Y3527866*
X919712Y3530063*
X910557Y3531528*
X902500Y3532261*
X896274Y3532627*
Y3534092*
X895908Y3535190*
X895542Y3535557*
X895176Y3535923*
X839878*
X839146Y3535557*
X838413Y3534824*
X838047Y3533359*
X837681Y3531528*
X829624Y3531162*
X821567Y3530063*
X813877Y3528232*
X806553Y3526035*
G37*
X1042163Y3524021D02*
G36*
X1058170D01*
X1061802Y3527866*
X1075352Y3542148*
X1090000Y3557163*
Y3572910*
X1088901*
X1042163Y3524021*
G37*
X805088Y3227207D02*
X802891D01*
X798862Y3226475*
X795566Y3224644*
X793003Y3220981*
X791538Y3216221*
X792271Y3213291*
X793003Y3210728*
X794102Y3208530*
X795566Y3206699*
X797031Y3205601*
X798862Y3204502*
X800693Y3203770*
X802891*
X805088*
X809849Y3205601*
X813511Y3207798*
X815708Y3210728*
X816440Y3214023*
Y3217319*
X814243Y3221714*
X811680Y3224644*
X808750Y3226841*
X805088Y3227207*
G36*
X802891*
X798862Y3226475*
X795566Y3224644*
X793003Y3220981*
X791538Y3216221*
X792271Y3213291*
X793003Y3210728*
X794102Y3208530*
X795566Y3206699*
X797031Y3205601*
X798862Y3204502*
X800693Y3203770*
X802891*
X805088*
X809849Y3205601*
X813511Y3207798*
X815708Y3210728*
X816440Y3214023*
Y3217319*
X814243Y3221714*
X811680Y3224644*
X808750Y3226841*
X805088Y3227207*
G37*
X1054111Y3051792D02*
X700352D01*
X699619Y3051426*
X699253Y3050693*
Y2966099*
X699619Y2965366*
X700352Y2965000*
X1054111*
X1055576Y2965366*
X1056309Y2966099*
Y3050693*
X1055210Y3051426*
X1054111Y3051792*
G36*
X700352*
X699619Y3051426*
X699253Y3050693*
Y2966099*
X699619Y2965366*
X700352Y2965000*
X1054111*
X1055576Y2965366*
X1056309Y2966099*
Y3050693*
X1055210Y3051426*
X1054111Y3051792*
G37*
D02*
D103*
X1843142Y934000D02*
X655000D01*
G75*
G02X492365Y1250404J200000*
G01*
G75*
G03X498793Y1258898I-902381J689574*
G01*
G75*
G02X513579Y1275421I156202J-124904*
G01*
X512048Y1276952*
G75*
G03Y2603048I-922048J663048*
G01*
X513579Y2604579*
G75*
G02X498793Y2621102I141416J141427*
G01*
G75*
G03X492365Y2629596I-908809J-681080*
G01*
G75*
G02X655000Y2946000I162635J116404*
G01*
X1843142*
X2445000Y2344142*
Y1535858*
X1843142Y934000*
D02*
D175*
X440000Y3640000D02*
X2340000D01*
G75*
G02X2490000Y3490000J-150000*
G01*
Y390000*
G75*
G02X2340000Y240000I-150000*
G01*
X440000*
G75*
G02X290000Y390000J150000*
G01*
Y3490000*
G75*
G02X440000Y3640000I150000*
G01*
D02*
D176*
X478235Y1734371D02*
X470588Y1726724D01*
X462941Y1711429*
Y1688488*
X470588Y1673194*
X478235Y1665547*
X493529Y1657900*
X524118*
X539412Y1665547*
X547059Y1673194*
X554706Y1688488*
Y1711429*
X547059Y1726724*
X539412Y1734371*
X462941Y1763200D02*
X554706Y1763200D01*
Y1816729*
X547059Y1832024*
X531765Y1839671*
X516471Y1832024*
X508824Y1816729*
Y1763200*
Y1816729D02*
X462941Y1839671D01*
Y1929676D02*
X462941Y1868500D01*
X516471Y1922029*
X531765Y1929676*
X547059Y1922029*
X554706Y1906735*
Y1883794*
X547059Y1868500*
X470588Y1964547D02*
X462941Y1979841D01*
Y1995135*
X470588Y2010429*
X485882Y2018076*
X531765*
X547059Y2010429*
X554706Y1995135*
Y1979841*
X547059Y1964547*
X531765Y1956900*
X485882*
X470588Y1964547*
X547059Y2010429*
X470588Y2052947D02*
X462941Y2068241D01*
Y2083535*
X470588Y2098829*
X485882Y2106476*
X501176Y2098829*
X508824Y2083535*
Y2068241*
Y2083535D02*
X516471Y2098829D01*
X531765Y2106476*
X547059Y2098829*
X554706Y2083535*
Y2068241*
X547059Y2052947*
X462941Y2194876D02*
X462941Y2133700D01*
X516471Y2187229*
X531765Y2194876*
X547059Y2187229*
X554706Y2171935*
Y2148994*
X547059Y2133700*
X0Y0D02*
M02*
