M48
FMAT,1
METRIC
T01C000.40000
%
G81
M71
T01
X440000Y390000
X440000Y565000
X440000Y3315000
X440000Y3490000
X590000Y2490000
X615000Y390000
X615000Y3490000
X640000Y1490000
X965000Y2015000
X1240000Y1590000
X1615000Y2585000
X1690000Y2740000
X1740000Y1515000
X1833750Y1265000
X2165000Y390000
X2165000Y3490000
X2340000Y390000
X2340000Y565000
X2340000Y3315000
X2340000Y3490000
M30
