G04 GENERATED BY PULSONIX 10.5 GERBER.DLL 7875A*
G04 #@! TF.GenerationSoftware,Pulsonix,Pulsonix,10.5.7875a*
G04 #@! TF.CreationDate,2019-10-01T10:17:35--1:00*
G04 #@! TF.Part,Single*
%FSLAX35Y35*%
%LPD*%
%MOMM*%
G04 #@! TF.FileFunction,Soldermask,Top*
G04 #@! TF.FilePolarity,Negative*
G04 #@! TA.AperFunction,SMDPad*
%ADD109R,1.65400X1.15400*%
%ADD128R,1.45400X1.35400*%
G04 #@! TA.AperFunction,ViaPad*
%ADD189C,0.85400*%
G04 #@! TA.AperFunction,SMDPad*
%ADD1066R,0.95400X2.65400*%
%ADD1067R,2.25400X1.55400*%
X0Y0D02*
D02*
D109*
X590000Y1644750D03*
Y1835250D03*
Y2144750D03*
Y2335250D03*
Y2644750D03*
Y2835250D03*
X1190000Y2144750D03*
Y2335250D03*
X2190000Y1644750D03*
Y1835250D03*
Y2144750D03*
Y2335250D03*
Y2644750D03*
Y2835250D03*
D02*
D128*
X790000Y1635000D03*
Y1845000D03*
Y2135000D03*
Y2345000D03*
Y2635000D03*
Y2845000D03*
X1390000Y2135000D03*
Y2345000D03*
X1990000Y1635000D03*
Y1845000D03*
Y2135000D03*
Y2345000D03*
Y2635000D03*
Y2845000D03*
D02*
D189*
X440000Y390000D03*
Y565000D03*
Y3315000D03*
Y3490000D03*
X590000Y2490000D03*
X615000Y390000D03*
Y3490000D03*
X640000Y1490000D03*
X965000Y2015000D03*
X1240000Y1590000D03*
X1615000Y2585000D03*
X1690000Y2740000D03*
X1740000Y1515000D03*
X1833750Y1265000D03*
X2165000Y390000D03*
Y3490000D03*
X2340000Y390000D03*
Y565000D03*
Y3315000D03*
Y3490000D03*
D02*
D1066*
X1199500Y1245000D03*
Y1835000D03*
X1326500Y1245000D03*
Y1835000D03*
X1453500Y1245000D03*
Y1835000D03*
X1580500Y1245000D03*
Y1835000D03*
D02*
D1067*
X970000Y415000D03*
Y865000D03*
X1810000Y415000D03*
Y865000D03*
X0Y0D02*
M02*
