G04 GENERATED BY PULSONIX 10.5 GERBER.DLL 7875A*
G04 #@! TF.GenerationSoftware,Pulsonix,Pulsonix,10.5.7875a*
G04 #@! TF.CreationDate,2019-10-01T10:17:35--1:00*
G04 #@! TF.Part,Single*
%FSLAX35Y35*%
%LPD*%
%MOMM*%
G04 #@! TF.FileFunction,Paste*
G04 #@! TF.FilePolarity,Positive*
G04 #@! TA.AperFunction,SMDPad*
%ADD20R,1.40000X0.90000*%
%ADD82R,1.20000X1.10000*%
%ADD1069R,0.70000X2.40000*%
%ADD1070R,2.00000X1.30000*%
X0Y0D02*
D02*
D20*
X590000Y1644750D03*
Y1835250D03*
Y2144750D03*
Y2335250D03*
Y2644750D03*
Y2835250D03*
X1190000Y2144750D03*
Y2335250D03*
X2190000Y1644750D03*
Y1835250D03*
Y2144750D03*
Y2335250D03*
Y2644750D03*
Y2835250D03*
D02*
D82*
X790000Y1635000D03*
Y1845000D03*
Y2135000D03*
Y2345000D03*
Y2635000D03*
Y2845000D03*
X1390000Y2135000D03*
Y2345000D03*
X1990000Y1635000D03*
Y1845000D03*
Y2135000D03*
Y2345000D03*
Y2635000D03*
Y2845000D03*
D02*
D1069*
X1199500Y1245000D03*
Y1835000D03*
X1326500Y1245000D03*
Y1835000D03*
X1453500Y1245000D03*
Y1835000D03*
X1580500Y1245000D03*
Y1835000D03*
D02*
D1070*
X970000Y415000D03*
Y865000D03*
X1810000Y415000D03*
Y865000D03*
X0Y0D02*
M02*
