G04 GENERATED BY PULSONIX 12.5 GERBER.DLL 9449*
G04 #@! TF.GenerationSoftware,Pulsonix,Pulsonix,12.5.9449*
G04 #@! TF.CreationDate,2024-02-09T14:36:55--1:00*
G04 #@! TF.Part,Single*
%FSLAX35Y35*%
%LPD*%
%MOMM*%
G04 #@! TF.FileFunction,Paste,Bot*
G04 #@! TF.FilePolarity,Positive*
G04 #@! TA.AperFunction,SMDPad,CuDef*
%AMT96*0 Rounded Rectangle pad*4,1,20,0.25000,0.30000,-0.25000,0.30000,-0.26913,0.29619,-0.28535,0.28535,-0.29619,0.26913,-0.30000,0.25000,-0.30000,-0.25000,-0.29619,-0.26913,-0.28535,-0.28535,-0.26913,-0.29619,-0.25000,-0.30000,0.25000,-0.30000,0.26913,-0.29619,0.28535,-0.28535,0.29619,-0.26913,0.30000,-0.25000,0.30000,0.25000,0.29619,0.26913,0.28535,0.28535,0.26913,0.29619,0.25000,0.30000,0*%
%ADD96T96*%
%ADD97R,0.43000X2.25000*%
%ADD98R,1.32080X0.99060*%
%AMT99*0 Rectangle Pad at angle 45*21,1,0.99060,1.32080,0,0,45*%
%ADD99T99*%
%ADD100R,0.99060X1.32080*%
G04 #@! TD.AperFunction*
X0Y0D02*
D02*
D96*
X749625Y862375D03*
Y962375D03*
X876625Y862375D03*
Y962375D03*
X1003625Y862375D03*
Y962375D03*
X1130625Y862375D03*
Y962375D03*
X1257625Y862375D03*
Y962375D03*
X1384625Y862375D03*
Y962375D03*
X1511625Y862375D03*
Y962375D03*
X1638625Y862375D03*
Y962375D03*
X1765625Y862375D03*
Y962375D03*
X1892625Y862375D03*
Y962375D03*
X2019625Y862375D03*
Y962375D03*
X2146625Y862375D03*
Y962375D03*
X2273625Y862375D03*
Y962375D03*
X2400625Y862375D03*
Y962375D03*
X2527625Y862375D03*
Y962375D03*
X2654625Y862375D03*
Y962375D03*
X2781625Y862375D03*
Y962375D03*
X2908625Y862375D03*
Y962375D03*
X3035625Y862375D03*
Y962375D03*
X3162625Y862375D03*
Y962375D03*
D02*
D97*
X601500Y1458000D03*
Y2113000D03*
Y2442250D03*
Y3097250D03*
X666500Y1458000D03*
Y2113000D03*
Y2442250D03*
Y3097250D03*
X731500Y1458000D03*
Y2113000D03*
Y2442250D03*
Y3097250D03*
X796500Y1458000D03*
Y2113000D03*
Y2442250D03*
Y3097250D03*
X861500Y1458000D03*
Y2113000D03*
Y2442250D03*
Y3097250D03*
X926500Y1458000D03*
Y2113000D03*
Y2442250D03*
Y3097250D03*
X991500Y1458000D03*
Y2113000D03*
Y2442250D03*
Y3097250D03*
X1056500Y1458000D03*
Y2113000D03*
Y2442250D03*
Y3097250D03*
D02*
D98*
X2743601Y2245875D03*
Y2611000D03*
Y2976125D03*
Y3341250D03*
Y3690500D03*
X2946649Y2150879D03*
Y2340871D03*
Y2516004D03*
Y2705996D03*
Y2881129D03*
Y3071121D03*
Y3246254D03*
Y3436246D03*
Y3595504D03*
Y3785496D03*
D02*
D99*
X1598587Y2174788D03*
X1674991Y1964039D03*
X1809336Y2098384D03*
X1852587Y2428788D03*
X1928991Y2218039D03*
X2063336Y2352384D03*
X2106587Y2682788D03*
X2182991Y2472039D03*
X2317336Y2606384D03*
D02*
D100*
X2051629Y1382351D03*
X2146625Y1585399D03*
X2241621Y1382351D03*
X2432629D03*
X2527625Y1585399D03*
X2622621Y1382351D03*
X0Y0D02*
M02*
