G04 GENERATED BY PULSONIX 12.5 GERBER.DLL 9449*
G04 #@! TF.GenerationSoftware,Pulsonix,Pulsonix,12.5.9449*
G04 #@! TF.CreationDate,2024-02-09T14:36:55--1:00*
G04 #@! TF.Part,Single*
%FSLAX35Y35*%
%LPD*%
%MOMM*%
G04 #@! TF.FileFunction,Legend,Bot*
G04 #@! TF.FilePolarity,Positive*
G04 #@! TA.AperFunction,Profile*
%ADD96C,0.30000*%
G04 #@! TA.AperFunction,Material*
%ADD97C,0.05000*%
%ADD98C,0.20320*%
G04 #@! TD.AperFunction*
%ADD99C,0.00001*%
%ADD100C,0.25000*%
%ADD101C,0.20000*%
G04 #@! TD.AperFunction*
X0Y0D02*
D02*
D96*
X342500Y4596500D02*
X3517500D01*
Y496500D01*
X342500D01*
Y4596500D01*
D02*
D97*
X706625Y817375D02*
X792625D01*
Y1007375D01*
X706625D01*
Y817375D01*
X919625Y1007375D02*
X833625D01*
Y817375D01*
X919625D01*
Y1007375D01*
X960625Y817375D02*
X1046625D01*
Y1007375D01*
X960625D01*
Y817375D01*
X1173625Y1007375D02*
X1087625D01*
Y817375D01*
X1173625D01*
Y1007375D01*
X1214625Y817375D02*
X1300625D01*
Y1007375D01*
X1214625D01*
Y817375D01*
X1427625Y1007375D02*
X1341625D01*
Y817375D01*
X1427625D01*
Y1007375D01*
X1468625Y817375D02*
X1554625D01*
Y1007375D01*
X1468625D01*
Y817375D01*
X1681625Y1007375D02*
X1595625D01*
Y817375D01*
X1681625D01*
Y1007375D01*
X1722625Y817375D02*
X1808625D01*
Y1007375D01*
X1722625D01*
Y817375D01*
X1935625Y1007375D02*
X1849625D01*
Y817375D01*
X1935625D01*
Y1007375D01*
X1976625Y817375D02*
X2062625D01*
Y1007375D01*
X1976625D01*
Y817375D01*
X2189625Y1007375D02*
X2103625D01*
Y817375D01*
X2189625D01*
Y1007375D01*
X2230625Y817375D02*
X2316625D01*
Y1007375D01*
X2230625D01*
Y817375D01*
X2443625Y1007375D02*
X2357625D01*
Y817375D01*
X2443625D01*
Y1007375D01*
X2484625Y817375D02*
X2570625D01*
Y1007375D01*
X2484625D01*
Y817375D01*
X2697625Y1007375D02*
X2611625D01*
Y817375D01*
X2697625D01*
Y1007375D01*
X2738625Y817375D02*
X2824625D01*
Y1007375D01*
X2738625D01*
Y817375D01*
X2951625Y1007375D02*
X2865625D01*
Y817375D01*
X2951625D01*
Y1007375D01*
X2992625Y817375D02*
X3078625D01*
Y1007375D01*
X2992625D01*
Y817375D01*
X3205625Y1007375D02*
X3119625D01*
Y817375D01*
X3205625D01*
Y1007375D01*
D02*
D98*
X519000Y1520500D02*
X549600D01*
X519000Y2050500D02*
X549600D01*
X519000D02*
Y1520500D01*
Y2504750D02*
X549600D01*
X519000Y3034750D02*
X549600D01*
X519000D02*
Y2504750D01*
X1066800Y1785500D02*
G75*
G03*
X1133800Y1734700I58900J8100D01*
G01*
X1066800Y1785500D02*
G75*
G02*
X1133800Y1836300I58900J-8100D01*
G01*
X1066800Y2769750D02*
G75*
G03*
X1133800Y2718950I58900J8100D01*
G01*
X1066800Y2769750D02*
G75*
G02*
X1133800Y2820550I58900J-8100D01*
G01*
X1139000Y1520500D02*
X1108400D01*
X1139000Y2050500D02*
X1108400D01*
X1139000D02*
Y1520500D01*
Y2504750D02*
X1108400D01*
X1139000Y3034750D02*
X1108400D01*
X1139000D02*
Y2504750D01*
X1573891Y1983814D02*
X1513041Y2044664D01*
X1575795Y2107418D01*
X1741965Y2075593D02*
X1697782Y2031410D01*
X1789561Y2199484D02*
X1728711Y2260334D01*
X1665957Y2197580D01*
X1827891Y2237814D02*
X1767041Y2298664D01*
X1829795Y2361418D01*
X1994123Y1467822D02*
Y1553877D01*
X2082871D01*
X1995965Y2329593D02*
X1951782Y2285410D01*
X2043561Y2453484D02*
X1982711Y2514334D01*
X1919957Y2451580D01*
X2081891Y2491814D02*
X2021041Y2552664D01*
X2083795Y2615418D01*
X2177867Y1413873D02*
X2115383D01*
X2249965Y2583593D02*
X2205782Y2539410D01*
X2297561Y2707484D02*
X2236711Y2768334D01*
X2173957Y2705580D01*
X2299127Y1467822D02*
Y1553877D01*
X2210379D01*
X2375123Y1467822D02*
Y1553877D01*
X2463871D01*
X2558867Y1413873D02*
X2496383D01*
X2680127Y1467822D02*
Y1553877D01*
X2591379D01*
X2861178Y2093373D02*
X2775123D01*
Y2182121D01*
X2861178Y2398377D02*
X2775123D01*
Y2309629D01*
X2861178Y2458498D02*
X2775123D01*
Y2547246D01*
X2861178Y2763502D02*
X2775123D01*
Y2674754D01*
X2861178Y2823623D02*
X2775123D01*
Y2912371D01*
X2861178Y3128627D02*
X2775123D01*
Y3039879D01*
X2861178Y3188748D02*
X2775123D01*
Y3277496D01*
X2861178Y3493752D02*
X2775123D01*
Y3405004D01*
X2861178Y3537998D02*
X2775123D01*
Y3626746D01*
X2861178Y3843002D02*
X2775123D01*
Y3754254D01*
X2915127Y2277117D02*
Y2214633D01*
Y2642242D02*
Y2579758D01*
Y3007367D02*
Y2944883D01*
Y3372492D02*
Y3310008D01*
Y3721742D02*
Y3659258D01*
D02*
D99*
X2430633Y3065914D02*
Y3002828D01*
X2427703D01*
X2425164Y3002437D01*
X2423406Y3002047D01*
X2422234Y3001461D01*
X2421062Y3000289D01*
X2420281Y2998922D01*
X2419695Y2997359D01*
X2419500Y2995602D01*
X2419695Y2993648D01*
X2420086Y2991891D01*
X2421062Y2990523D01*
X2422039Y2989547D01*
X2422820Y2989156D01*
X2423602Y2988766D01*
X2424578Y2988375D01*
X2425750Y2988180D01*
X2427312Y2987984D01*
X2428875Y2987789D01*
X2430828D01*
X2432781D01*
X2448211D01*
X2451336D01*
X2453875Y2988180D01*
X2455828Y2988766D01*
X2457391Y2989547D01*
X2458367Y2990523D01*
X2459148Y2991891D01*
X2459734Y2993453D01*
Y2995406D01*
X2459539Y2997555D01*
X2458953Y2999117D01*
X2458172Y3000680D01*
X2456805Y3001852D01*
X2455242Y3002437D01*
X2453289Y3002828D01*
X2450945Y3003023D01*
X2448211Y3003219D01*
X2447039D01*
Y3023531D01*
X2482000D01*
Y3003219D01*
X2479266D01*
X2477117Y3003023D01*
X2475164Y3002828D01*
X2473406Y3002242D01*
X2472039Y3001461D01*
X2470672Y3000289D01*
X2469891Y2998922D01*
X2469305Y2997359D01*
X2469109Y2995602D01*
X2469305Y2993648D01*
X2469695Y2991891D01*
X2470477Y2990523D01*
X2471453Y2989547D01*
X2472820Y2988766D01*
X2474773Y2988180D01*
X2477117Y2987789D01*
X2479852D01*
X2499578D01*
X2502117D01*
X2504461Y2988180D01*
X2506219Y2988961D01*
X2507391Y2989742D01*
X2508367Y2990914D01*
X2508953Y2992281D01*
X2509344Y2993844D01*
X2509539Y2995602D01*
X2509344Y2997555D01*
X2508758Y2999117D01*
X2507977Y3000484D01*
X2507000Y3001461D01*
X2505633Y3002047D01*
X2503875Y3002437D01*
X2501336Y3002828D01*
X2498406D01*
Y3065914D01*
X2501336Y3066109D01*
X2503875Y3066500D01*
X2505633Y3067086D01*
X2507000Y3067672D01*
X2507977Y3068648D01*
X2508758Y3070016D01*
X2509344Y3071773D01*
X2509539Y3073727D01*
X2509344Y3075484D01*
X2508953Y3077047D01*
X2508367Y3078219D01*
X2507391Y3079391D01*
X2506023Y3080367D01*
X2504266Y3080953D01*
X2501922Y3081344D01*
X2499187D01*
X2480633D01*
X2477508D01*
X2475164Y3080953D01*
X2473211Y3080562D01*
X2471844Y3079781D01*
X2470672Y3078805D01*
X2469695Y3077437D01*
X2469305Y3075680D01*
X2469109Y3073727D01*
X2469305Y3071773D01*
X2469891Y3070016D01*
X2470867Y3068648D01*
X2472234Y3067477D01*
X2473797Y3066891D01*
X2475750Y3066305D01*
X2478289Y3066109D01*
X2481023Y3065914D01*
X2482000D01*
Y3038375D01*
X2447039D01*
Y3065914D01*
X2449773D01*
X2452117Y3066109D01*
X2454070Y3066500D01*
X2455633Y3066891D01*
X2457000Y3067672D01*
X2458367Y3068844D01*
X2459148Y3070211D01*
X2459539Y3071773D01*
X2459734Y3073727D01*
X2459539Y3075680D01*
X2459148Y3077437D01*
X2458367Y3078805D01*
X2457000Y3079781D01*
X2455633Y3080562D01*
X2453680Y3080953D01*
X2450945Y3081344D01*
X2447430D01*
X2429656D01*
X2426922D01*
X2424773Y3080953D01*
X2423016Y3080367D01*
X2421648Y3079391D01*
X2420672Y3078219D01*
X2420086Y3077047D01*
X2419695Y3075484D01*
X2419500Y3073727D01*
X2419695Y3071773D01*
X2420086Y3070211D01*
X2421062Y3068844D01*
X2422039Y3067672D01*
X2423406Y3067086D01*
X2425164Y3066500D01*
X2427703Y3066109D01*
X2430633Y3065914D01*
G36*
X2430633Y3065914D02*
Y3002828D01*
X2427703D01*
X2425164Y3002437D01*
X2423406Y3002047D01*
X2422234Y3001461D01*
X2421062Y3000289D01*
X2420281Y2998922D01*
X2419695Y2997359D01*
X2419500Y2995602D01*
X2419695Y2993648D01*
X2420086Y2991891D01*
X2421062Y2990523D01*
X2422039Y2989547D01*
X2422820Y2989156D01*
X2423602Y2988766D01*
X2424578Y2988375D01*
X2425750Y2988180D01*
X2427312Y2987984D01*
X2428875Y2987789D01*
X2430828D01*
X2432781D01*
X2448211D01*
X2451336D01*
X2453875Y2988180D01*
X2455828Y2988766D01*
X2457391Y2989547D01*
X2458367Y2990523D01*
X2459148Y2991891D01*
X2459734Y2993453D01*
Y2995406D01*
X2459539Y2997555D01*
X2458953Y2999117D01*
X2458172Y3000680D01*
X2456805Y3001852D01*
X2455242Y3002437D01*
X2453289Y3002828D01*
X2450945Y3003023D01*
X2448211Y3003219D01*
X2447039D01*
Y3023531D01*
X2482000D01*
Y3003219D01*
X2479266D01*
X2477117Y3003023D01*
X2475164Y3002828D01*
X2473406Y3002242D01*
X2472039Y3001461D01*
X2470672Y3000289D01*
X2469891Y2998922D01*
X2469305Y2997359D01*
X2469109Y2995602D01*
X2469305Y2993648D01*
X2469695Y2991891D01*
X2470477Y2990523D01*
X2471453Y2989547D01*
X2472820Y2988766D01*
X2474773Y2988180D01*
X2477117Y2987789D01*
X2479852D01*
X2499578D01*
X2502117D01*
X2504461Y2988180D01*
X2506219Y2988961D01*
X2507391Y2989742D01*
X2508367Y2990914D01*
X2508953Y2992281D01*
X2509344Y2993844D01*
X2509539Y2995602D01*
X2509344Y2997555D01*
X2508758Y2999117D01*
X2507977Y3000484D01*
X2507000Y3001461D01*
X2505633Y3002047D01*
X2503875Y3002437D01*
X2501336Y3002828D01*
X2498406D01*
Y3065914D01*
X2501336Y3066109D01*
X2503875Y3066500D01*
X2505633Y3067086D01*
X2507000Y3067672D01*
X2507977Y3068648D01*
X2508758Y3070016D01*
X2509344Y3071773D01*
X2509539Y3073727D01*
X2509344Y3075484D01*
X2508953Y3077047D01*
X2508367Y3078219D01*
X2507391Y3079391D01*
X2506023Y3080367D01*
X2504266Y3080953D01*
X2501922Y3081344D01*
X2499187D01*
X2480633D01*
X2477508D01*
X2475164Y3080953D01*
X2473211Y3080562D01*
X2471844Y3079781D01*
X2470672Y3078805D01*
X2469695Y3077437D01*
X2469305Y3075680D01*
X2469109Y3073727D01*
X2469305Y3071773D01*
X2469891Y3070016D01*
X2470867Y3068648D01*
X2472234Y3067477D01*
X2473797Y3066891D01*
X2475750Y3066305D01*
X2478289Y3066109D01*
X2481023Y3065914D01*
X2482000D01*
Y3038375D01*
X2447039D01*
Y3065914D01*
X2449773D01*
X2452117Y3066109D01*
X2454070Y3066500D01*
X2455633Y3066891D01*
X2457000Y3067672D01*
X2458367Y3068844D01*
X2459148Y3070211D01*
X2459539Y3071773D01*
X2459734Y3073727D01*
X2459539Y3075680D01*
X2459148Y3077437D01*
X2458367Y3078805D01*
X2457000Y3079781D01*
X2455633Y3080562D01*
X2453680Y3080953D01*
X2450945Y3081344D01*
X2447430D01*
X2429656D01*
X2426922D01*
X2424773Y3080953D01*
X2423016Y3080367D01*
X2421648Y3079391D01*
X2420672Y3078219D01*
X2420086Y3077047D01*
X2419695Y3075484D01*
X2419500Y3073727D01*
X2419695Y3071773D01*
X2420086Y3070211D01*
X2421062Y3068844D01*
X2422039Y3067672D01*
X2423406Y3067086D01*
X2425164Y3066500D01*
X2427703Y3066109D01*
X2430633Y3065914D01*
G37*
X2331609Y2996578D02*
X2331805Y2994820D01*
X2332195Y2993258D01*
X2332977Y2992086D01*
X2333953Y2990914D01*
X2335320Y2989937D01*
X2336687Y2989352D01*
X2338250Y2988961D01*
X2340203D01*
X2351727D01*
X2353094D01*
X2354461Y2989352D01*
X2355633Y2989937D01*
X2356805Y2990523D01*
X2358367Y2992867D01*
X2359344Y2995992D01*
X2361687Y2994234D01*
X2364422Y2992672D01*
X2366961Y2991305D01*
X2369891Y2990133D01*
X2373602Y2988766D01*
X2377312Y2987789D01*
X2381219Y2987203D01*
X2385320Y2987008D01*
X2388250Y2987203D01*
X2390984Y2987398D01*
X2393523Y2987984D01*
X2396062Y2988766D01*
X2398406Y2989742D01*
X2400750Y2990914D01*
X2402703Y2992281D01*
X2404656Y2993844D01*
X2406414Y2995602D01*
X2407977Y2997555D01*
X2409344Y2999508D01*
X2410320Y3001656D01*
X2411102Y3004000D01*
X2411687Y3006344D01*
X2412078Y3008883D01*
X2412273Y3011422D01*
X2412078Y3014547D01*
X2411687Y3017672D01*
X2410906Y3020406D01*
X2409734Y3022945D01*
X2408367Y3025484D01*
X2406609Y3027633D01*
X2404461Y3029781D01*
X2402117Y3031539D01*
X2399578Y3033102D01*
X2396844Y3034664D01*
X2393914Y3035836D01*
X2390789Y3036812D01*
X2387469Y3037398D01*
X2383758Y3037984D01*
X2379852Y3038375D01*
X2375750D01*
X2371258D01*
X2366766Y3037984D01*
X2360516Y3037008D01*
X2360906Y3039547D01*
X2361687Y3041695D01*
X2362664Y3043648D01*
X2364031Y3045211D01*
X2365789Y3046578D01*
X2368328Y3047750D01*
X2371258Y3048336D01*
X2374773Y3048531D01*
X2377312Y3048336D01*
X2380242Y3047750D01*
X2383367Y3046969D01*
X2386687Y3045602D01*
X2390203Y3044234D01*
X2392937Y3043258D01*
X2395281Y3042672D01*
X2397039Y3042477D01*
X2398602Y3042672D01*
X2399969Y3043062D01*
X2401336Y3043844D01*
X2402312Y3044820D01*
X2403289Y3046187D01*
X2403875Y3047555D01*
X2404266Y3049312D01*
X2404461Y3051070D01*
X2404266Y3052437D01*
X2403875Y3054000D01*
X2403094Y3055172D01*
X2401922Y3056539D01*
X2400555Y3057711D01*
X2398797Y3058687D01*
X2396844Y3059664D01*
X2394500Y3060641D01*
X2390008Y3062008D01*
X2384734Y3062984D01*
X2379070Y3063570D01*
X2372625Y3063766D01*
X2369305Y3063570D01*
X2366180Y3063180D01*
X2363250Y3062789D01*
X2360516Y3061812D01*
X2357977Y3060836D01*
X2355633Y3059664D01*
X2353484Y3058102D01*
X2351531Y3056539D01*
X2349773Y3054586D01*
X2348211Y3052437D01*
X2347039Y3050094D01*
X2346062Y3047555D01*
X2345086Y3044820D01*
X2344695Y3041891D01*
X2344305Y3038766D01*
X2344109Y3035250D01*
Y3004195D01*
X2342937D01*
X2340203Y3004000D01*
X2337859Y3003805D01*
X2336102Y3003414D01*
X2334539Y3002828D01*
X2333367Y3001656D01*
X2332391Y3000289D01*
X2331805Y2998727D01*
X2331609Y2996578D01*
X2366375Y3023531D02*
X2369891Y3023922D01*
X2373602Y3024117D01*
X2378680Y3023727D01*
X2382977Y3023141D01*
X2386883Y3022164D01*
X2390203Y3020602D01*
X2392547Y3018844D01*
X2394109Y3016891D01*
X2395281Y3014742D01*
X2395477Y3012398D01*
X2395281Y3010445D01*
X2394695Y3008883D01*
X2393719Y3007516D01*
X2392352Y3006148D01*
X2390594Y3004781D01*
X2388445Y3004000D01*
X2386102Y3003414D01*
X2383562Y3003219D01*
X2379266Y3003414D01*
X2375164Y3004391D01*
X2371062Y3005758D01*
X2367352Y3007906D01*
X2365789Y3008883D01*
X2364422Y3009859D01*
X2363250Y3011031D01*
X2362273Y3012008D01*
X2361492Y3012984D01*
X2360906Y3013961D01*
X2360711Y3014937D01*
X2360516Y3015914D01*
Y3022359D01*
X2366375Y3023531D01*
X2344109Y3035250D02*
G36*
X2344109Y3035250D02*
Y3013668D01*
X2361082D01*
X2360906Y3013961D01*
X2360711Y3014937D01*
X2360516Y3015914D01*
Y3022359D01*
X2366375Y3023531D01*
X2369891Y3023922D01*
X2373602Y3024117D01*
X2378680Y3023727D01*
X2382977Y3023141D01*
X2386883Y3022164D01*
X2390203Y3020602D01*
X2392547Y3018844D01*
X2394109Y3016891D01*
X2395281Y3014742D01*
X2395371Y3013668D01*
X2412133D01*
X2412078Y3014547D01*
X2411687Y3017672D01*
X2410906Y3020406D01*
X2409734Y3022945D01*
X2408367Y3025484D01*
X2406609Y3027633D01*
X2404461Y3029781D01*
X2402117Y3031539D01*
X2399578Y3033102D01*
X2396844Y3034664D01*
X2393914Y3035836D01*
X2390789Y3036812D01*
X2387469Y3037398D01*
X2383758Y3037984D01*
X2379852Y3038375D01*
X2375750D01*
X2371258D01*
X2366766Y3037984D01*
X2360516Y3037008D01*
X2360906Y3039547D01*
X2361687Y3041695D01*
X2362664Y3043648D01*
X2364031Y3045211D01*
X2365789Y3046578D01*
X2368328Y3047750D01*
X2371258Y3048336D01*
X2374773Y3048531D01*
X2377312Y3048336D01*
X2380242Y3047750D01*
X2383367Y3046969D01*
X2386687Y3045602D01*
X2390203Y3044234D01*
X2392937Y3043258D01*
X2395281Y3042672D01*
X2397039Y3042477D01*
X2398602Y3042672D01*
X2399969Y3043062D01*
X2401336Y3043844D01*
X2402312Y3044820D01*
X2403289Y3046187D01*
X2403875Y3047555D01*
X2404266Y3049312D01*
X2404461Y3051070D01*
X2404266Y3052437D01*
X2403875Y3054000D01*
X2403094Y3055172D01*
X2401922Y3056539D01*
X2400555Y3057711D01*
X2398797Y3058687D01*
X2396844Y3059664D01*
X2394500Y3060641D01*
X2390008Y3062008D01*
X2384734Y3062984D01*
X2379070Y3063570D01*
X2372625Y3063766D01*
X2369305Y3063570D01*
X2366180Y3063180D01*
X2363250Y3062789D01*
X2360516Y3061812D01*
X2357977Y3060836D01*
X2355633Y3059664D01*
X2353484Y3058102D01*
X2351531Y3056539D01*
X2349773Y3054586D01*
X2348211Y3052437D01*
X2347039Y3050094D01*
X2346062Y3047555D01*
X2345086Y3044820D01*
X2344695Y3041891D01*
X2344305Y3038766D01*
X2344109Y3035250D01*
G37*
X2331609Y2996578D02*
G36*
X2331609Y2996578D02*
X2331805Y2994820D01*
X2332195Y2993258D01*
X2332977Y2992086D01*
X2333953Y2990914D01*
X2335320Y2989937D01*
X2336687Y2989352D01*
X2338250Y2988961D01*
X2340203D01*
X2351727D01*
X2353094D01*
X2354461Y2989352D01*
X2355633Y2989937D01*
X2356805Y2990523D01*
X2358367Y2992867D01*
X2359344Y2995992D01*
X2361687Y2994234D01*
X2364422Y2992672D01*
X2366961Y2991305D01*
X2369891Y2990133D01*
X2373602Y2988766D01*
X2377312Y2987789D01*
X2381219Y2987203D01*
X2385320Y2987008D01*
X2388250Y2987203D01*
X2390984Y2987398D01*
X2393523Y2987984D01*
X2396062Y2988766D01*
X2398406Y2989742D01*
X2400750Y2990914D01*
X2402703Y2992281D01*
X2404656Y2993844D01*
X2406414Y2995602D01*
X2407977Y2997555D01*
X2409344Y2999508D01*
X2410320Y3001656D01*
X2411102Y3004000D01*
X2411687Y3006344D01*
X2412078Y3008883D01*
X2412273Y3011422D01*
X2412133Y3013668D01*
X2395371D01*
X2395477Y3012398D01*
X2395281Y3010445D01*
X2394695Y3008883D01*
X2393719Y3007516D01*
X2392352Y3006148D01*
X2390594Y3004781D01*
X2388445Y3004000D01*
X2386102Y3003414D01*
X2383562Y3003219D01*
X2379266Y3003414D01*
X2375164Y3004391D01*
X2371062Y3005758D01*
X2367352Y3007906D01*
X2365789Y3008883D01*
X2364422Y3009859D01*
X2363250Y3011031D01*
X2362273Y3012008D01*
X2361492Y3012984D01*
X2361082Y3013668D01*
X2344109D01*
Y3004195D01*
X2342937D01*
X2340203Y3004000D01*
X2337859Y3003805D01*
X2336102Y3003414D01*
X2334539Y3002828D01*
X2333367Y3001656D01*
X2332391Y3000289D01*
X2331805Y2998727D01*
X2331609Y2996578D01*
G37*
X2238445Y3073727D02*
X2238641Y3071773D01*
X2239227Y3070016D01*
X2240008Y3068648D01*
X2241180Y3067477D01*
X2242547Y3066891D01*
X2244305Y3066305D01*
X2246648Y3066109D01*
X2249578Y3065914D01*
X2256609D01*
Y3020992D01*
X2256805Y3016695D01*
X2257195Y3012789D01*
X2257781Y3009078D01*
X2258562Y3005562D01*
X2259734Y3002437D01*
X2261102Y2999703D01*
X2262664Y2997164D01*
X2264422Y2995016D01*
X2266570Y2993062D01*
X2269109Y2991500D01*
X2271648Y2989937D01*
X2274773Y2988766D01*
X2277898Y2987984D01*
X2281609Y2987203D01*
X2285320Y2986812D01*
X2289422D01*
X2293133D01*
X2296648Y2987203D01*
X2299969Y2987594D01*
X2303289Y2988375D01*
X2306414Y2989156D01*
X2309734Y2990523D01*
X2313055Y2991891D01*
X2316375Y2993648D01*
X2317937Y2994430D01*
X2319109Y2995406D01*
X2320086Y2996187D01*
X2320672Y2997164D01*
X2321062Y2998336D01*
X2321453Y2999703D01*
X2321648Y3001461D01*
Y3003414D01*
Y3020797D01*
Y3023727D01*
X2321258Y3025875D01*
X2320867Y3027633D01*
X2320086Y3028805D01*
X2319109Y3029781D01*
X2317742Y3030562D01*
X2316375Y3030953D01*
X2314812Y3031148D01*
X2312273Y3030758D01*
X2310320Y3029977D01*
X2308562Y3028609D01*
X2307586Y3026656D01*
X2307195Y3025680D01*
X2306805Y3024508D01*
Y3023727D01*
X2306609Y3022750D01*
Y3021773D01*
Y3020406D01*
Y3019625D01*
X2306414Y3015523D01*
X2305828Y3011812D01*
X2305047Y3009469D01*
X2303680Y3007320D01*
X2302312Y3005562D01*
X2300555Y3003805D01*
X2298211Y3002633D01*
X2295867Y3001656D01*
X2293133Y3001266D01*
X2290203Y3001070D01*
X2285906Y3001266D01*
X2282391Y3002242D01*
X2279461Y3003805D01*
X2277117Y3005953D01*
X2276336Y3007320D01*
X2275359Y3008687D01*
X2274773Y3010641D01*
X2274187Y3012594D01*
X2273797Y3014937D01*
X2273406Y3017281D01*
X2273211Y3020016D01*
Y3022945D01*
Y3065914D01*
X2283953D01*
X2287078Y3066109D01*
X2289422Y3066305D01*
X2291180Y3066891D01*
X2292547Y3067477D01*
X2293719Y3068648D01*
X2294695Y3070016D01*
X2295086Y3071773D01*
X2295281Y3073727D01*
Y3075484D01*
X2294891Y3077047D01*
X2294109Y3078219D01*
X2293328Y3079391D01*
X2292156Y3080367D01*
X2290789Y3080953D01*
X2289227Y3081344D01*
X2287469D01*
X2246062D01*
X2244305D01*
X2242742Y3080953D01*
X2241570Y3080172D01*
X2240398Y3079195D01*
X2239617Y3078023D01*
X2239031Y3076852D01*
X2238641Y3075289D01*
X2238445Y3073727D01*
G36*
X2238445Y3073727D02*
X2238641Y3071773D01*
X2239227Y3070016D01*
X2240008Y3068648D01*
X2241180Y3067477D01*
X2242547Y3066891D01*
X2244305Y3066305D01*
X2246648Y3066109D01*
X2249578Y3065914D01*
X2256609D01*
Y3020992D01*
X2256805Y3016695D01*
X2257195Y3012789D01*
X2257781Y3009078D01*
X2258562Y3005562D01*
X2259734Y3002437D01*
X2261102Y2999703D01*
X2262664Y2997164D01*
X2264422Y2995016D01*
X2266570Y2993062D01*
X2269109Y2991500D01*
X2271648Y2989937D01*
X2274773Y2988766D01*
X2277898Y2987984D01*
X2281609Y2987203D01*
X2285320Y2986812D01*
X2289422D01*
X2293133D01*
X2296648Y2987203D01*
X2299969Y2987594D01*
X2303289Y2988375D01*
X2306414Y2989156D01*
X2309734Y2990523D01*
X2313055Y2991891D01*
X2316375Y2993648D01*
X2317937Y2994430D01*
X2319109Y2995406D01*
X2320086Y2996187D01*
X2320672Y2997164D01*
X2321062Y2998336D01*
X2321453Y2999703D01*
X2321648Y3001461D01*
Y3003414D01*
Y3020797D01*
Y3023727D01*
X2321258Y3025875D01*
X2320867Y3027633D01*
X2320086Y3028805D01*
X2319109Y3029781D01*
X2317742Y3030562D01*
X2316375Y3030953D01*
X2314812Y3031148D01*
X2312273Y3030758D01*
X2310320Y3029977D01*
X2308562Y3028609D01*
X2307586Y3026656D01*
X2307195Y3025680D01*
X2306805Y3024508D01*
Y3023727D01*
X2306609Y3022750D01*
Y3021773D01*
Y3020406D01*
Y3019625D01*
X2306414Y3015523D01*
X2305828Y3011812D01*
X2305047Y3009469D01*
X2303680Y3007320D01*
X2302312Y3005562D01*
X2300555Y3003805D01*
X2298211Y3002633D01*
X2295867Y3001656D01*
X2293133Y3001266D01*
X2290203Y3001070D01*
X2285906Y3001266D01*
X2282391Y3002242D01*
X2279461Y3003805D01*
X2277117Y3005953D01*
X2276336Y3007320D01*
X2275359Y3008687D01*
X2274773Y3010641D01*
X2274187Y3012594D01*
X2273797Y3014937D01*
X2273406Y3017281D01*
X2273211Y3020016D01*
Y3022945D01*
Y3065914D01*
X2283953D01*
X2287078Y3066109D01*
X2289422Y3066305D01*
X2291180Y3066891D01*
X2292547Y3067477D01*
X2293719Y3068648D01*
X2294695Y3070016D01*
X2295086Y3071773D01*
X2295281Y3073727D01*
Y3075484D01*
X2294891Y3077047D01*
X2294109Y3078219D01*
X2293328Y3079391D01*
X2292156Y3080367D01*
X2290789Y3080953D01*
X2289227Y3081344D01*
X2287469D01*
X2246062D01*
X2244305D01*
X2242742Y3080953D01*
X2241570Y3080172D01*
X2240398Y3079195D01*
X2239617Y3078023D01*
X2239031Y3076852D01*
X2238641Y3075289D01*
X2238445Y3073727D01*
G37*
X2159344Y3025484D02*
X2159539Y3021383D01*
X2159930Y3017477D01*
X2160906Y3013570D01*
X2162078Y3010055D01*
X2163836Y3006734D01*
X2165789Y3003609D01*
X2168133Y3000484D01*
X2170867Y2997750D01*
X2173797Y2995211D01*
X2176922Y2993062D01*
X2180437Y2991305D01*
X2183953Y2989742D01*
X2187859Y2988570D01*
X2191766Y2987789D01*
X2196062Y2987203D01*
X2200555Y2987008D01*
X2205047Y2987203D01*
X2209148Y2987789D01*
X2213250Y2988570D01*
X2216961Y2989742D01*
X2220477Y2991305D01*
X2223992Y2993062D01*
X2227117Y2995211D01*
X2230047Y2997750D01*
X2232781Y3000484D01*
X2235125Y3003609D01*
X2237078Y3006734D01*
X2238836Y3010055D01*
X2240008Y3013570D01*
X2240984Y3017281D01*
X2241375Y3021187D01*
X2241570Y3025289D01*
X2241375Y3029391D01*
X2240984Y3033492D01*
X2240008Y3037203D01*
X2238836Y3040719D01*
X2237078Y3044039D01*
X2235125Y3047164D01*
X2232781Y3050289D01*
X2230047Y3053023D01*
X2227117Y3055562D01*
X2223992Y3057711D01*
X2220477Y3059469D01*
X2216961Y3061031D01*
X2213250Y3062203D01*
X2209148Y3062984D01*
X2204852Y3063570D01*
X2200555Y3063766D01*
X2196062Y3063570D01*
X2191766Y3062984D01*
X2187859Y3062203D01*
X2183953Y3061031D01*
X2180437Y3059469D01*
X2176922Y3057711D01*
X2173797Y3055562D01*
X2170867Y3053023D01*
X2168133Y3050289D01*
X2165789Y3047164D01*
X2163836Y3044039D01*
X2162078Y3040719D01*
X2160906Y3037203D01*
X2159930Y3033492D01*
X2159539Y3029586D01*
X2159344Y3025484D01*
X2223797D02*
X2223602Y3022945D01*
X2223406Y3020602D01*
X2222820Y3018258D01*
X2222234Y3016109D01*
X2221258Y3014156D01*
X2220086Y3012203D01*
X2218719Y3010445D01*
X2217352Y3008687D01*
X2215594Y3007125D01*
X2213836Y3005758D01*
X2211883Y3004781D01*
X2209930Y3003805D01*
X2207586Y3003023D01*
X2205437Y3002633D01*
X2202898Y3002242D01*
X2200359D01*
X2198016D01*
X2195477Y3002633D01*
X2193133Y3003023D01*
X2190984Y3003805D01*
X2189031Y3004781D01*
X2187078Y3005758D01*
X2185320Y3007125D01*
X2183562Y3008687D01*
X2182000Y3010445D01*
X2180633Y3012203D01*
X2179461Y3014156D01*
X2178680Y3016109D01*
X2177898Y3018258D01*
X2177312Y3020406D01*
X2177117Y3022945D01*
X2176922Y3025289D01*
X2177117Y3027828D01*
X2177312Y3030172D01*
X2177898Y3032516D01*
X2178680Y3034664D01*
X2179461Y3036617D01*
X2180633Y3038570D01*
X2182000Y3040523D01*
X2183562Y3042086D01*
X2185320Y3043648D01*
X2187078Y3045016D01*
X2189031Y3046187D01*
X2190984Y3047164D01*
X2193133Y3047750D01*
X2195477Y3048336D01*
X2198016Y3048531D01*
X2200359Y3048727D01*
X2202898Y3048531D01*
X2205437Y3048336D01*
X2207586Y3047750D01*
X2209930Y3047164D01*
X2211883Y3046187D01*
X2213836Y3045016D01*
X2215594Y3043648D01*
X2217352Y3042086D01*
X2218719Y3040523D01*
X2220086Y3038570D01*
X2221258Y3036812D01*
X2222234Y3034664D01*
X2222820Y3032516D01*
X2223406Y3030367D01*
X2223602Y3028023D01*
X2223797Y3025484D01*
X2159344D02*
G36*
X2159344Y3025484D02*
X2176937D01*
X2177117Y3027828D01*
X2177312Y3030172D01*
X2177898Y3032516D01*
X2178680Y3034664D01*
X2179461Y3036617D01*
X2180633Y3038570D01*
X2182000Y3040523D01*
X2183562Y3042086D01*
X2185320Y3043648D01*
X2187078Y3045016D01*
X2189031Y3046187D01*
X2190984Y3047164D01*
X2193133Y3047750D01*
X2195477Y3048336D01*
X2198016Y3048531D01*
X2200359Y3048727D01*
X2202898Y3048531D01*
X2205437Y3048336D01*
X2207586Y3047750D01*
X2209930Y3047164D01*
X2211883Y3046187D01*
X2213836Y3045016D01*
X2215594Y3043648D01*
X2217352Y3042086D01*
X2218719Y3040523D01*
X2220086Y3038570D01*
X2221258Y3036812D01*
X2222234Y3034664D01*
X2222820Y3032516D01*
X2223406Y3030367D01*
X2223602Y3028023D01*
X2223797Y3025484D01*
X2241561D01*
X2241375Y3029391D01*
X2240984Y3033492D01*
X2240008Y3037203D01*
X2238836Y3040719D01*
X2237078Y3044039D01*
X2235125Y3047164D01*
X2232781Y3050289D01*
X2230047Y3053023D01*
X2227117Y3055562D01*
X2223992Y3057711D01*
X2220477Y3059469D01*
X2216961Y3061031D01*
X2213250Y3062203D01*
X2209148Y3062984D01*
X2204852Y3063570D01*
X2200555Y3063766D01*
X2196062Y3063570D01*
X2191766Y3062984D01*
X2187859Y3062203D01*
X2183953Y3061031D01*
X2180437Y3059469D01*
X2176922Y3057711D01*
X2173797Y3055562D01*
X2170867Y3053023D01*
X2168133Y3050289D01*
X2165789Y3047164D01*
X2163836Y3044039D01*
X2162078Y3040719D01*
X2160906Y3037203D01*
X2159930Y3033492D01*
X2159539Y3029586D01*
X2159344Y3025484D01*
G37*
G36*
X2159344Y3025484D02*
X2159539Y3021383D01*
X2159930Y3017477D01*
X2160906Y3013570D01*
X2162078Y3010055D01*
X2163836Y3006734D01*
X2165789Y3003609D01*
X2168133Y3000484D01*
X2170867Y2997750D01*
X2173797Y2995211D01*
X2176922Y2993062D01*
X2180437Y2991305D01*
X2183953Y2989742D01*
X2187859Y2988570D01*
X2191766Y2987789D01*
X2196062Y2987203D01*
X2200555Y2987008D01*
X2205047Y2987203D01*
X2209148Y2987789D01*
X2213250Y2988570D01*
X2216961Y2989742D01*
X2220477Y2991305D01*
X2223992Y2993062D01*
X2227117Y2995211D01*
X2230047Y2997750D01*
X2232781Y3000484D01*
X2235125Y3003609D01*
X2237078Y3006734D01*
X2238836Y3010055D01*
X2240008Y3013570D01*
X2240984Y3017281D01*
X2241375Y3021187D01*
X2241570Y3025289D01*
X2241561Y3025484D01*
X2223797D01*
X2223602Y3022945D01*
X2223406Y3020602D01*
X2222820Y3018258D01*
X2222234Y3016109D01*
X2221258Y3014156D01*
X2220086Y3012203D01*
X2218719Y3010445D01*
X2217352Y3008687D01*
X2215594Y3007125D01*
X2213836Y3005758D01*
X2211883Y3004781D01*
X2209930Y3003805D01*
X2207586Y3003023D01*
X2205437Y3002633D01*
X2202898Y3002242D01*
X2200359D01*
X2198016D01*
X2195477Y3002633D01*
X2193133Y3003023D01*
X2190984Y3003805D01*
X2189031Y3004781D01*
X2187078Y3005758D01*
X2185320Y3007125D01*
X2183562Y3008687D01*
X2182000Y3010445D01*
X2180633Y3012203D01*
X2179461Y3014156D01*
X2178680Y3016109D01*
X2177898Y3018258D01*
X2177312Y3020406D01*
X2177117Y3022945D01*
X2176922Y3025289D01*
X2176937Y3025484D01*
X2159344D01*
G37*
X2541375Y3013375D02*
X2539227Y3014547D01*
X2537078Y3015133D01*
X2534539Y3015328D01*
X2532195Y3015133D01*
X2529852Y3014547D01*
X2527703Y3013375D01*
X2525945Y3011812D01*
X2524383Y3009859D01*
X2523211Y3007711D01*
X2522625Y3005367D01*
X2522234Y3003023D01*
X2522625Y3000680D01*
X2523211Y2998141D01*
X2524383Y2996187D01*
X2525750Y2994234D01*
X2527703Y2992672D01*
X2529852Y2991500D01*
X2532195Y2990914D01*
X2534539Y2990719D01*
X2537078Y2990914D01*
X2540398Y2992281D01*
X2544695Y2990719D01*
X2548797Y2989547D01*
X2552703Y2988570D01*
X2556805Y2987984D01*
X2560906Y2987789D01*
X2564812D01*
X2569109Y2987984D01*
X2573211Y2988375D01*
X2576922Y2989156D01*
X2580633Y2990328D01*
X2583953Y2991695D01*
X2587078Y2993453D01*
X2590203Y2995406D01*
X2592937Y2997750D01*
X2596453Y3001852D01*
X2599383Y3006539D01*
X2601531Y3011812D01*
X2603094Y3017672D01*
X2605047Y3020016D01*
X2606414Y3022750D01*
X2606805Y3025875D01*
X2606609Y3029195D01*
X2605828Y3031344D01*
X2604852Y3033492D01*
X2603484Y3035250D01*
X2601727Y3036812D01*
X2600164Y3041109D01*
X2598016Y3045211D01*
X2595281Y3048922D01*
X2592156Y3052437D01*
X2589227Y3054781D01*
X2586102Y3056930D01*
X2582781Y3058687D01*
X2579266Y3060055D01*
X2575555Y3061227D01*
X2571453Y3062008D01*
X2567352Y3062594D01*
X2563055Y3062789D01*
X2558953Y3062594D01*
X2555242Y3062203D01*
X2551727Y3061422D01*
X2548211Y3060250D01*
X2544891Y3058883D01*
X2541961Y3057320D01*
X2539031Y3055367D01*
X2536297Y3053023D01*
X2533758Y3050484D01*
X2531609Y3047750D01*
X2529656Y3044820D01*
X2528094Y3041891D01*
X2526922Y3038766D01*
X2526141Y3035641D01*
X2525555Y3032125D01*
Y3028805D01*
Y3026461D01*
X2525945Y3024508D01*
X2526727Y3023141D01*
X2527703Y3021969D01*
X2529070Y3021187D01*
X2531414Y3020797D01*
X2534344Y3020406D01*
X2538250D01*
X2583953D01*
X2585125Y3018648D01*
X2586687Y3017086D01*
X2585906Y3013961D01*
X2584539Y3011227D01*
X2582977Y3008687D01*
X2580828Y3006539D01*
X2577508Y3004195D01*
X2573602Y3002437D01*
X2568914Y3001461D01*
X2563641Y3001266D01*
X2559930Y3001461D01*
X2555633Y3002242D01*
X2551336Y3003414D01*
X2546844Y3005172D01*
Y3005367D01*
X2546062Y3007711D01*
X2544891Y3010055D01*
X2543328Y3011812D01*
X2541375Y3013375D01*
X2578680Y3044820D02*
X2580828Y3042867D01*
X2582781Y3040523D01*
X2584344Y3038180D01*
X2585711Y3035250D01*
X2583953Y3033297D01*
X2542352Y3033102D01*
X2543133Y3036422D01*
X2544500Y3039547D01*
X2546453Y3042281D01*
X2548797Y3044625D01*
X2551922Y3046773D01*
X2555242Y3048141D01*
X2558953Y3049117D01*
X2563055Y3049508D01*
X2567547Y3049117D01*
X2571648Y3048336D01*
X2575359Y3046773D01*
X2578680Y3044820D01*
X2591180Y3021578D02*
X2590203Y3022359D01*
X2589422Y3023336D01*
X2588836Y3024312D01*
X2588445Y3025484D01*
Y3026656D01*
Y3027828D01*
X2588836Y3029000D01*
X2589422Y3029977D01*
X2590203Y3030953D01*
X2591180Y3031734D01*
X2592156Y3032320D01*
X2593328Y3032516D01*
X2594500Y3032711D01*
X2595672Y3032516D01*
X2596844Y3032320D01*
X2598016Y3031734D01*
X2598797Y3030953D01*
X2599578Y3030172D01*
X2600555Y3028023D01*
Y3026656D01*
Y3025484D01*
X2600164Y3024508D01*
X2599578Y3023336D01*
X2598992Y3022359D01*
X2598016Y3021773D01*
X2597039Y3021187D01*
X2595867Y3020797D01*
X2594695Y3020602D01*
X2593523Y3020797D01*
X2592352Y3021187D01*
X2591180Y3021578D01*
X2531219Y2997945D02*
X2530242Y2998727D01*
X2529656Y2999703D01*
X2529070Y3000680D01*
X2528680Y3002047D01*
X2528484Y3003219D01*
X2528680Y3004391D01*
X2529070Y3005367D01*
X2529461Y3006539D01*
X2531219Y3008102D01*
X2533367Y3009078D01*
X2534734Y3009273D01*
X2535906Y3009078D01*
X2537078Y3008687D01*
X2538055Y3008102D01*
X2539031Y3007320D01*
X2539812Y3006344D01*
X2540594Y3004195D01*
X2540789Y3003023D01*
X2540594Y3001852D01*
X2540398Y3000680D01*
X2539617Y2999703D01*
X2538836Y2998727D01*
X2537859Y2997945D01*
X2536883Y2997359D01*
X2535711Y2997164D01*
X2534539Y2996969D01*
X2533367Y2997164D01*
X2532391Y2997359D01*
X2531219Y2997945D01*
X2522250Y3003121D02*
G36*
X2522250Y3003121D02*
X2528500D01*
X2528484Y3003219D01*
X2528680Y3004391D01*
X2529070Y3005367D01*
X2529461Y3006539D01*
X2531219Y3008102D01*
X2533367Y3009078D01*
X2534734Y3009273D01*
X2535906Y3009078D01*
X2537078Y3008687D01*
X2538055Y3008102D01*
X2539031Y3007320D01*
X2539812Y3006344D01*
X2540594Y3004195D01*
X2540773Y3003121D01*
X2552410D01*
X2551336Y3003414D01*
X2546844Y3005172D01*
Y3005367D01*
X2546062Y3007711D01*
X2544891Y3010055D01*
X2543328Y3011812D01*
X2541375Y3013375D01*
X2539227Y3014547D01*
X2537078Y3015133D01*
X2534539Y3015328D01*
X2532195Y3015133D01*
X2529852Y3014547D01*
X2527703Y3013375D01*
X2525945Y3011812D01*
X2524383Y3009859D01*
X2523211Y3007711D01*
X2522625Y3005367D01*
X2522250Y3003121D01*
G37*
X2522234Y3003023D02*
G36*
X2522234Y3003023D02*
X2522625Y3000680D01*
X2523211Y2998141D01*
X2524383Y2996187D01*
X2525750Y2994234D01*
X2527703Y2992672D01*
X2529852Y2991500D01*
X2532195Y2990914D01*
X2534539Y2990719D01*
X2537078Y2990914D01*
X2540398Y2992281D01*
X2544695Y2990719D01*
X2548797Y2989547D01*
X2552703Y2988570D01*
X2556805Y2987984D01*
X2560906Y2987789D01*
X2564812D01*
X2569109Y2987984D01*
X2573211Y2988375D01*
X2576922Y2989156D01*
X2580633Y2990328D01*
X2583953Y2991695D01*
X2587078Y2993453D01*
X2590203Y2995406D01*
X2592937Y2997750D01*
X2596453Y3001852D01*
X2597246Y3003121D01*
X2575122D01*
X2573602Y3002437D01*
X2568914Y3001461D01*
X2563641Y3001266D01*
X2559930Y3001461D01*
X2555633Y3002242D01*
X2552410Y3003121D01*
X2540773D01*
X2540789Y3003023D01*
X2540594Y3001852D01*
X2540398Y3000680D01*
X2539617Y2999703D01*
X2538836Y2998727D01*
X2537859Y2997945D01*
X2536883Y2997359D01*
X2535711Y2997164D01*
X2534539Y2996969D01*
X2533367Y2997164D01*
X2532391Y2997359D01*
X2531219Y2997945D01*
X2530242Y2998727D01*
X2529656Y2999703D01*
X2529070Y3000680D01*
X2528680Y3002047D01*
X2528500Y3003121D01*
X2522250D01*
X2522234Y3003023D01*
G37*
X2527874Y3041305D02*
G36*
X2527874Y3041305D02*
X2545756D01*
X2546453Y3042281D01*
X2548797Y3044625D01*
X2551922Y3046773D01*
X2555242Y3048141D01*
X2558953Y3049117D01*
X2563055Y3049508D01*
X2567547Y3049117D01*
X2571648Y3048336D01*
X2575359Y3046773D01*
X2578680Y3044820D01*
X2580828Y3042867D01*
X2582129Y3041305D01*
X2600061D01*
X2598016Y3045211D01*
X2595281Y3048922D01*
X2592156Y3052437D01*
X2589227Y3054781D01*
X2586102Y3056930D01*
X2582781Y3058687D01*
X2579266Y3060055D01*
X2575555Y3061227D01*
X2571453Y3062008D01*
X2567352Y3062594D01*
X2563055Y3062789D01*
X2558953Y3062594D01*
X2555242Y3062203D01*
X2551727Y3061422D01*
X2548211Y3060250D01*
X2544891Y3058883D01*
X2541961Y3057320D01*
X2539031Y3055367D01*
X2536297Y3053023D01*
X2533758Y3050484D01*
X2531609Y3047750D01*
X2529656Y3044820D01*
X2528094Y3041891D01*
X2527874Y3041305D01*
G37*
X2525555Y3032125D02*
G36*
X2525555Y3032125D02*
Y3028805D01*
Y3026656D01*
X2588445D01*
Y3027828D01*
X2588836Y3029000D01*
X2589422Y3029977D01*
X2590203Y3030953D01*
X2591180Y3031734D01*
X2592156Y3032320D01*
X2593328Y3032516D01*
X2594500Y3032711D01*
X2595672Y3032516D01*
X2596844Y3032320D01*
X2598016Y3031734D01*
X2598797Y3030953D01*
X2599578Y3030172D01*
X2600555Y3028023D01*
Y3026656D01*
X2606759D01*
X2606609Y3029195D01*
X2605828Y3031344D01*
X2604852Y3033492D01*
X2603484Y3035250D01*
X2601727Y3036812D01*
X2600164Y3041109D01*
X2600061Y3041305D01*
X2582129D01*
X2582781Y3040523D01*
X2584344Y3038180D01*
X2585711Y3035250D01*
X2583953Y3033297D01*
X2542352Y3033102D01*
X2543133Y3036422D01*
X2544500Y3039547D01*
X2545756Y3041305D01*
X2527874D01*
X2526922Y3038766D01*
X2526141Y3035641D01*
X2525555Y3032125D01*
G37*
Y3026656D02*
G36*
X2525555Y3026656D02*
Y3026461D01*
X2525945Y3024508D01*
X2526727Y3023141D01*
X2527703Y3021969D01*
X2529070Y3021187D01*
X2531414Y3020797D01*
X2534344Y3020406D01*
X2538250D01*
X2583953D01*
X2585125Y3018648D01*
X2586687Y3017086D01*
X2585906Y3013961D01*
X2584539Y3011227D01*
X2582977Y3008687D01*
X2580828Y3006539D01*
X2577508Y3004195D01*
X2575122Y3003121D01*
X2597246D01*
X2599383Y3006539D01*
X2601531Y3011812D01*
X2603094Y3017672D01*
X2605047Y3020016D01*
X2606414Y3022750D01*
X2606805Y3025875D01*
X2606759Y3026656D01*
X2600555D01*
Y3025484D01*
X2600164Y3024508D01*
X2599578Y3023336D01*
X2598992Y3022359D01*
X2598016Y3021773D01*
X2597039Y3021187D01*
X2595867Y3020797D01*
X2594695Y3020602D01*
X2593523Y3020797D01*
X2592352Y3021187D01*
X2591180Y3021578D01*
X2590203Y3022359D01*
X2589422Y3023336D01*
X2588836Y3024312D01*
X2588445Y3025484D01*
Y3026656D01*
X2525555D01*
G37*
D02*
D100*
X2178375Y3739971D02*
X2178375Y3598794D01*
X2060728D01*
X2016375Y3634088D02*
X2004610Y3610559D01*
X1981081Y3598794D01*
X1957551D01*
X1934022Y3610559D01*
X1922257Y3634088D01*
Y3657618D01*
X1934022Y3681147D01*
X1957551Y3692912D01*
X1981081D01*
X2004610Y3681147D01*
X2016375Y3657618D01*
Y3634088D01*
X1992846Y3739971D02*
X1992847Y3739972D01*
X1945787Y3739971D02*
X1945788Y3739972D01*
X1880375Y3692912D02*
X1833316Y3692912D01*
X1856846Y3716441D02*
X1856846Y3610559D01*
X1845081Y3598794D01*
X1833316D01*
X1821551Y3610559D01*
X1780375Y3692912D02*
X1780375Y3634088D01*
X1768610Y3610559D01*
X1745081Y3598794D01*
X1721551D01*
X1698022Y3610559D01*
X1686257Y3634088D01*
Y3692912D02*
X1686257Y3598794D01*
X1756846Y3739971D02*
X1756847Y3739972D01*
X1709787Y3739971D02*
X1709788Y3739972D01*
X1644375Y3634088D02*
X1632610Y3610559D01*
X1609081Y3598794D01*
X1585551D01*
X1562022Y3610559D01*
X1550257Y3634088D01*
Y3657618D01*
X1562022Y3681147D01*
X1585551Y3692912D01*
X1609081D01*
X1632610Y3681147D01*
X1644375Y3657618D01*
Y3598794D02*
X1644375Y3739971D01*
X1508375Y3692912D02*
X1508375Y3634088D01*
X1496610Y3610559D01*
X1473081Y3598794D01*
X1449551D01*
X1426022Y3610559D01*
X1414257Y3634088D01*
Y3692912D02*
X1414257Y3598794D01*
X1372375D02*
X1372375Y3692912D01*
Y3657618D02*
X1360610Y3681147D01*
X1337081Y3692912D01*
X1313551D01*
X1290022Y3681147D01*
X1278257Y3657618D01*
Y3598794D01*
X1142257Y3657618D02*
X1154022Y3681147D01*
X1177551Y3692912D01*
X1201081D01*
X1224610Y3681147D01*
X1236375Y3657618D01*
Y3645853D01*
X1224610Y3622324D01*
X1201081Y3610559D01*
X1177551D01*
X1154022Y3622324D01*
X1142257Y3645853D01*
Y3692912D02*
X1142257Y3598794D01*
X1154022Y3575265D01*
X1177551Y3563500D01*
X1212846D01*
X1236375Y3575265D01*
X1014375Y3634088D02*
X1002610Y3610559D01*
X979081Y3598794D01*
X932022D01*
X908493Y3610559D01*
X896728Y3634088D01*
X908493Y3657618D01*
X932022Y3669382D01*
X979081D01*
X1002610Y3681147D01*
X1014375Y3704676D01*
X1002610Y3728206D01*
X979081Y3739971D01*
X932022D01*
X908493Y3728206D01*
X896728Y3704676D01*
X852375Y3598794D02*
X852375Y3739971D01*
X793551Y3669382D01*
X734728Y3739971D01*
Y3598794D01*
X690375D02*
X690375Y3739971D01*
X619787D01*
X596257Y3728206D01*
X584493Y3716441D01*
X572728Y3692912D01*
Y3645853D01*
X584493Y3622324D01*
X596257Y3610559D01*
X619787Y3598794D01*
X690375D01*
D02*
D101*
X2511750Y2996743D02*
X2511750Y2943213D01*
X2504103Y2935566D01*
X2488809D01*
X2481162Y2943213D01*
Y2966154D01*
Y2943213D02*
X2473515Y2935566D01*
X2458221D01*
X2450574Y2943213D01*
Y2996743D01*
X2423350D02*
X2423350Y2943213D01*
X2415703Y2935566D01*
X2400409D01*
X2392762Y2943213D01*
Y2966154D01*
Y2943213D02*
X2385115Y2935566D01*
X2369821D01*
X2362174Y2943213D01*
Y2996743D01*
X2334950D02*
X2334950Y2943213D01*
X2327303Y2935566D01*
X2312009D01*
X2304362Y2943213D01*
Y2966154D01*
Y2943213D02*
X2296715Y2935566D01*
X2281421D01*
X2273774Y2943213D01*
Y2996743D01*
X2238903Y2935566D02*
X2231256Y2943213D01*
X2238903Y2950860D01*
X2246550Y2943213D01*
X2238903Y2935566D01*
X2145074Y2943213D02*
X2152721Y2935566D01*
X2168015D01*
X2183309D01*
X2198603Y2943213D01*
X2206250Y2958507D01*
Y2981449D01*
X2198603Y2989096D01*
X2183309Y2996743D01*
X2168015D01*
X2152721Y2989096D01*
X2145074Y2981449D01*
Y2973801D01*
X2152721Y2966154D01*
X2168015Y2958507D01*
X2183309D01*
X2198603Y2966154D01*
X2206250Y2973801D01*
X2117850Y2935566D02*
X2117850Y3027331D01*
Y2981449D02*
X2041379Y2981449D01*
Y2935566D02*
X2041379Y3027331D01*
X2012550Y2989096D02*
X1997256Y2996743D01*
X1974315D01*
X1959021Y2989096D01*
X1951374Y2973801D01*
Y2950860D01*
X1959021Y2943213D01*
X1974315Y2935566D01*
X1989609D01*
X2004903Y2943213D01*
X2012550Y2950860D01*
Y2958507D01*
X2004903Y2966154D01*
X1989609Y2973801D01*
X1974315D01*
X1959021Y2966154D01*
X1951374Y2958507D01*
Y2950860D02*
X1951374Y2935566D01*
X1924150Y2950860D02*
X1916503Y2943213D01*
X1901209Y2935566D01*
X1885915Y2943213D01*
X1878268Y2950860D01*
Y3027331D01*
X1862974D01*
X1878268D02*
X1908856Y3027331D01*
X1835750Y2958507D02*
X1828103Y2943213D01*
X1812809Y2935566D01*
X1797515D01*
X1782221Y2943213D01*
X1774574Y2958507D01*
Y2973801D01*
X1782221Y2989096D01*
X1797515Y2996743D01*
X1812809D01*
X1828103Y2989096D01*
X1835750Y2973801D01*
Y2958507D01*
X1739703Y2935566D02*
X1732056Y2943213D01*
X1739703Y2950860D01*
X1747350Y2943213D01*
X1739703Y2935566D01*
X1645874Y2973801D02*
X1653521Y2989096D01*
X1668815Y2996743D01*
X1684109D01*
X1699403Y2989096D01*
X1707050Y2973801D01*
Y2958507D01*
X1699403Y2943213D01*
X1684109Y2935566D01*
X1668815D01*
X1653521Y2943213D01*
X1645874Y2958507D01*
Y2935566D02*
X1645874Y3027331D01*
X1557474Y2943213D02*
X1565121Y2935566D01*
X1580415D01*
X1595709D01*
X1611003Y2943213D01*
X1618650Y2958507D01*
Y2981449D01*
X1611003Y2989096D01*
X1595709Y2996743D01*
X1580415D01*
X1565121Y2989096D01*
X1557474Y2981449D01*
Y2973801D01*
X1565121Y2966154D01*
X1580415Y2958507D01*
X1595709D01*
X1611003Y2966154D01*
X1618650Y2973801D01*
X0Y0D02*
M02*
