G04 GENERATED BY PULSONIX 12.5 GERBER.DLL 9449*
G04 #@! TF.GenerationSoftware,Pulsonix,Pulsonix,12.5.9449*
G04 #@! TF.CreationDate,2024-02-09T14:33:00--1:00*
G04 #@! TF.Part,Single*
%FSLAX35Y35*%
%LPD*%
%MOMM*%
G04 #@! TF.FileFunction,Copper,L3,Inr*
G04 #@! TF.FilePolarity,Positive*
G04 #@! TA.AperFunction,ViaPad*
%ADD86C,0.70000*%
%ADD87C,0.60000*%
G04 #@! TA.AperFunction,ComponentPad*
%AMT88*0 Bullet Pad at angle 180*1,1,4.00000,0.00000,-1.37500*21,1,4.00000,2.74999,0,0,180*%
%ADD88T88*%
G04 #@! TD.AperFunction*
X0Y0D02*
D02*
D86*
X469500Y3660375D03*
X707625Y3374625D03*
X796996Y1087000D03*
X929875Y1199750D03*
Y1850625D03*
Y3374625D03*
Y3882625D03*
X1130625Y1203865D03*
X1241496Y1087000D03*
X1242581Y1588798D03*
X1247375Y2866625D03*
X1338006Y2647882D03*
Y2727192D03*
Y2805668D03*
X1358500Y2993625D03*
Y3247625D03*
Y3501625D03*
X1453750Y1961750D03*
X1676000Y3485750D03*
X1685996Y1087000D03*
X1829125Y1785500D03*
X1948700Y1118750D03*
X2099000Y2103000D03*
X2104625Y1104500D03*
X2295125Y3676250D03*
X2342750Y1104500D03*
Y1914125D03*
X2368875Y3992125D03*
X2400625Y2484000D03*
X2432375Y2690375D03*
X2464125Y3817500D03*
X2483232Y4153924D03*
X2540500Y3357125D03*
X2813375Y3515875D03*
X2834875Y4311250D03*
X3009500D03*
X3051500Y3896875D03*
X3115000Y3341250D03*
X3168250Y1485500D03*
X3305500Y1499750D03*
X3353125Y2547500D03*
D02*
D87*
X2088750Y3962000D03*
X2432375Y3452375D03*
D02*
D88*
X1591000Y4438001D03*
X2162500D03*
X0Y0D02*
M02*
