G04 GENERATED BY PULSONIX 12.5 GERBER.DLL 9449*
G04 #@! TF.GenerationSoftware,Pulsonix,Pulsonix,12.5.9449*
G04 #@! TF.CreationDate,2024-02-09T14:36:55--1:00*
G04 #@! TF.Part,Single*
%FSLAX35Y35*%
%LPD*%
%MOMM*%
G04 #@! TF.FileFunction,Drillmap*
G04 #@! TF.FilePolarity,Positive*
G04 #@! TA.AperFunction,ViaPad*
%ADD96C,0.40000*%
G04 #@! TD.AperFunction*
%ADD97C,0.10000*%
G04 #@! TA.AperFunction,ViaPad*
%ADD98C,0.30000*%
G04 #@! TA.AperFunction,ComponentPad*
%ADD99C,2.50000*%
G04 #@! TD.AperFunction*
X0Y0D02*
D02*
D96*
X469500Y3660375D03*
X707625Y3374625D03*
X796996Y1087000D03*
X929875Y1199750D03*
Y1850625D03*
Y3374625D03*
Y3882625D03*
X1130625Y1203865D03*
X1241496Y1087000D03*
X1242581Y1588798D03*
X1247375Y2866625D03*
X1338006Y2647882D03*
Y2727192D03*
Y2805668D03*
X1358500Y2993625D03*
Y3247625D03*
Y3501625D03*
X1453750Y1961750D03*
X1676000Y3485750D03*
X1685996Y1087000D03*
X1829125Y1785500D03*
X1948700Y1118750D03*
X2099000Y2103000D03*
X2104625Y1104500D03*
X2295125Y3676250D03*
X2342750Y1104500D03*
Y1914125D03*
X2368875Y3992125D03*
X2400625Y2484000D03*
X2432375Y2690375D03*
X2464125Y3817500D03*
X2483232Y4153924D03*
X2540500Y3357125D03*
X2813375Y3515875D03*
X2834875Y4311250D03*
X3009500D03*
X3051500Y3896875D03*
X3115000Y3341250D03*
X3168250Y1485500D03*
X3305500Y1499750D03*
X3353125Y2547500D03*
D02*
D97*
X494500Y3685081D02*
X535676Y3783904D01*
X576853Y3685081D01*
X510971Y3726257D02*
X560382Y3726257D01*
X732625Y3399331D02*
X773801Y3498154D01*
X814978Y3399331D01*
X749096Y3440507D02*
X798507Y3440507D01*
X821996Y1111706D02*
X863172Y1210529D01*
X904349Y1111706D01*
X838467Y1152882D02*
X887878Y1152882D01*
X954875Y1224456D02*
X996051Y1323279D01*
X1037228Y1224456D01*
X971346Y1265632D02*
X1020757Y1265632D01*
X954875Y1875331D02*
X996051Y1974154D01*
X1037228Y1875331D01*
X971346Y1916507D02*
X1020757Y1916507D01*
X954875Y3399331D02*
X996051Y3498154D01*
X1037228Y3399331D01*
X971346Y3440507D02*
X1020757Y3440507D01*
X954875Y3907331D02*
X996051Y4006154D01*
X1037228Y3907331D01*
X971346Y3948507D02*
X1020757Y3948507D01*
X1155625Y1228571D02*
X1196801Y1327394D01*
X1237978Y1228571D01*
X1172096Y1269747D02*
X1221507Y1269747D01*
X1266496Y1111706D02*
X1307672Y1210529D01*
X1348849Y1111706D01*
X1282967Y1152882D02*
X1332378Y1152882D01*
X1267581Y1613504D02*
X1308757Y1712327D01*
X1349934Y1613504D01*
X1284052Y1654680D02*
X1333463Y1654680D01*
X1272375Y2891331D02*
X1313551Y2990154D01*
X1354728Y2891331D01*
X1288846Y2932507D02*
X1338257Y2932507D01*
X1363006Y2672588D02*
X1404182Y2771411D01*
X1445359Y2672588D01*
X1379477Y2713764D02*
X1428888Y2713764D01*
X1363006Y2751898D02*
X1404182Y2850721D01*
X1445359Y2751898D01*
X1379477Y2793074D02*
X1428888Y2793074D01*
X1363006Y2830374D02*
X1404182Y2929197D01*
X1445359Y2830374D01*
X1379477Y2871550D02*
X1428888Y2871550D01*
X1383500Y3018331D02*
X1424676Y3117154D01*
X1465853Y3018331D01*
X1399971Y3059507D02*
X1449382Y3059507D01*
X1383500Y3272331D02*
X1424676Y3371154D01*
X1465853Y3272331D01*
X1399971Y3313507D02*
X1449382Y3313507D01*
X1383500Y3526331D02*
X1424676Y3625154D01*
X1465853Y3526331D01*
X1399971Y3567507D02*
X1449382Y3567507D01*
X1478750Y1986456D02*
X1519926Y2085279D01*
X1561103Y1986456D01*
X1495221Y2027632D02*
X1544632Y2027632D01*
X1701000Y3510456D02*
X1742176Y3609279D01*
X1783353Y3510456D01*
X1717471Y3551632D02*
X1766882Y3551632D01*
X1710996Y1111706D02*
X1752172Y1210529D01*
X1793349Y1111706D01*
X1727467Y1152882D02*
X1776878Y1152882D01*
X1721000Y4350206D02*
X1762176Y4449029D01*
X1803353Y4350206D01*
X1737471Y4391382D02*
X1786882Y4391382D01*
X1892047Y4399618D02*
X1908518Y4391382D01*
X1916753Y4374912D01*
X1908518Y4358441D01*
X1892047Y4350206D01*
X1834400D01*
Y4449029D01*
X1892047D01*
X1908518Y4440794D01*
X1916753Y4424324D01*
X1908518Y4407853D01*
X1892047Y4399618D01*
X1834400D01*
X1854125Y1810206D02*
X1895301Y1909029D01*
X1936478Y1810206D01*
X1870596Y1851382D02*
X1920007Y1851382D01*
X1973700Y1143456D02*
X2014876Y1242279D01*
X2056053Y1143456D01*
X1990171Y1184632D02*
X2039582Y1184632D01*
X2108750Y3986706D02*
X2149926Y4085529D01*
X2191103Y3986706D01*
X2125221Y4027882D02*
X2174632Y4027882D01*
X2304503Y4003176D02*
X2296268Y3994941D01*
X2279797Y3986706D01*
X2255091D01*
X2238621Y3994941D01*
X2230385Y4003176D01*
X2222150Y4019647D01*
Y4052588D01*
X2230385Y4069059D01*
X2238621Y4077294D01*
X2255091Y4085529D01*
X2279797D01*
X2296268Y4077294D01*
X2304503Y4069059D01*
X2124000Y2127706D02*
X2165176Y2226529D01*
X2206353Y2127706D01*
X2140471Y2168882D02*
X2189882Y2168882D01*
X2129625Y1129206D02*
X2170801Y1228029D01*
X2211978Y1129206D01*
X2146096Y1170382D02*
X2195507Y1170382D01*
X2292500Y4350206D02*
X2333676Y4449029D01*
X2374853Y4350206D01*
X2308971Y4391382D02*
X2358382Y4391382D01*
X2463547Y4399618D02*
X2480018Y4391382D01*
X2488253Y4374912D01*
X2480018Y4358441D01*
X2463547Y4350206D01*
X2405900D01*
Y4449029D01*
X2463547D01*
X2480018Y4440794D01*
X2488253Y4424324D01*
X2480018Y4407853D01*
X2463547Y4399618D01*
X2405900D01*
X2320125Y3700956D02*
X2361301Y3799779D01*
X2402478Y3700956D01*
X2336596Y3742132D02*
X2386007Y3742132D01*
X2367750Y1129206D02*
X2408926Y1228029D01*
X2450103Y1129206D01*
X2384221Y1170382D02*
X2433632Y1170382D01*
X2367750Y1938831D02*
X2408926Y2037654D01*
X2450103Y1938831D01*
X2384221Y1980007D02*
X2433632Y1980007D01*
X2393875Y4016831D02*
X2435051Y4115654D01*
X2476228Y4016831D01*
X2410346Y4058007D02*
X2459757Y4058007D01*
X2425625Y2508706D02*
X2466801Y2607529D01*
X2507978Y2508706D01*
X2442096Y2549882D02*
X2491507Y2549882D01*
X2452375Y3477081D02*
X2493551Y3575904D01*
X2534728Y3477081D01*
X2468846Y3518257D02*
X2518257Y3518257D01*
X2648128Y3493551D02*
X2639893Y3485316D01*
X2623422Y3477081D01*
X2598716D01*
X2582246Y3485316D01*
X2574010Y3493551D01*
X2565775Y3510022D01*
Y3542963D01*
X2574010Y3559434D01*
X2582246Y3567669D01*
X2598716Y3575904D01*
X2623422D01*
X2639893Y3567669D01*
X2648128Y3559434D01*
X2457375Y2715081D02*
X2498551Y2813904D01*
X2539728Y2715081D01*
X2473846Y2756257D02*
X2523257Y2756257D01*
X2489125Y3842206D02*
X2530301Y3941029D01*
X2571478Y3842206D01*
X2505596Y3883382D02*
X2555007Y3883382D01*
X2508232Y4178630D02*
X2549408Y4277453D01*
X2590585Y4178630D01*
X2524703Y4219806D02*
X2574114Y4219806D01*
X2565500Y3381831D02*
X2606676Y3480654D01*
X2647853Y3381831D01*
X2581971Y3423007D02*
X2631382Y3423007D01*
X2838375Y3540581D02*
X2879551Y3639404D01*
X2920728Y3540581D01*
X2854846Y3581757D02*
X2904257Y3581757D01*
X2859875Y4335956D02*
X2901051Y4434779D01*
X2942228Y4335956D01*
X2876346Y4377132D02*
X2925757Y4377132D01*
X3034500Y4335956D02*
X3075676Y4434779D01*
X3116853Y4335956D01*
X3050971Y4377132D02*
X3100382Y4377132D01*
X3076500Y3921581D02*
X3117676Y4020404D01*
X3158853Y3921581D01*
X3092971Y3962757D02*
X3142382Y3962757D01*
X3140000Y3365956D02*
X3181176Y3464779D01*
X3222353Y3365956D01*
X3156471Y3407132D02*
X3205882Y3407132D01*
X3193250Y1510206D02*
X3234426Y1609029D01*
X3275603Y1510206D01*
X3209721Y1551382D02*
X3259132Y1551382D01*
X3330500Y1524456D02*
X3371676Y1623279D01*
X3412853Y1524456D01*
X3346971Y1565632D02*
X3396382Y1565632D01*
X3378125Y2572206D02*
X3419301Y2671029D01*
X3460478Y2572206D01*
X3394596Y2613382D02*
X3444007Y2613382D01*
D02*
D98*
X2088750Y3962000D03*
X2432375Y3452375D03*
D02*
D99*
X1591000Y4325500D03*
X2162500D03*
X0Y0D02*
M02*
