G04 GENERATED BY PULSONIX 12.5 GERBER.DLL 9449*
G04 #@! TF.GenerationSoftware,Pulsonix,Pulsonix,12.5.9449*
G04 #@! TF.CreationDate,2024-02-09T14:36:55--1:00*
G04 #@! TF.Part,Single*
%FSLAX35Y35*%
%LPD*%
%MOMM*%
G04 #@! TF.FileFunction,Soldermask,Bot*
G04 #@! TF.FilePolarity,Negative*
G04 #@! TA.AperFunction,ViaPad*
%ADD96C,0.95400*%
%ADD97C,0.85400*%
G04 #@! TA.AperFunction,SMDPad,CuDef*
%AMT98*0 Rounded Rectangle pad*4,1,32,0.30261,0.42700,-0.30261,0.42700,-0.33029,0.42388,-0.35658,0.41468,-0.38016,0.39986,-0.39986,0.38017,-0.41468,0.35659,-0.42388,0.33030,-0.42700,0.30261,-0.42700,-0.30261,-0.42388,-0.33029,-0.41468,-0.35658,-0.39986,-0.38016,-0.38017,-0.39986,-0.35659,-0.41468,-0.33030,-0.42388,-0.30261,-0.42700,0.30261,-0.42700,0.33029,-0.42388,0.35658,-0.41468,0.38016,-0.39986,0.39986,-0.38017,0.41468,-0.35659,0.42388,-0.33030,0.42700,-0.30261,0.42700,0.30261,0.42388,0.33029,0.41468,0.35658,0.39986,0.38016,0.38017,0.39986,0.35659,0.41468,0.33030,0.42388,0.30261,0.42700,0*%
%ADD98T98*%
%ADD99R,0.68400X2.50400*%
%ADD100R,1.57480X1.24460*%
%AMT101*0 Rectangle Pad at angle 45*21,1,1.24460,1.57480,0,0,45*%
%ADD101T101*%
%ADD102R,1.24460X1.57480*%
G04 #@! TA.AperFunction,ComponentPad*
%AMT103*0 Bullet Pad at angle 180*1,1,4.25400,0.00000,-1.43850*21,1,4.25400,2.87699,0,0,180*%
%ADD103T103*%
G04 #@! TD.AperFunction*
%ADD104C,0.25400*%
G04 #@! TD.AperFunction*
X0Y0D02*
D02*
D96*
X469500Y3660375D03*
X707625Y3374625D03*
X796996Y1087000D03*
X929875Y1199750D03*
Y1850625D03*
Y3374625D03*
Y3882625D03*
X1130625Y1203865D03*
X1241496Y1087000D03*
X1242581Y1588798D03*
X1247375Y2866625D03*
X1338006Y2647882D03*
Y2727192D03*
Y2805668D03*
X1358500Y2993625D03*
Y3247625D03*
Y3501625D03*
X1453750Y1961750D03*
X1676000Y3485750D03*
X1685996Y1087000D03*
X1829125Y1785500D03*
X1948700Y1118750D03*
X2099000Y2103000D03*
X2104625Y1104500D03*
X2295125Y3676250D03*
X2342750Y1104500D03*
Y1914125D03*
X2368875Y3992125D03*
X2400625Y2484000D03*
X2432375Y2690375D03*
X2464125Y3817500D03*
X2483232Y4153924D03*
X2540500Y3357125D03*
X2813375Y3515875D03*
X2834875Y4311250D03*
X3009500D03*
X3051500Y3896875D03*
X3115000Y3341250D03*
X3168250Y1485500D03*
X3305500Y1499750D03*
X3353125Y2547500D03*
D02*
D97*
X2088750Y3962000D03*
X2432375Y3452375D03*
D02*
D98*
X749625Y862375D03*
Y962375D03*
X876625Y862375D03*
Y962375D03*
X1003625Y862375D03*
Y962375D03*
X1130625Y862375D03*
Y962375D03*
X1257625Y862375D03*
Y962375D03*
X1384625Y862375D03*
Y962375D03*
X1511625Y862375D03*
Y962375D03*
X1638625Y862375D03*
Y962375D03*
X1765625Y862375D03*
Y962375D03*
X1892625Y862375D03*
Y962375D03*
X2019625Y862375D03*
Y962375D03*
X2146625Y862375D03*
Y962375D03*
X2273625Y862375D03*
Y962375D03*
X2400625Y862375D03*
Y962375D03*
X2527625Y862375D03*
Y962375D03*
X2654625Y862375D03*
Y962375D03*
X2781625Y862375D03*
Y962375D03*
X2908625Y862375D03*
Y962375D03*
X3035625Y862375D03*
Y962375D03*
X3162625Y862375D03*
Y962375D03*
D02*
D99*
X601500Y1458000D03*
Y2113000D03*
Y2442250D03*
Y3097250D03*
X666500Y1458000D03*
Y2113000D03*
Y2442250D03*
Y3097250D03*
X731500Y1458000D03*
Y2113000D03*
Y2442250D03*
Y3097250D03*
X796500Y1458000D03*
Y2113000D03*
Y2442250D03*
Y3097250D03*
X861500Y1458000D03*
Y2113000D03*
Y2442250D03*
Y3097250D03*
X926500Y1458000D03*
Y2113000D03*
Y2442250D03*
Y3097250D03*
X991500Y1458000D03*
Y2113000D03*
Y2442250D03*
Y3097250D03*
X1056500Y1458000D03*
Y2113000D03*
Y2442250D03*
Y3097250D03*
D02*
D100*
X2743601Y2245875D03*
Y2611000D03*
Y2976125D03*
Y3341250D03*
Y3690500D03*
X2946649Y2150879D03*
Y2340871D03*
Y2516004D03*
Y2705996D03*
Y2881129D03*
Y3071121D03*
Y3246254D03*
Y3436246D03*
Y3595504D03*
Y3785496D03*
D02*
D101*
X1598587Y2174788D03*
X1674991Y1964039D03*
X1809336Y2098384D03*
X1852587Y2428788D03*
X1928991Y2218039D03*
X2063336Y2352384D03*
X2106587Y2682788D03*
X2182991Y2472039D03*
X2317336Y2606384D03*
D02*
D102*
X2051629Y1382351D03*
X2146625Y1585399D03*
X2241621Y1382351D03*
X2432629D03*
X2527625Y1585399D03*
X2622621Y1382351D03*
D02*
D103*
X1591000Y4444351D03*
X2162500D03*
D02*
D104*
X1192257Y4166750D02*
X1192257Y4346044D01*
X1102610Y4256397D02*
X1281904Y4256397D01*
X2670500Y4276007D02*
X2491206Y4276007D01*
X0Y0D02*
M02*
