G04 GENERATED BY PULSONIX 12.5 GERBER.DLL 9449*
G04 #@! TF.GenerationSoftware,Pulsonix,Pulsonix,12.5.9449*
G04 #@! TF.CreationDate,2024-02-09T14:36:55--1:00*
G04 #@! TF.Part,Single*
%FSLAX35Y35*%
%LPD*%
%MOMM*%
G04 #@! TF.FileFunction,Soldermask,Top*
G04 #@! TF.FilePolarity,Negative*
G04 #@! TA.AperFunction,ViaPad*
%ADD96C,0.95400*%
%ADD97C,0.85400*%
G04 #@! TA.AperFunction,SMDPad,CuDef*
%ADD98R,1.15400X1.65400*%
%ADD99R,1.05400X1.15400*%
%ADD100R,1.25400X2.05400*%
%ADD101R,1.45400X1.35400*%
%ADD102R,0.85400X1.30400*%
%ADD103R,2.05400X1.25400*%
G04 #@! TA.AperFunction,ComponentPad*
%AMT104*0 Bullet Pad at angle 180*1,1,4.25400,0.00000,-1.43850*21,1,4.25400,2.87699,0,0,180*%
%ADD104T104*%
G04 #@! TA.AperFunction,SMDPad,CuDef*
%ADD105R,2.25400X0.85400*%
G04 #@! TD.AperFunction*
%ADD106R,0.75400X0.75400*%
%ADD107C,0.20000*%
G04 #@! TD.AperFunction*
X0Y0D02*
D02*
D96*
X469500Y3660375D03*
X707625Y3374625D03*
X796996Y1087000D03*
X929875Y1199750D03*
Y1850625D03*
Y3374625D03*
Y3882625D03*
X1130625Y1203865D03*
X1241496Y1087000D03*
X1242581Y1588798D03*
X1247375Y2866625D03*
X1338006Y2647882D03*
Y2727192D03*
Y2805668D03*
X1358500Y2993625D03*
Y3247625D03*
Y3501625D03*
X1453750Y1961750D03*
X1676000Y3485750D03*
X1685996Y1087000D03*
X1829125Y1785500D03*
X1948700Y1118750D03*
X2099000Y2103000D03*
X2104625Y1104500D03*
X2295125Y3676250D03*
X2342750Y1104500D03*
Y1914125D03*
X2368875Y3992125D03*
X2400625Y2484000D03*
X2432375Y2690375D03*
X2464125Y3817500D03*
X2483232Y4153924D03*
X2540500Y3357125D03*
X2813375Y3515875D03*
X2834875Y4311250D03*
X3009500D03*
X3051500Y3896875D03*
X3115000Y3341250D03*
X3168250Y1485500D03*
X3305500Y1499750D03*
X3353125Y2547500D03*
D02*
D97*
X2088750Y3962000D03*
X2432375Y3452375D03*
D02*
D98*
X606750Y1722000D03*
Y1976000D03*
Y2230000D03*
Y2484000D03*
Y2738000D03*
Y2992000D03*
Y3246000D03*
Y3500000D03*
Y3754000D03*
Y4008000D03*
X797250Y1722000D03*
Y1976000D03*
Y2230000D03*
Y2484000D03*
Y2738000D03*
Y2992000D03*
Y3246000D03*
Y3500000D03*
Y3754000D03*
Y4008000D03*
X1051250Y1722000D03*
Y1976000D03*
Y2230000D03*
Y2484000D03*
Y2738000D03*
Y2992000D03*
Y3246000D03*
Y3500000D03*
Y3754000D03*
Y4008000D03*
X1241750Y1722000D03*
Y1976000D03*
Y2230000D03*
Y2484000D03*
Y2738000D03*
Y2992000D03*
Y3246000D03*
Y3500000D03*
Y3754000D03*
Y4008000D03*
D02*
D99*
X1587100Y2247500D03*
Y2438000D03*
Y2628500D03*
Y2819000D03*
Y3009500D03*
Y3200000D03*
Y3390500D03*
Y3581000D03*
Y3771500D03*
Y3962000D03*
X1764900Y2247500D03*
Y2438000D03*
Y2628500D03*
Y2819000D03*
Y3009500D03*
Y3200000D03*
Y3390500D03*
Y3581000D03*
Y3771500D03*
Y3962000D03*
X2010100Y2247500D03*
Y2438000D03*
Y2628500D03*
Y2819000D03*
Y3009500D03*
Y3200000D03*
Y3390500D03*
Y3581000D03*
Y3771500D03*
Y3962000D03*
X2187900Y2247500D03*
Y2438000D03*
Y2628500D03*
Y2819000D03*
Y3009500D03*
Y3200000D03*
Y3390500D03*
Y3581000D03*
Y3771500D03*
Y3962000D03*
D02*
D100*
X1948700Y1277500D03*
Y1531500D03*
Y1785500D03*
Y2039500D03*
X2248700Y1277500D03*
Y1531500D03*
Y1785500D03*
Y2039500D03*
D02*
D101*
X2543500Y1172500D03*
Y1382500D03*
Y1617000D03*
Y1827000D03*
X2797500Y1172500D03*
Y1382500D03*
Y1617000D03*
Y1827000D03*
X3051500Y1172500D03*
Y1382500D03*
Y1617000D03*
Y1827000D03*
X3305500Y1172500D03*
Y1382500D03*
Y1617000D03*
Y1827000D03*
D02*
D102*
X607004Y1203865D03*
Y1478135D03*
X702000D03*
X796996Y1203865D03*
Y1478135D03*
X1051504Y1203865D03*
Y1478135D03*
X1146500D03*
X1241496Y1203865D03*
Y1478135D03*
X1496004Y1203865D03*
Y1478135D03*
X1591000D03*
X1685996Y1203865D03*
Y1478135D03*
D02*
D103*
X2543500Y2016800D03*
Y2316800D03*
X2797500Y2016800D03*
Y2316800D03*
X3051500Y2016800D03*
Y2316800D03*
X3305500Y2016800D03*
Y2316800D03*
D02*
D104*
X1591000Y4444351D03*
X2162500D03*
D02*
D105*
X2632000Y2484000D03*
Y2611000D03*
Y2738000D03*
Y2865000D03*
Y2992000D03*
Y3119000D03*
Y3246000D03*
Y3436500D03*
Y3563500D03*
Y3690500D03*
Y3817500D03*
Y3944500D03*
Y4071500D03*
Y4198500D03*
X3217000Y2484000D03*
Y2611000D03*
Y2738000D03*
Y2865000D03*
Y2992000D03*
Y3119000D03*
Y3246000D03*
Y3436500D03*
Y3563500D03*
Y3690500D03*
Y3817500D03*
Y3944500D03*
Y4071500D03*
Y4198500D03*
D02*
D106*
X1448125Y1706125D03*
Y3881000D03*
X3337250Y4420750D03*
D02*
D107*
X448000Y935316D02*
X448000Y1027081D01*
X524471Y935316D01*
Y1027081D01*
X553300Y988846D02*
X568594Y996493D01*
X591535D01*
X606829Y988846D01*
X614476Y973551D01*
Y950610D01*
X606829Y942963D01*
X591535Y935316D01*
X576241D01*
X560947Y942963D01*
X553300Y950610D01*
Y958257D01*
X560947Y965904D01*
X576241Y973551D01*
X591535D01*
X606829Y965904D01*
X614476Y958257D01*
Y950610D02*
X614476Y935316D01*
X641700D02*
X641700Y996493D01*
Y988846D02*
X649347Y996493D01*
X664641D01*
X672288Y988846D01*
Y965904D01*
Y988846D02*
X679935Y996493D01*
X695229D01*
X702876Y988846D01*
Y935316D01*
X791276Y942963D02*
X783629Y935316D01*
X768335D01*
X753041D01*
X737747Y942963D01*
X730100Y958257D01*
Y981199D01*
X737747Y988846D01*
X753041Y996493D01*
X768335D01*
X783629Y988846D01*
X791276Y981199D01*
Y973551D01*
X783629Y965904D01*
X768335Y958257D01*
X753041D01*
X737747Y965904D01*
X730100Y973551D01*
X826147Y935316D02*
X833794Y942963D01*
X826147Y950610D01*
X818500Y942963D01*
X826147Y935316D01*
Y973551D02*
X833794Y981199D01*
X826147Y988846D01*
X818500Y981199D01*
X826147Y973551D01*
X0Y0D02*
M02*
