G04 GENERATED BY PULSONIX 12.5 GERBER.DLL 9449*
G04 #@! TF.GenerationSoftware,Pulsonix,Pulsonix,12.5.9449*
G04 #@! TF.CreationDate,2024-02-09T14:36:55--1:00*
G04 #@! TF.Part,Single*
%FSLAX35Y35*%
%LPD*%
%MOMM*%
G04 #@! TF.FileFunction,Paste,Top*
G04 #@! TF.FilePolarity,Positive*
G04 #@! TA.AperFunction,SMDPad,CuDef*
%ADD20R,0.90000X1.40000*%
%ADD76R,1.00000X1.80000*%
%ADD77R,1.80000X1.00000*%
%ADD89R,0.80000X0.90000*%
%ADD90R,1.20000X1.10000*%
%ADD91R,0.60000X1.05000*%
%ADD93R,2.00000X0.60000*%
G04 #@! TD.AperFunction*
X0Y0D02*
D02*
D20*
X606750Y1722000D03*
Y1976000D03*
Y2230000D03*
Y2484000D03*
Y2738000D03*
Y2992000D03*
Y3246000D03*
Y3500000D03*
Y3754000D03*
Y4008000D03*
X797250Y1722000D03*
Y1976000D03*
Y2230000D03*
Y2484000D03*
Y2738000D03*
Y2992000D03*
Y3246000D03*
Y3500000D03*
Y3754000D03*
Y4008000D03*
X1051250Y1722000D03*
Y1976000D03*
Y2230000D03*
Y2484000D03*
Y2738000D03*
Y2992000D03*
Y3246000D03*
Y3500000D03*
Y3754000D03*
Y4008000D03*
X1241750Y1722000D03*
Y1976000D03*
Y2230000D03*
Y2484000D03*
Y2738000D03*
Y2992000D03*
Y3246000D03*
Y3500000D03*
Y3754000D03*
Y4008000D03*
D02*
D76*
X1948700Y1277500D03*
Y1531500D03*
Y1785500D03*
Y2039500D03*
X2248700Y1277500D03*
Y1531500D03*
Y1785500D03*
Y2039500D03*
D02*
D77*
X2543500Y2016800D03*
Y2316800D03*
X2797500Y2016800D03*
Y2316800D03*
X3051500Y2016800D03*
Y2316800D03*
X3305500Y2016800D03*
Y2316800D03*
D02*
D89*
X1587100Y2247500D03*
Y2438000D03*
Y2628500D03*
Y2819000D03*
Y3009500D03*
Y3200000D03*
Y3390500D03*
Y3581000D03*
Y3771500D03*
Y3962000D03*
X1764900Y2247500D03*
Y2438000D03*
Y2628500D03*
Y2819000D03*
Y3009500D03*
Y3200000D03*
Y3390500D03*
Y3581000D03*
Y3771500D03*
Y3962000D03*
X2010100Y2247500D03*
Y2438000D03*
Y2628500D03*
Y2819000D03*
Y3009500D03*
Y3200000D03*
Y3390500D03*
Y3581000D03*
Y3771500D03*
Y3962000D03*
X2187900Y2247500D03*
Y2438000D03*
Y2628500D03*
Y2819000D03*
Y3009500D03*
Y3200000D03*
Y3390500D03*
Y3581000D03*
Y3771500D03*
Y3962000D03*
D02*
D90*
X2543500Y1172500D03*
Y1382500D03*
Y1617000D03*
Y1827000D03*
X2797500Y1172500D03*
Y1382500D03*
Y1617000D03*
Y1827000D03*
X3051500Y1172500D03*
Y1382500D03*
Y1617000D03*
Y1827000D03*
X3305500Y1172500D03*
Y1382500D03*
Y1617000D03*
Y1827000D03*
D02*
D91*
X607004Y1203865D03*
Y1478135D03*
X702000D03*
X796996Y1203865D03*
Y1478135D03*
X1051504Y1203865D03*
Y1478135D03*
X1146500D03*
X1241496Y1203865D03*
Y1478135D03*
X1496004Y1203865D03*
Y1478135D03*
X1591000D03*
X1685996Y1203865D03*
Y1478135D03*
D02*
D93*
X2632000Y2484000D03*
Y2611000D03*
Y2738000D03*
Y2865000D03*
Y2992000D03*
Y3119000D03*
Y3246000D03*
Y3436500D03*
Y3563500D03*
Y3690500D03*
Y3817500D03*
Y3944500D03*
Y4071500D03*
Y4198500D03*
X3217000Y2484000D03*
Y2611000D03*
Y2738000D03*
Y2865000D03*
Y2992000D03*
Y3119000D03*
Y3246000D03*
Y3436500D03*
Y3563500D03*
Y3690500D03*
Y3817500D03*
Y3944500D03*
Y4071500D03*
Y4198500D03*
X0Y0D02*
M02*
