M48
FMAT,1
METRIC
T01C000.30000
T02C000.40000
T03C002.50000
%
G81
M71
T01
X2088750Y3962000
X2432375Y3452375
T02
X469500Y3660375
X707625Y3374625
X796996Y1087000
X929875Y1199750
X929875Y1850625
X929875Y3374625
X929875Y3882625
X1130625Y1203865
X1241496Y1087000
X1242581Y1588798
X1247375Y2866625
X1338006Y2647882
X1338006Y2727192
X1338006Y2805668
X1358500Y2993625
X1358500Y3247625
X1358500Y3501625
X1453750Y1961750
X1676000Y3485750
X1685996Y1087000
X1829125Y1785500
X1948700Y1118750
X2099000Y2103000
X2104625Y1104500
X2295125Y3676250
X2342750Y1104500
X2342750Y1914125
X2368875Y3992125
X2400625Y2484000
X2432375Y2690375
X2464125Y3817500
X2483232Y4153924
X2540500Y3357125
X2813375Y3515875
X2834875Y4311250
X3009500Y4311250
X3051500Y3896875
X3115000Y3341250
X3168250Y1485500
X3305500Y1499750
X3353125Y2547500
T03
X1591000Y4325500
X2162500Y4325500
M30
