G04 GENERATED BY PULSONIX 12.5 GERBER.DLL 9449*
G04 #@! TF.GenerationSoftware,Pulsonix,Pulsonix,12.5.9449*
G04 #@! TF.CreationDate,2024-02-09T14:36:55--1:00*
G04 #@! TF.Part,Single*
%FSLAX35Y35*%
%LPD*%
%MOMM*%
G04 #@! TF.FileFunction,Copper,L4,Bot*
G04 #@! TF.FilePolarity,Positive*
G04 #@! TA.AperFunction,OtherCopper,Copper*
%ADD10C,0.50000*%
G04 #@! TA.AperFunction,Conductor*
%ADD13C,0.63500*%
%ADD14C,0.40640*%
%ADD18C,0.30480*%
%ADD19C,0.20320*%
G04 #@! TA.AperFunction,ViaPad*
%ADD86C,0.70000*%
%ADD87C,0.60000*%
G04 #@! TA.AperFunction,ComponentPad*
%AMT92*0 Bullet Pad at angle 180*1,1,4.00000,0.00000,-1.37500*21,1,4.00000,2.74999,0,0,180*%
%ADD92T92*%
G04 #@! TA.AperFunction,SMDPad,CuDef*
%AMT96*0 Rounded Rectangle pad*4,1,20,0.25000,0.30000,-0.25000,0.30000,-0.26913,0.29619,-0.28535,0.28535,-0.29619,0.26913,-0.30000,0.25000,-0.30000,-0.25000,-0.29619,-0.26913,-0.28535,-0.28535,-0.26913,-0.29619,-0.25000,-0.30000,0.25000,-0.30000,0.26913,-0.29619,0.28535,-0.28535,0.29619,-0.26913,0.30000,-0.25000,0.30000,0.25000,0.29619,0.26913,0.28535,0.28535,0.26913,0.29619,0.25000,0.30000,0*%
%ADD96T96*%
%ADD97R,0.43000X2.25000*%
%ADD98R,1.32080X0.99060*%
%AMT99*0 Rectangle Pad at angle 45*21,1,0.99060,1.32080,0,0,45*%
%ADD99T99*%
%ADD100R,0.99060X1.32080*%
G04 #@! TD.AperFunction*
X0Y0D02*
D02*
D10*
X3427500Y4506500D02*
X1831000D01*
Y4300502D01*
G75*
G02*
X1351000I-240000J0D01*
G01*
Y4506500D01*
X432500D01*
Y586500D01*
X3427500D01*
Y2537838D01*
G75*
G02*
X3278125Y2547500I-74375J9662D01*
G01*
G75*
G02*
X3297885Y2598230I75000J0D01*
G01*
Y3080243D01*
X3111810Y3266318D01*
G75*
G02*
X3052485Y3299814I3189J74932D01*
G01*
G75*
G02*
X3052689Y3295784I-39795J-4035D01*
G01*
Y3196724D01*
G75*
G02*
X3025067Y3158688I-40000J1D01*
G01*
G75*
G02*
X3052689Y3120651I-12379J-38037D01*
G01*
Y3021591D01*
G75*
G02*
X3012689Y2981591I-40000J0D01*
G01*
X2880609D01*
G75*
G02*
X2849641Y2996273I0J40000D01*
G01*
Y2955977D01*
G75*
G02*
X2880609Y2970659I30968J-25318D01*
G01*
X3012689D01*
G75*
G02*
X3052689Y2930659I0J-40000D01*
G01*
Y2831599D01*
G75*
G02*
X3025067Y2793563I-40000J1D01*
G01*
G75*
G02*
X3052689Y2755526I-12379J-38037D01*
G01*
Y2656466D01*
G75*
G02*
X3012689Y2616466I-40000J0D01*
G01*
X2880609D01*
G75*
G02*
X2849641Y2631148I0J40000D01*
G01*
Y2590852D01*
G75*
G02*
X2880609Y2605534I30968J-25318D01*
G01*
X3012689D01*
G75*
G02*
X3052689Y2565534I0J-40000D01*
G01*
Y2466474D01*
G75*
G02*
X3025067Y2428438I-40000J1D01*
G01*
G75*
G02*
X3052689Y2390401I-12379J-38037D01*
G01*
Y2291341D01*
G75*
G02*
X3012689Y2251341I-40000J0D01*
G01*
X2880609D01*
G75*
G02*
X2849641Y2266023I0J40000D01*
G01*
Y2225727D01*
G75*
G02*
X2880609Y2240409I30968J-25318D01*
G01*
X3012689D01*
G75*
G02*
X3052689Y2200409I0J-40000D01*
G01*
Y2101349D01*
G75*
G02*
X3012689Y2061349I-40000J0D01*
G01*
X2880609D01*
G75*
G02*
X2840609Y2101349I0J40000D01*
G01*
Y2171027D01*
G75*
G02*
X2809641Y2156345I-30968J25318D01*
G01*
X2677561D01*
G75*
G02*
X2637561Y2196345I0J40000D01*
G01*
Y2295405D01*
G75*
G02*
X2677561Y2335405I40000J0D01*
G01*
X2809641D01*
G75*
G02*
X2840609Y2320723I0J-40000D01*
G01*
Y2390401D01*
G75*
G02*
X2868231Y2428438I40001J0D01*
G01*
G75*
G02*
X2840609Y2466474I12378J38037D01*
G01*
Y2536152D01*
G75*
G02*
X2809641Y2521470I-30968J25318D01*
G01*
X2677561D01*
G75*
G02*
X2637561Y2561470I0J40000D01*
G01*
Y2660530D01*
G75*
G02*
X2677561Y2700530I40000J0D01*
G01*
X2809641D01*
G75*
G02*
X2840609Y2685848I0J-40000D01*
G01*
Y2755526D01*
G75*
G02*
X2868231Y2793563I40001J0D01*
G01*
G75*
G02*
X2840609Y2831599I12378J38037D01*
G01*
Y2901277D01*
G75*
G02*
X2809641Y2886595I-30968J25318D01*
G01*
X2677561D01*
G75*
G02*
X2637561Y2926595I0J40000D01*
G01*
Y3025655D01*
G75*
G02*
X2677561Y3065655I40000J0D01*
G01*
X2809641D01*
G75*
G02*
X2840609Y3050973I0J-40000D01*
G01*
Y3120651D01*
G75*
G02*
X2868231Y3158688I40001J0D01*
G01*
G75*
G02*
X2840609Y3196724I12378J38037D01*
G01*
Y3266402D01*
G75*
G02*
X2809641Y3251720I-30968J25318D01*
G01*
X2677561D01*
G75*
G02*
X2637561Y3291720I0J40000D01*
G01*
Y3390780D01*
G75*
G02*
X2677561Y3430780I40000J0D01*
G01*
X2809641D01*
G75*
G02*
X2840609Y3416098I0J-40000D01*
G01*
Y3445994D01*
G75*
G02*
X2762645Y3460635I-27234J69881D01*
G01*
X2518755D01*
X2501838Y3443718D01*
G75*
G02*
X2489890Y3412475I-69464J8658D01*
G01*
G75*
G02*
X2600820Y3312555I50610J-55350D01*
G01*
Y2624108D01*
Y2623992D01*
Y2623875D01*
Y2623874D01*
G75*
G02*
X2583153Y2581222I-60320J0D01*
G01*
X2474793Y2472862D01*
G75*
G02*
X2411763Y2409832I-74167J11137D01*
G01*
X2159320Y2157389D01*
Y2147570D01*
G75*
G02*
X2174000Y2103000I-60320J-44570D01*
G01*
G75*
G02*
X2024000I-75000J0D01*
G01*
G75*
G02*
X2038680Y2147570I75000J0D01*
G01*
Y2177766D01*
X1968949Y2108035D01*
G75*
G02*
X1929452Y2097923I-28284J28284D01*
G01*
G75*
G02*
X1919340Y2058426I-38396J-11213D01*
G01*
X1849294Y1988380D01*
G75*
G02*
X1792726I-28284J28284D01*
G01*
X1699332Y2081774D01*
G75*
G02*
X1687816Y2114055I28284J28285D01*
G01*
X1659319Y2085558D01*
G75*
G02*
X1691601Y2074043I3998J-39800D01*
G01*
X1784995Y1980649D01*
G75*
G02*
Y1924081I-28284J-28284D01*
G01*
X1714949Y1854035D01*
G75*
G02*
X1658381I-28284J28284D01*
G01*
X1564987Y1947429D01*
G75*
G02*
Y2003997I28284J28284D01*
G01*
X1614259Y2053269D01*
G75*
G02*
X1581977Y2064784I-3998J39800D01*
G01*
X1488583Y2158178D01*
G75*
G02*
Y2214746I28284J28284D01*
G01*
X1558629Y2284792D01*
G75*
G02*
X1615197I28284J-28284D01*
G01*
X1708591Y2191398D01*
G75*
G02*
X1720107Y2159117I-28284J-28285D01*
G01*
X1769378Y2208388D01*
G75*
G02*
X1808875Y2218500I28284J-28284D01*
G01*
G75*
G02*
X1818987Y2257997I38396J11213D01*
G01*
X1868259Y2307269D01*
G75*
G02*
X1835977Y2318784I-3998J39800D01*
G01*
X1742583Y2412178D01*
G75*
G02*
Y2468746I28284J28284D01*
G01*
X1812629Y2538792D01*
G75*
G02*
X1869197I28284J-28284D01*
G01*
X1962591Y2445398D01*
G75*
G02*
X1974107Y2413117I-28284J-28285D01*
G01*
X2023378Y2462388D01*
G75*
G02*
X2062875Y2472500I28284J-28284D01*
G01*
G75*
G02*
X2072987Y2511997I38396J11213D01*
G01*
X2122259Y2561269D01*
G75*
G02*
X2089977Y2572784I-3998J39800D01*
G01*
X1996583Y2666178D01*
G75*
G02*
Y2722746I28284J28284D01*
G01*
X2066629Y2792792D01*
G75*
G02*
X2123197I28284J-28284D01*
G01*
X2216591Y2699398D01*
G75*
G02*
X2228107Y2667117I-28284J-28285D01*
G01*
X2277378Y2716388D01*
G75*
G02*
X2333946I28284J-28284D01*
G01*
X2357418Y2692916D01*
G75*
G02*
X2379618Y2743683I74957J-2541D01*
G01*
Y3093635D01*
X2329814Y3143439D01*
G75*
G02*
X2313635Y3182757I39061J39061D01*
G01*
Y3721993D01*
G75*
G02*
X2329814Y3761311I55240J257D01*
G01*
X2389193Y3820690D01*
G75*
G02*
X2539125Y3817500I74932J-3190D01*
G01*
G75*
G02*
X2467315Y3742568I-75000J0D01*
G01*
X2424115Y3699368D01*
Y3522235D01*
X2456602Y3554722D01*
G75*
G02*
X2495875Y3571115I39273J-38848D01*
G01*
X2762645D01*
G75*
G02*
X2840609Y3585756I50730J-55240D01*
G01*
Y3615652D01*
G75*
G02*
X2809641Y3600970I-30968J25318D01*
G01*
X2677561D01*
G75*
G02*
X2637561Y3640970I0J40000D01*
G01*
Y3740030D01*
G75*
G02*
X2677561Y3780030I40000J0D01*
G01*
X2809641D01*
G75*
G02*
X2840609Y3765348I0J-40000D01*
G01*
Y3835026D01*
G75*
G02*
X2880609Y3875026I40000J0D01*
G01*
X2979753D01*
G75*
G02*
X2977332Y3885737I71744J21845D01*
G01*
X2931264Y3931805D01*
X2435025D01*
X2422567Y3919347D01*
G75*
G02*
X2379681Y3901680I-42653J42653D01*
G01*
X2124267D01*
G75*
G02*
X2018750Y3962000I-35517J60320D01*
G01*
G75*
G02*
X2124267Y4022320I70000J0D01*
G01*
X2300222D01*
G75*
G02*
X2413445Y4052445I68653J-30195D01*
G01*
X2956017D01*
G75*
G02*
X2998903Y4034778I233J-60320D01*
G01*
X3062638Y3971043D01*
G75*
G02*
X3052689Y3821884I-11138J-74168D01*
G01*
Y3735966D01*
G75*
G02*
X3012689Y3695966I-40000J0D01*
G01*
X2880609D01*
G75*
G02*
X2849641Y3710648I0J40000D01*
G01*
Y3670352D01*
G75*
G02*
X2880609Y3685034I30968J-25318D01*
G01*
X3012689D01*
G75*
G02*
X3052689Y3645034I0J-40000D01*
G01*
Y3545974D01*
G75*
G02*
X3039034Y3515875I-40000J0D01*
G01*
G75*
G02*
X3052689Y3485776I-26345J-30099D01*
G01*
Y3386716D01*
G75*
G02*
X3052485Y3382686I-39999J5D01*
G01*
G75*
G02*
X3189932Y3344440I62515J-41436D01*
G01*
X3392186Y3142186D01*
G75*
G02*
X3408365Y3102868I-39061J-39061D01*
G01*
Y2598230D01*
G75*
G02*
X3427500Y2557162I-55240J-50730D01*
G01*
Y4506500D01*
X1078000Y1610500D02*
G75*
G02*
X1118000Y1570500I0J-40000D01*
G01*
Y1345500D01*
G75*
G02*
X1078000Y1305500I-40000J0D01*
G01*
X1035000D01*
G75*
G02*
X1024000Y1307042I-1J40000D01*
G01*
G75*
G02*
X1013000Y1305500I-10999J38458D01*
G01*
X970000D01*
G75*
G02*
X959000Y1307042I-1J40000D01*
G01*
G75*
G02*
X948000Y1305500I-10999J38458D01*
G01*
X905000D01*
G75*
G02*
X894000Y1307042I-1J40000D01*
G01*
G75*
G02*
X883000Y1305500I-10999J38458D01*
G01*
X840000D01*
G75*
G02*
X829000Y1307042I-1J40000D01*
G01*
G75*
G02*
X818000Y1305500I-10999J38458D01*
G01*
X775000D01*
G75*
G02*
X764000Y1307042I-1J40000D01*
G01*
G75*
G02*
X753000Y1305500I-10999J38458D01*
G01*
X710000D01*
G75*
G02*
X699000Y1307042I-1J40000D01*
G01*
G75*
G02*
X688000Y1305500I-10999J38458D01*
G01*
X645000D01*
G75*
G02*
X634000Y1307042I-1J40000D01*
G01*
G75*
G02*
X623000Y1305500I-10999J38458D01*
G01*
X580000D01*
G75*
G02*
X540000Y1345500I0J40000D01*
G01*
Y1570500D01*
G75*
G02*
X580000Y1610500I40000J0D01*
G01*
X623000D01*
G75*
G02*
X634000Y1608958I1J-40000D01*
G01*
G75*
G02*
X645000Y1610500I10999J-38458D01*
G01*
X688000D01*
G75*
G02*
X699000Y1608958I1J-40000D01*
G01*
G75*
G02*
X710000Y1610500I10999J-38458D01*
G01*
X753000D01*
G75*
G02*
X764000Y1608958I1J-40000D01*
G01*
G75*
G02*
X775000Y1610500I10999J-38458D01*
G01*
X818000D01*
G75*
G02*
X829000Y1608958I1J-40000D01*
G01*
G75*
G02*
X840000Y1610500I10999J-38458D01*
G01*
X883000D01*
G75*
G02*
X894000Y1608958I1J-40000D01*
G01*
G75*
G02*
X905000Y1610500I10999J-38458D01*
G01*
X948000D01*
G75*
G02*
X959000Y1608958I1J-40000D01*
G01*
G75*
G02*
X970000Y1610500I10999J-38458D01*
G01*
X1013000D01*
G75*
G02*
X1024000Y1608958I1J-40000D01*
G01*
G75*
G02*
X1035000Y1610500I10999J-38458D01*
G01*
X1078000D01*
X3187625Y1032375D02*
G75*
G02*
X3232625Y987375I0J-45000D01*
G01*
Y937375D01*
G75*
G02*
X3225042Y912375I-45000J-1D01*
G01*
G75*
G02*
X3232625Y887375I-37417J-24999D01*
G01*
Y837375D01*
G75*
G02*
X3187625Y792375I-45000J0D01*
G01*
X3137625D01*
G75*
G02*
X3099125Y814078I0J45000D01*
G01*
G75*
G02*
X3060625Y792375I-38500J23297D01*
G01*
X3010625D01*
G75*
G02*
X2972125Y814078I0J45000D01*
G01*
G75*
G02*
X2933625Y792375I-38500J23297D01*
G01*
X2883625D01*
G75*
G02*
X2845125Y814078I0J45000D01*
G01*
G75*
G02*
X2806625Y792375I-38500J23297D01*
G01*
X2756625D01*
G75*
G02*
X2718125Y814078I0J45000D01*
G01*
G75*
G02*
X2679625Y792375I-38500J23297D01*
G01*
X2629625D01*
G75*
G02*
X2591125Y814078I0J45000D01*
G01*
G75*
G02*
X2552625Y792375I-38500J23297D01*
G01*
X2502625D01*
G75*
G02*
X2464125Y814078I0J45000D01*
G01*
G75*
G02*
X2425625Y792375I-38500J23297D01*
G01*
X2375625D01*
G75*
G02*
X2337125Y814078I0J45000D01*
G01*
G75*
G02*
X2298625Y792375I-38500J23297D01*
G01*
X2248625D01*
G75*
G02*
X2210125Y814078I0J45000D01*
G01*
G75*
G02*
X2171625Y792375I-38500J23297D01*
G01*
X2121625D01*
G75*
G02*
X2083125Y814078I0J45000D01*
G01*
G75*
G02*
X2044625Y792375I-38500J23297D01*
G01*
X1994625D01*
G75*
G02*
X1956125Y814078I0J45000D01*
G01*
G75*
G02*
X1917625Y792375I-38500J23297D01*
G01*
X1867625D01*
G75*
G02*
X1829125Y814078I0J45000D01*
G01*
G75*
G02*
X1790625Y792375I-38500J23297D01*
G01*
X1740625D01*
G75*
G02*
X1702125Y814078I0J45000D01*
G01*
G75*
G02*
X1663625Y792375I-38500J23297D01*
G01*
X1613625D01*
G75*
G02*
X1575125Y814078I0J45000D01*
G01*
G75*
G02*
X1536625Y792375I-38500J23297D01*
G01*
X1486625D01*
G75*
G02*
X1448125Y814078I0J45000D01*
G01*
G75*
G02*
X1409625Y792375I-38500J23297D01*
G01*
X1359625D01*
G75*
G02*
X1321125Y814078I0J45000D01*
G01*
G75*
G02*
X1282625Y792375I-38500J23297D01*
G01*
X1232625D01*
G75*
G02*
X1194125Y814078I0J45000D01*
G01*
G75*
G02*
X1155625Y792375I-38500J23297D01*
G01*
X1105625D01*
G75*
G02*
X1067125Y814078I0J45000D01*
G01*
G75*
G02*
X1028625Y792375I-38500J23297D01*
G01*
X978625D01*
G75*
G02*
X940125Y814078I0J45000D01*
G01*
G75*
G02*
X901625Y792375I-38500J23297D01*
G01*
X851625D01*
G75*
G02*
X813125Y814078I0J45000D01*
G01*
G75*
G02*
X774625Y792375I-38500J23297D01*
G01*
X724625D01*
G75*
G02*
X679625Y837375I0J45000D01*
G01*
Y887375D01*
G75*
G02*
X687208Y912375I45000J1D01*
G01*
G75*
G02*
X679625Y937375I37417J24999D01*
G01*
Y987375D01*
G75*
G02*
X724625Y1032375I45000J0D01*
G01*
X745604D01*
G75*
G02*
X841566Y1147320I51392J54625D01*
G01*
X1081354D01*
G75*
G02*
X1127435Y1278797I49271J56545D01*
G01*
X1673199Y1824561D01*
G75*
G02*
X1712517Y1840740I39061J-39061D01*
G01*
X1778395D01*
G75*
G02*
X1904125Y1785500I50730J-55240D01*
G01*
G75*
G02*
X1778395Y1730260I-75000J0D01*
G01*
X1735142D01*
X1205557Y1200675D01*
G75*
G02*
X1179896Y1147320I-74932J3190D01*
G01*
X1196926D01*
G75*
G02*
X1286066I44570J-60320D01*
G01*
X1641426D01*
G75*
G02*
X1730566I44570J-60320D01*
G01*
X1879355D01*
G75*
G02*
X2023700Y1118750I69345J-28570D01*
G01*
G75*
G02*
X1959838Y1044582I-75000J0D01*
G01*
X1959603Y1044347D01*
G75*
G02*
X1934218Y1029204I-42653J42653D01*
G01*
G75*
G02*
X1956125Y1010672I-16593J-41829D01*
G01*
G75*
G02*
X1994625Y1032375I38500J-23297D01*
G01*
X2003875D01*
G75*
G02*
X2019625Y1034125I15750J-70000D01*
G01*
X2146625D01*
G75*
G02*
X2162375Y1032375I0J-71750D01*
G01*
X2171625D01*
G75*
G02*
X2210125Y1010672I0J-45000D01*
G01*
G75*
G02*
X2248625Y1032375I38500J-23297D01*
G01*
X2298625D01*
G75*
G02*
X2326509Y1022695I0J-45001D01*
G01*
X2347741D01*
G75*
G02*
X2375625Y1032375I27884J-35321D01*
G01*
X2425625D01*
G75*
G02*
X2464125Y1010672I0J-45000D01*
G01*
G75*
G02*
X2502625Y1032375I38500J-23297D01*
G01*
X2552625D01*
G75*
G02*
X2580509Y1022695I0J-45001D01*
G01*
X2601741D01*
G75*
G02*
X2629625Y1032375I27884J-35321D01*
G01*
X2679625D01*
G75*
G02*
X2718125Y1010672I0J-45000D01*
G01*
G75*
G02*
X2756625Y1032375I38500J-23297D01*
G01*
X2806625D01*
G75*
G02*
X2843934Y1012535I0J-45000D01*
G01*
X2846316D01*
G75*
G02*
X2883625Y1032375I37309J-25160D01*
G01*
X2933625D01*
G75*
G02*
X2972125Y1010672I0J-45000D01*
G01*
G75*
G02*
X3010625Y1032375I38500J-23297D01*
G01*
X3060625D01*
G75*
G02*
X3093950Y1017615I0J-45000D01*
G01*
X3104300D01*
G75*
G02*
X3137625Y1032375I33325J-30240D01*
G01*
X3187625D01*
X1078000Y2265500D02*
G75*
G02*
X1118000Y2225500I0J-40000D01*
G01*
Y2000500D01*
G75*
G02*
X1078000Y1960500I-40000J0D01*
G01*
X1035000D01*
G75*
G02*
X1024000Y1962042I-1J40000D01*
G01*
G75*
G02*
X1013000Y1960500I-10999J38458D01*
G01*
X970000D01*
G75*
G02*
X959000Y1962042I-1J40000D01*
G01*
G75*
G02*
X948000Y1960500I-10999J38458D01*
G01*
X905000D01*
G75*
G02*
X894000Y1962042I-1J40000D01*
G01*
G75*
G02*
X883000Y1960500I-10999J38458D01*
G01*
X840000D01*
G75*
G02*
X829000Y1962042I-1J40000D01*
G01*
G75*
G02*
X818000Y1960500I-10999J38458D01*
G01*
X775000D01*
G75*
G02*
X764000Y1962042I-1J40000D01*
G01*
G75*
G02*
X753000Y1960500I-10999J38458D01*
G01*
X710000D01*
G75*
G02*
X699000Y1962042I-1J40000D01*
G01*
G75*
G02*
X688000Y1960500I-10999J38458D01*
G01*
X645000D01*
G75*
G02*
X634000Y1962042I-1J40000D01*
G01*
G75*
G02*
X623000Y1960500I-10999J38458D01*
G01*
X580000D01*
G75*
G02*
X540000Y2000500I0J40000D01*
G01*
Y2225500D01*
G75*
G02*
X580000Y2265500I40000J0D01*
G01*
X623000D01*
G75*
G02*
X634000Y2263958I1J-40000D01*
G01*
G75*
G02*
X645000Y2265500I10999J-38458D01*
G01*
X688000D01*
G75*
G02*
X699000Y2263958I1J-40000D01*
G01*
G75*
G02*
X710000Y2265500I10999J-38458D01*
G01*
X753000D01*
G75*
G02*
X764000Y2263958I1J-40000D01*
G01*
G75*
G02*
X775000Y2265500I10999J-38458D01*
G01*
X818000D01*
G75*
G02*
X829000Y2263958I1J-40000D01*
G01*
G75*
G02*
X840000Y2265500I10999J-38458D01*
G01*
X883000D01*
G75*
G02*
X894000Y2263958I1J-40000D01*
G01*
G75*
G02*
X905000Y2265500I10999J-38458D01*
G01*
X948000D01*
G75*
G02*
X959000Y2263958I1J-40000D01*
G01*
G75*
G02*
X970000Y2265500I10999J-38458D01*
G01*
X1013000D01*
G75*
G02*
X1024000Y2263958I1J-40000D01*
G01*
G75*
G02*
X1035000Y2265500I10999J-38458D01*
G01*
X1078000D01*
Y2594750D02*
G75*
G02*
X1118000Y2554750I0J-40000D01*
G01*
Y2329750D01*
G75*
G02*
X1078000Y2289750I-40000J0D01*
G01*
X1035000D01*
G75*
G02*
X1024000Y2291292I-1J40000D01*
G01*
G75*
G02*
X1013000Y2289750I-10999J38458D01*
G01*
X970000D01*
G75*
G02*
X959000Y2291292I-1J40000D01*
G01*
G75*
G02*
X948000Y2289750I-10999J38458D01*
G01*
X905000D01*
G75*
G02*
X894000Y2291292I-1J40000D01*
G01*
G75*
G02*
X883000Y2289750I-10999J38458D01*
G01*
X840000D01*
G75*
G02*
X829000Y2291292I-1J40000D01*
G01*
G75*
G02*
X818000Y2289750I-10999J38458D01*
G01*
X775000D01*
G75*
G02*
X764000Y2291292I-1J40000D01*
G01*
G75*
G02*
X753000Y2289750I-10999J38458D01*
G01*
X710000D01*
G75*
G02*
X699000Y2291292I-1J40000D01*
G01*
G75*
G02*
X688000Y2289750I-10999J38458D01*
G01*
X645000D01*
G75*
G02*
X634000Y2291292I-1J40000D01*
G01*
G75*
G02*
X623000Y2289750I-10999J38458D01*
G01*
X580000D01*
G75*
G02*
X540000Y2329750I0J40000D01*
G01*
Y2554750D01*
G75*
G02*
X580000Y2594750I40000J0D01*
G01*
X623000D01*
G75*
G02*
X634000Y2593208I1J-40000D01*
G01*
G75*
G02*
X645000Y2594750I10999J-38458D01*
G01*
X688000D01*
G75*
G02*
X699000Y2593208I1J-40000D01*
G01*
G75*
G02*
X710000Y2594750I10999J-38458D01*
G01*
X753000D01*
G75*
G02*
X764000Y2593208I1J-40000D01*
G01*
G75*
G02*
X775000Y2594750I10999J-38458D01*
G01*
X818000D01*
G75*
G02*
X829000Y2593208I1J-40000D01*
G01*
G75*
G02*
X840000Y2594750I10999J-38458D01*
G01*
X883000D01*
G75*
G02*
X894000Y2593208I1J-40000D01*
G01*
G75*
G02*
X905000Y2594750I10999J-38458D01*
G01*
X948000D01*
G75*
G02*
X959000Y2593208I1J-40000D01*
G01*
G75*
G02*
X970000Y2594750I10999J-38458D01*
G01*
X1013000D01*
G75*
G02*
X1024000Y2593208I1J-40000D01*
G01*
G75*
G02*
X1035000Y2594750I10999J-38458D01*
G01*
X1078000D01*
Y3249750D02*
G75*
G02*
X1118000Y3209750I0J-40000D01*
G01*
Y2984750D01*
G75*
G02*
X1078000Y2944750I-40000J0D01*
G01*
X1035000D01*
G75*
G02*
X1024000Y2946292I-1J40000D01*
G01*
G75*
G02*
X1013000Y2944750I-10999J38458D01*
G01*
X970000D01*
G75*
G02*
X959000Y2946292I-1J40000D01*
G01*
G75*
G02*
X948000Y2944750I-10999J38458D01*
G01*
X905000D01*
G75*
G02*
X894000Y2946292I-1J40000D01*
G01*
G75*
G02*
X883000Y2944750I-10999J38458D01*
G01*
X840000D01*
G75*
G02*
X829000Y2946292I-1J40000D01*
G01*
G75*
G02*
X818000Y2944750I-10999J38458D01*
G01*
X775000D01*
G75*
G02*
X764000Y2946292I-1J40000D01*
G01*
G75*
G02*
X753000Y2944750I-10999J38458D01*
G01*
X710000D01*
G75*
G02*
X699000Y2946292I-1J40000D01*
G01*
G75*
G02*
X688000Y2944750I-10999J38458D01*
G01*
X645000D01*
G75*
G02*
X634000Y2946292I-1J40000D01*
G01*
G75*
G02*
X623000Y2944750I-10999J38458D01*
G01*
X580000D01*
G75*
G02*
X540000Y2984750I0J40000D01*
G01*
Y3209750D01*
G75*
G02*
X580000Y3249750I40000J0D01*
G01*
X623000D01*
G75*
G02*
X634000Y3248208I1J-40000D01*
G01*
G75*
G02*
X645000Y3249750I10999J-38458D01*
G01*
X688000D01*
G75*
G02*
X699000Y3248208I1J-40000D01*
G01*
G75*
G02*
X710000Y3249750I10999J-38458D01*
G01*
X753000D01*
G75*
G02*
X764000Y3248208I1J-40000D01*
G01*
G75*
G02*
X775000Y3249750I10999J-38458D01*
G01*
X818000D01*
G75*
G02*
X829000Y3248208I1J-40000D01*
G01*
G75*
G02*
X840000Y3249750I10999J-38458D01*
G01*
X883000D01*
G75*
G02*
X894000Y3248208I1J-40000D01*
G01*
G75*
G02*
X905000Y3249750I10999J-38458D01*
G01*
X948000D01*
G75*
G02*
X959000Y3248208I1J-40000D01*
G01*
G75*
G02*
X970000Y3249750I10999J-38458D01*
G01*
X1013000D01*
G75*
G02*
X1024000Y3248208I1J-40000D01*
G01*
G75*
G02*
X1035000Y3249750I10999J-38458D01*
G01*
X1078000D01*
X3360740Y1550480D02*
G75*
G02*
X3380500Y1499750I-55240J-50730D01*
G01*
G75*
G02*
X3230500I-75000J0D01*
G01*
G75*
G02*
X3250260Y1550480I75000J0D01*
G01*
Y1764243D01*
X3155618Y1858885D01*
X2393480D01*
G75*
G02*
X2267750Y1914125I-50730J55240D01*
G01*
G75*
G02*
X2393480Y1969365I75000J0D01*
G01*
X3178243D01*
G75*
G02*
X3217561Y1953186I257J-55240D01*
G01*
X3344561Y1826186D01*
G75*
G02*
X3360740Y1786868I-39061J-39061D01*
G01*
Y1550480D01*
X2672151Y1488391D02*
G75*
G02*
X2712151Y1448391I0J-40000D01*
G01*
Y1316311D01*
G75*
G02*
X2672151Y1276311I-40000J0D01*
G01*
X2573091D01*
G75*
G02*
X2533091Y1316311I0J40000D01*
G01*
Y1448391D01*
G75*
G02*
X2547773Y1479359I40000J0D01*
G01*
X2507477D01*
G75*
G02*
X2522159Y1448391I-25318J-30968D01*
G01*
Y1316311D01*
G75*
G02*
X2482159Y1276311I-40000J0D01*
G01*
X2383099D01*
G75*
G02*
X2343099Y1316311I0J40000D01*
G01*
Y1448391D01*
G75*
G02*
X2383099Y1488391I40000J0D01*
G01*
X2452777D01*
G75*
G02*
X2438095Y1519359I25318J30968D01*
G01*
Y1651439D01*
G75*
G02*
X2478095Y1691439I40000J0D01*
G01*
X2577155D01*
G75*
G02*
X2617155Y1651439I0J-40000D01*
G01*
Y1519359D01*
G75*
G02*
X2602473Y1488391I-40000J0D01*
G01*
X2672151D01*
X2291151D02*
G75*
G02*
X2331151Y1448391I0J-40000D01*
G01*
Y1316311D01*
G75*
G02*
X2291151Y1276311I-40000J0D01*
G01*
X2192091D01*
G75*
G02*
X2152091Y1316311I0J40000D01*
G01*
Y1448391D01*
G75*
G02*
X2166773Y1479359I40000J0D01*
G01*
X2126477D01*
G75*
G02*
X2141159Y1448391I-25318J-30968D01*
G01*
Y1316311D01*
G75*
G02*
X2101159Y1276311I-40000J0D01*
G01*
X2002099D01*
G75*
G02*
X1962099Y1316311I0J40000D01*
G01*
Y1448391D01*
G75*
G02*
X2002099Y1488391I40000J0D01*
G01*
X2071777D01*
G75*
G02*
X2057095Y1519359I25318J30968D01*
G01*
Y1651439D01*
G75*
G02*
X2097095Y1691439I40000J0D01*
G01*
X2196155D01*
G75*
G02*
X2236155Y1651439I0J-40000D01*
G01*
Y1519359D01*
G75*
G02*
X2221473Y1488391I-40000J0D01*
G01*
X2291151D01*
X1686761Y2113000D02*
G36*
X1686761Y2113000D02*
X1687724D01*
G75*
G02*
X1687816Y2114055I39891J-2947D01*
G01*
X1686761Y2113000D01*
G37*
X432500Y2442250D02*
G36*
X432500Y2442250D02*
Y2113000D01*
X540000D01*
Y2225500D01*
G75*
G02*
X580000Y2265500I40000J0D01*
G01*
X623000D01*
G75*
G02*
X634000Y2263958I1J-40000D01*
G01*
G75*
G02*
X645000Y2265500I10999J-38458D01*
G01*
X688000D01*
G75*
G02*
X699000Y2263958I1J-40000D01*
G01*
G75*
G02*
X710000Y2265500I10999J-38458D01*
G01*
X753000D01*
G75*
G02*
X764000Y2263958I1J-40000D01*
G01*
G75*
G02*
X775000Y2265500I10999J-38458D01*
G01*
X818000D01*
G75*
G02*
X829000Y2263958I1J-40000D01*
G01*
G75*
G02*
X840000Y2265500I10999J-38458D01*
G01*
X883000D01*
G75*
G02*
X894000Y2263958I1J-40000D01*
G01*
G75*
G02*
X905000Y2265500I10999J-38458D01*
G01*
X948000D01*
G75*
G02*
X959000Y2263958I1J-40000D01*
G01*
G75*
G02*
X970000Y2265500I10999J-38458D01*
G01*
X1013000D01*
G75*
G02*
X1024000Y2263958I1J-40000D01*
G01*
G75*
G02*
X1035000Y2265500I10999J-38458D01*
G01*
X1078000D01*
G75*
G02*
X1118000Y2225500I0J-40000D01*
G01*
Y2113000D01*
X1533761D01*
X1488583Y2158178D01*
G75*
G02*
X1476867Y2186462I28284J28284D01*
G01*
G75*
G02*
X1488583Y2214746I40000J0D01*
G01*
X1558629Y2284792D01*
G75*
G02*
X1615197I28284J-28284D01*
G01*
X1708591Y2191398D01*
G75*
G02*
X1720307Y2163113I-28284J-28285D01*
G01*
G75*
G02*
X1720107Y2159117I-40000J-1D01*
G01*
X1769378Y2208388D01*
G75*
G02*
X1808875Y2218500I28284J-28284D01*
G01*
G75*
G02*
X1807271Y2229713I38396J11214D01*
G01*
G75*
G02*
X1818987Y2257997I40000J0D01*
G01*
X1868259Y2307269D01*
G75*
G02*
X1835977Y2318784I-3998J39800D01*
G01*
X1742583Y2412178D01*
G75*
G02*
X1730867Y2440462I28284J28284D01*
G01*
G75*
G02*
X1730907Y2442250I40000J0D01*
G01*
X1118000D01*
Y2329750D01*
G75*
G02*
X1078000Y2289750I-40000J0D01*
G01*
X1035000D01*
G75*
G02*
X1024000Y2291292I-1J40000D01*
G01*
G75*
G02*
X1013000Y2289750I-10999J38458D01*
G01*
X970000D01*
G75*
G02*
X959000Y2291292I-1J40000D01*
G01*
G75*
G02*
X948000Y2289750I-10999J38458D01*
G01*
X905000D01*
G75*
G02*
X894000Y2291292I-1J40000D01*
G01*
G75*
G02*
X883000Y2289750I-10999J38458D01*
G01*
X840000D01*
G75*
G02*
X829000Y2291292I-1J40000D01*
G01*
G75*
G02*
X818000Y2289750I-10999J38458D01*
G01*
X775000D01*
G75*
G02*
X764000Y2291292I-1J40000D01*
G01*
G75*
G02*
X753000Y2289750I-10999J38458D01*
G01*
X710000D01*
G75*
G02*
X699000Y2291292I-1J40000D01*
G01*
G75*
G02*
X688000Y2289750I-10999J38458D01*
G01*
X645000D01*
G75*
G02*
X634000Y2291292I-1J40000D01*
G01*
G75*
G02*
X623000Y2289750I-10999J38458D01*
G01*
X580000D01*
G75*
G02*
X540000Y2329750I0J40000D01*
G01*
Y2442250D01*
X432500D01*
G37*
X1965422D02*
G36*
X1965422Y2442250D02*
G75*
G02*
X1974307Y2417113I-31115J-25137D01*
G01*
G75*
G02*
X1974107Y2413117I-40000J-1D01*
G01*
X2003240Y2442250D01*
X1965422D01*
G37*
X1973914Y2113000D02*
G36*
X1973914Y2113000D02*
X2024670D01*
G75*
G02*
X2038680Y2147570I74330J-10000D01*
G01*
Y2177766D01*
X1973914Y2113000D01*
G37*
X2126477Y1479359D02*
G36*
X2126477Y1479359D02*
G75*
G02*
X2139988Y1458000I-25318J-30968D01*
G01*
X2153262D01*
G75*
G02*
X2166773Y1479359I38829J-9609D01*
G01*
X2126477D01*
G37*
X432500Y3097250D02*
G36*
X432500Y3097250D02*
Y2442250D01*
X540000D01*
Y2554750D01*
G75*
G02*
X580000Y2594750I40000J0D01*
G01*
X623000D01*
G75*
G02*
X634000Y2593208I1J-40000D01*
G01*
G75*
G02*
X645000Y2594750I10999J-38458D01*
G01*
X688000D01*
G75*
G02*
X699000Y2593208I1J-40000D01*
G01*
G75*
G02*
X710000Y2594750I10999J-38458D01*
G01*
X753000D01*
G75*
G02*
X764000Y2593208I1J-40000D01*
G01*
G75*
G02*
X775000Y2594750I10999J-38458D01*
G01*
X818000D01*
G75*
G02*
X829000Y2593208I1J-40000D01*
G01*
G75*
G02*
X840000Y2594750I10999J-38458D01*
G01*
X883000D01*
G75*
G02*
X894000Y2593208I1J-40000D01*
G01*
G75*
G02*
X905000Y2594750I10999J-38458D01*
G01*
X948000D01*
G75*
G02*
X959000Y2593208I1J-40000D01*
G01*
G75*
G02*
X970000Y2594750I10999J-38458D01*
G01*
X1013000D01*
G75*
G02*
X1024000Y2593208I1J-40000D01*
G01*
G75*
G02*
X1035000Y2594750I10999J-38458D01*
G01*
X1078000D01*
G75*
G02*
X1118000Y2554750I0J-40000D01*
G01*
Y2442250D01*
X1730907D01*
G75*
G02*
X1742583Y2468746I39960J-1788D01*
G01*
X1812629Y2538792D01*
G75*
G02*
X1869197I28284J-28284D01*
G01*
X1962591Y2445398D01*
G75*
G02*
X1965422Y2442250I-28285J-28284D01*
G01*
X2003240D01*
X2023378Y2462388D01*
G75*
G02*
X2062875Y2472500I28284J-28284D01*
G01*
G75*
G02*
X2061271Y2483713I38396J11214D01*
G01*
G75*
G02*
X2072987Y2511997I40000J0D01*
G01*
X2122259Y2561269D01*
G75*
G02*
X2089977Y2572784I-3998J39800D01*
G01*
X1996583Y2666178D01*
G75*
G02*
X1984867Y2694462I28284J28284D01*
G01*
G75*
G02*
X1996583Y2722746I40000J0D01*
G01*
X2066629Y2792792D01*
G75*
G02*
X2123197I28284J-28284D01*
G01*
X2216591Y2699398D01*
G75*
G02*
X2228307Y2671113I-28284J-28285D01*
G01*
G75*
G02*
X2228107Y2667117I-40000J-1D01*
G01*
X2277378Y2716388D01*
G75*
G02*
X2333946I28284J-28284D01*
G01*
X2357418Y2692916D01*
G75*
G02*
X2379618Y2743683I74957J-2541D01*
G01*
Y3093635D01*
X2376003Y3097250D01*
X1118000D01*
Y2984750D01*
G75*
G02*
X1078000Y2944750I-40000J0D01*
G01*
X1035000D01*
G75*
G02*
X1024000Y2946292I-1J40000D01*
G01*
G75*
G02*
X1013000Y2944750I-10999J38458D01*
G01*
X970000D01*
G75*
G02*
X959000Y2946292I-1J40000D01*
G01*
G75*
G02*
X948000Y2944750I-10999J38458D01*
G01*
X905000D01*
G75*
G02*
X894000Y2946292I-1J40000D01*
G01*
G75*
G02*
X883000Y2944750I-10999J38458D01*
G01*
X840000D01*
G75*
G02*
X829000Y2946292I-1J40000D01*
G01*
G75*
G02*
X818000Y2944750I-10999J38458D01*
G01*
X775000D01*
G75*
G02*
X764000Y2946292I-1J40000D01*
G01*
G75*
G02*
X753000Y2944750I-10999J38458D01*
G01*
X710000D01*
G75*
G02*
X699000Y2946292I-1J40000D01*
G01*
G75*
G02*
X688000Y2944750I-10999J38458D01*
G01*
X645000D01*
G75*
G02*
X634000Y2946292I-1J40000D01*
G01*
G75*
G02*
X623000Y2944750I-10999J38458D01*
G01*
X580000D01*
G75*
G02*
X540000Y2984750I0J40000D01*
G01*
Y3097250D01*
X432500D01*
G37*
X2507477Y1479359D02*
G36*
X2507477Y1479359D02*
G75*
G02*
X2520988Y1458000I-25318J-30968D01*
G01*
X2534262D01*
G75*
G02*
X2547773Y1479359I38829J-9609D01*
G01*
X2507477D01*
G37*
X2159320Y2157389D02*
G36*
X2159320Y2157389D02*
Y2147570D01*
G75*
G02*
X2173330Y2113000I-60320J-44570D01*
G01*
X2840609D01*
Y2171027D01*
G75*
G02*
X2809641Y2156345I-30968J25318D01*
G01*
X2677561D01*
G75*
G02*
X2637561Y2196345I0J40000D01*
G01*
Y2295405D01*
G75*
G02*
X2677561Y2335405I40000J0D01*
G01*
X2809641D01*
G75*
G02*
X2840609Y2320723I0J-40000D01*
G01*
Y2390401D01*
G75*
G02*
X2868231Y2428438I40001J0D01*
G01*
G75*
G02*
X2848779Y2442250I12378J38037D01*
G01*
X2462930D01*
G75*
G02*
X2411763Y2409832I-62304J41749D01*
G01*
X2159320Y2157389D01*
G37*
X2462930Y2442250D02*
G36*
X2462930Y2442250D02*
X2848779D01*
G75*
G02*
X2840609Y2466474I31830J24225D01*
G01*
Y2536152D01*
G75*
G02*
X2809641Y2521470I-30968J25318D01*
G01*
X2677561D01*
G75*
G02*
X2637561Y2561470I0J40000D01*
G01*
Y2660530D01*
G75*
G02*
X2677561Y2700530I40000J0D01*
G01*
X2809641D01*
G75*
G02*
X2840609Y2685848I0J-40000D01*
G01*
Y2755526D01*
G75*
G02*
X2868231Y2793563I40001J0D01*
G01*
G75*
G02*
X2840609Y2831599I12378J38037D01*
G01*
Y2901277D01*
G75*
G02*
X2809641Y2886595I-30968J25318D01*
G01*
X2677561D01*
G75*
G02*
X2637561Y2926595I0J40000D01*
G01*
Y3025655D01*
G75*
G02*
X2677561Y3065655I40000J0D01*
G01*
X2809641D01*
G75*
G02*
X2840609Y3050973I0J-40000D01*
G01*
Y3097250D01*
X2600820D01*
Y2624108D01*
Y2624050D01*
Y2623992D01*
Y2623934D01*
Y2623875D01*
Y2623874D01*
G75*
G02*
X2583153Y2581222I-60320J0D01*
G01*
X2474793Y2472862D01*
G75*
G02*
X2462930Y2442250I-74167J11137D01*
G01*
G37*
X2489890Y3412475D02*
G36*
X2489890Y3412475D02*
G75*
G02*
X2615500Y3357125I50610J-55350D01*
G01*
G75*
G02*
X2600820Y3312555I-75000J0D01*
G01*
Y3097250D01*
X2840609D01*
Y3120651D01*
G75*
G02*
X2868231Y3158688I40001J0D01*
G01*
G75*
G02*
X2840609Y3196724I12378J38037D01*
G01*
Y3266402D01*
G75*
G02*
X2809641Y3251720I-30968J25318D01*
G01*
X2677561D01*
G75*
G02*
X2637561Y3291720I0J40000D01*
G01*
Y3390780D01*
G75*
G02*
X2677561Y3430780I40000J0D01*
G01*
X2809641D01*
G75*
G02*
X2840609Y3416098I0J-40000D01*
G01*
Y3445994D01*
G75*
G02*
X2762645Y3460635I-27234J69881D01*
G01*
X2518755D01*
X2501838Y3443718D01*
G75*
G02*
X2489890Y3412475I-69464J8658D01*
G01*
G37*
X3025067Y3158688D02*
G36*
X3025067Y3158688D02*
G75*
G02*
X3052689Y3120651I-12379J-38037D01*
G01*
Y3097250D01*
X3280878D01*
X3111810Y3266318D01*
G75*
G02*
X3052485Y3299814I3189J74932D01*
G01*
G75*
G02*
X3052689Y3295784I-39795J-4035D01*
G01*
Y3196724D01*
G75*
G02*
X3025067Y3158688I-40000J1D01*
G01*
G37*
X432500Y1458000D02*
G36*
X432500Y1458000D02*
Y586500D01*
X3427500D01*
Y1458000D01*
X3367805D01*
G75*
G02*
X3243195I-62305J41750D01*
G01*
X2710980D01*
G75*
G02*
X2712151Y1448391I-38829J-9608D01*
G01*
Y1316311D01*
G75*
G02*
X2672151Y1276311I-40000J0D01*
G01*
X2573091D01*
G75*
G02*
X2533091Y1316311I0J40000D01*
G01*
Y1448391D01*
G75*
G02*
X2534262Y1458000I40000J1D01*
G01*
X2520988D01*
G75*
G02*
X2522159Y1448391I-38829J-9608D01*
G01*
Y1316311D01*
G75*
G02*
X2482159Y1276311I-40000J0D01*
G01*
X2383099D01*
G75*
G02*
X2343099Y1316311I0J40000D01*
G01*
Y1448391D01*
G75*
G02*
X2344270Y1458000I40000J1D01*
G01*
X2329980D01*
G75*
G02*
X2331151Y1448391I-38829J-9608D01*
G01*
Y1316311D01*
G75*
G02*
X2291151Y1276311I-40000J0D01*
G01*
X2192091D01*
G75*
G02*
X2152091Y1316311I0J40000D01*
G01*
Y1448391D01*
G75*
G02*
X2153262Y1458000I40000J1D01*
G01*
X2139988D01*
G75*
G02*
X2141159Y1448391I-38829J-9608D01*
G01*
Y1316311D01*
G75*
G02*
X2101159Y1276311I-40000J0D01*
G01*
X2002099D01*
G75*
G02*
X1962099Y1316311I0J40000D01*
G01*
Y1448391D01*
G75*
G02*
X1963270Y1458000I40000J1D01*
G01*
X1462882D01*
X1205557Y1200675D01*
G75*
G02*
X1179896Y1147320I-74932J3190D01*
G01*
X1196926D01*
G75*
G02*
X1286066I44570J-60320D01*
G01*
X1641426D01*
G75*
G02*
X1730566I44570J-60320D01*
G01*
X1879355D01*
G75*
G02*
X2023700Y1118750I69345J-28570D01*
G01*
G75*
G02*
X1959838Y1044582I-75000J0D01*
G01*
X1959603Y1044347D01*
G75*
G02*
X1934218Y1029204I-42653J42653D01*
G01*
G75*
G02*
X1956125Y1010672I-16593J-41829D01*
G01*
G75*
G02*
X1994625Y1032375I38500J-23297D01*
G01*
X2003875D01*
G75*
G02*
X2019625Y1034125I15750J-70000D01*
G01*
X2146625D01*
G75*
G02*
X2162375Y1032375I0J-71750D01*
G01*
X2171625D01*
G75*
G02*
X2210125Y1010672I0J-45000D01*
G01*
G75*
G02*
X2248625Y1032375I38500J-23297D01*
G01*
X2298625D01*
G75*
G02*
X2326509Y1022695I0J-45001D01*
G01*
X2347741D01*
G75*
G02*
X2375625Y1032375I27884J-35321D01*
G01*
X2425625D01*
G75*
G02*
X2464125Y1010672I0J-45000D01*
G01*
G75*
G02*
X2502625Y1032375I38500J-23297D01*
G01*
X2552625D01*
G75*
G02*
X2580509Y1022695I0J-45001D01*
G01*
X2601741D01*
G75*
G02*
X2629625Y1032375I27884J-35321D01*
G01*
X2679625D01*
G75*
G02*
X2718125Y1010672I0J-45000D01*
G01*
G75*
G02*
X2756625Y1032375I38500J-23297D01*
G01*
X2806625D01*
G75*
G02*
X2843934Y1012535I0J-45000D01*
G01*
X2846316D01*
G75*
G02*
X2883625Y1032375I37309J-25160D01*
G01*
X2933625D01*
G75*
G02*
X2972125Y1010672I0J-45000D01*
G01*
G75*
G02*
X3010625Y1032375I38500J-23297D01*
G01*
X3060625D01*
G75*
G02*
X3093950Y1017615I0J-45000D01*
G01*
X3104300D01*
G75*
G02*
X3137625Y1032375I33325J-30240D01*
G01*
X3187625D01*
G75*
G02*
X3232625Y987375I0J-45000D01*
G01*
Y937375D01*
Y937374D01*
G75*
G02*
X3225042Y912375I-45000J0D01*
G01*
G75*
G02*
X3232625Y887376I-37417J-24999D01*
G01*
Y887375D01*
Y837375D01*
G75*
G02*
X3187625Y792375I-45000J0D01*
G01*
X3137625D01*
G75*
G02*
X3099125Y814078I0J45000D01*
G01*
G75*
G02*
X3060625Y792375I-38500J23297D01*
G01*
X3010625D01*
G75*
G02*
X2972125Y814078I0J45000D01*
G01*
G75*
G02*
X2933625Y792375I-38500J23297D01*
G01*
X2883625D01*
G75*
G02*
X2845125Y814078I0J45000D01*
G01*
G75*
G02*
X2806625Y792375I-38500J23297D01*
G01*
X2756625D01*
G75*
G02*
X2718125Y814078I0J45000D01*
G01*
G75*
G02*
X2679625Y792375I-38500J23297D01*
G01*
X2629625D01*
G75*
G02*
X2591125Y814078I0J45000D01*
G01*
G75*
G02*
X2552625Y792375I-38500J23297D01*
G01*
X2502625D01*
G75*
G02*
X2464125Y814078I0J45000D01*
G01*
G75*
G02*
X2425625Y792375I-38500J23297D01*
G01*
X2375625D01*
G75*
G02*
X2337125Y814078I0J45000D01*
G01*
G75*
G02*
X2298625Y792375I-38500J23297D01*
G01*
X2248625D01*
G75*
G02*
X2210125Y814078I0J45000D01*
G01*
G75*
G02*
X2171625Y792375I-38500J23297D01*
G01*
X2121625D01*
G75*
G02*
X2083125Y814078I0J45000D01*
G01*
G75*
G02*
X2044625Y792375I-38500J23297D01*
G01*
X1994625D01*
G75*
G02*
X1956125Y814078I0J45000D01*
G01*
G75*
G02*
X1917625Y792375I-38500J23297D01*
G01*
X1867625D01*
G75*
G02*
X1829125Y814078I0J45000D01*
G01*
G75*
G02*
X1790625Y792375I-38500J23297D01*
G01*
X1740625D01*
G75*
G02*
X1702125Y814078I0J45000D01*
G01*
G75*
G02*
X1663625Y792375I-38500J23297D01*
G01*
X1613625D01*
G75*
G02*
X1575125Y814078I0J45000D01*
G01*
G75*
G02*
X1536625Y792375I-38500J23297D01*
G01*
X1486625D01*
G75*
G02*
X1448125Y814078I0J45000D01*
G01*
G75*
G02*
X1409625Y792375I-38500J23297D01*
G01*
X1359625D01*
G75*
G02*
X1321125Y814078I0J45000D01*
G01*
G75*
G02*
X1282625Y792375I-38500J23297D01*
G01*
X1232625D01*
G75*
G02*
X1194125Y814078I0J45000D01*
G01*
G75*
G02*
X1155625Y792375I-38500J23297D01*
G01*
X1105625D01*
G75*
G02*
X1067125Y814078I0J45000D01*
G01*
G75*
G02*
X1028625Y792375I-38500J23297D01*
G01*
X978625D01*
G75*
G02*
X940125Y814078I0J45000D01*
G01*
G75*
G02*
X901625Y792375I-38500J23297D01*
G01*
X851625D01*
G75*
G02*
X813125Y814078I0J45000D01*
G01*
G75*
G02*
X774625Y792375I-38500J23297D01*
G01*
X724625D01*
G75*
G02*
X679625Y837375I0J45000D01*
G01*
Y887375D01*
Y887376D01*
G75*
G02*
X687208Y912375I45000J0D01*
G01*
G75*
G02*
X679625Y937374I37417J24999D01*
G01*
Y937375D01*
Y987375D01*
G75*
G02*
X724625Y1032375I45000J0D01*
G01*
X745604D01*
G75*
G02*
X721996Y1087000I51392J54625D01*
G01*
G75*
G02*
X841566Y1147320I75000J0D01*
G01*
X1081354D01*
G75*
G02*
X1055625Y1203865I49271J56545D01*
G01*
G75*
G02*
X1127435Y1278797I75000J0D01*
G01*
X1306638Y1458000D01*
X1118000D01*
Y1345500D01*
G75*
G02*
X1078000Y1305500I-40000J0D01*
G01*
X1035000D01*
G75*
G02*
X1024000Y1307042I-1J40000D01*
G01*
G75*
G02*
X1013000Y1305500I-10999J38458D01*
G01*
X970000D01*
G75*
G02*
X959000Y1307042I-1J40000D01*
G01*
G75*
G02*
X948000Y1305500I-10999J38458D01*
G01*
X905000D01*
G75*
G02*
X894000Y1307042I-1J40000D01*
G01*
G75*
G02*
X883000Y1305500I-10999J38458D01*
G01*
X840000D01*
G75*
G02*
X829000Y1307042I-1J40000D01*
G01*
G75*
G02*
X818000Y1305500I-10999J38458D01*
G01*
X775000D01*
G75*
G02*
X764000Y1307042I-1J40000D01*
G01*
G75*
G02*
X753000Y1305500I-10999J38458D01*
G01*
X710000D01*
G75*
G02*
X699000Y1307042I-1J40000D01*
G01*
G75*
G02*
X688000Y1305500I-10999J38458D01*
G01*
X645000D01*
G75*
G02*
X634000Y1307042I-1J40000D01*
G01*
G75*
G02*
X623000Y1305500I-10999J38458D01*
G01*
X580000D01*
G75*
G02*
X540000Y1345500I0J40000D01*
G01*
Y1458000D01*
X432500D01*
G37*
Y2113000D02*
G36*
X432500Y2113000D02*
Y1458000D01*
X540000D01*
Y1570500D01*
G75*
G02*
X580000Y1610500I40000J0D01*
G01*
X623000D01*
G75*
G02*
X634000Y1608958I1J-40000D01*
G01*
G75*
G02*
X645000Y1610500I10999J-38458D01*
G01*
X688000D01*
G75*
G02*
X699000Y1608958I1J-40000D01*
G01*
G75*
G02*
X710000Y1610500I10999J-38458D01*
G01*
X753000D01*
G75*
G02*
X764000Y1608958I1J-40000D01*
G01*
G75*
G02*
X775000Y1610500I10999J-38458D01*
G01*
X818000D01*
G75*
G02*
X829000Y1608958I1J-40000D01*
G01*
G75*
G02*
X840000Y1610500I10999J-38458D01*
G01*
X883000D01*
G75*
G02*
X894000Y1608958I1J-40000D01*
G01*
G75*
G02*
X905000Y1610500I10999J-38458D01*
G01*
X948000D01*
G75*
G02*
X959000Y1608958I1J-40000D01*
G01*
G75*
G02*
X970000Y1610500I10999J-38458D01*
G01*
X1013000D01*
G75*
G02*
X1024000Y1608958I1J-40000D01*
G01*
G75*
G02*
X1035000Y1610500I10999J-38458D01*
G01*
X1078000D01*
G75*
G02*
X1118000Y1570500I0J-40000D01*
G01*
Y1458000D01*
X1306638D01*
X1673199Y1824561D01*
G75*
G02*
X1712517Y1840740I39061J-39061D01*
G01*
X1778395D01*
G75*
G02*
X1904125Y1785500I50730J-55240D01*
G01*
G75*
G02*
X1778395Y1730260I-75000J0D01*
G01*
X1735142D01*
X1462882Y1458000D01*
X1963270D01*
G75*
G02*
X2002099Y1488391I38829J-9609D01*
G01*
X2071777D01*
G75*
G02*
X2057095Y1519359I25318J30968D01*
G01*
Y1651439D01*
G75*
G02*
X2097095Y1691439I40000J0D01*
G01*
X2196155D01*
G75*
G02*
X2236155Y1651439I0J-40000D01*
G01*
Y1519359D01*
G75*
G02*
X2221473Y1488391I-40000J0D01*
G01*
X2291151D01*
G75*
G02*
X2329980Y1458000I0J-40000D01*
G01*
X2344270D01*
G75*
G02*
X2383099Y1488391I38829J-9609D01*
G01*
X2452777D01*
G75*
G02*
X2438095Y1519359I25318J30968D01*
G01*
Y1651439D01*
G75*
G02*
X2478095Y1691439I40000J0D01*
G01*
X2577155D01*
G75*
G02*
X2617155Y1651439I0J-40000D01*
G01*
Y1519359D01*
G75*
G02*
X2602473Y1488391I-40000J0D01*
G01*
X2672151D01*
G75*
G02*
X2710980Y1458000I0J-40000D01*
G01*
X3243195D01*
G75*
G02*
X3230500Y1499750I62305J41750D01*
G01*
G75*
G02*
X3250260Y1550480I75000J0D01*
G01*
Y1764243D01*
X3155618Y1858885D01*
X2393480D01*
G75*
G02*
X2267750Y1914125I-50730J55240D01*
G01*
G75*
G02*
X2393480Y1969365I75000J0D01*
G01*
X3178243D01*
G75*
G02*
X3217561Y1953186I257J-55240D01*
G01*
X3344561Y1826186D01*
G75*
G02*
X3360741Y1787125I-39061J-39061D01*
G01*
X3360740Y1786868D01*
Y1550480D01*
G75*
G02*
X3380500Y1499750I-55240J-50730D01*
G01*
G75*
G02*
X3367805Y1458000I-75000J0D01*
G01*
X3427500D01*
Y2113000D01*
X3052689D01*
Y2101349D01*
G75*
G02*
X3012689Y2061349I-40000J0D01*
G01*
X2880609D01*
G75*
G02*
X2840609Y2101349I0J40000D01*
G01*
Y2113000D01*
X2173330D01*
G75*
G02*
X2174000Y2103000I-74330J-10003D01*
G01*
G75*
G02*
X2024000I-75000J0D01*
G01*
G75*
G02*
X2024670Y2113000I75000J-3D01*
G01*
X1973914D01*
X1968949Y2108035D01*
G75*
G02*
X1929452Y2097923I-28284J28284D01*
G01*
G75*
G02*
X1931056Y2086710I-38396J-11214D01*
G01*
G75*
G02*
X1919340Y2058426I-40000J0D01*
G01*
X1849294Y1988380D01*
G75*
G02*
X1792726I-28284J28284D01*
G01*
X1699332Y2081774D01*
G75*
G02*
X1687616Y2110059I28284J28285D01*
G01*
G75*
G02*
X1687724Y2113000I40000J4D01*
G01*
X1686761D01*
X1659319Y2085558D01*
G75*
G02*
X1691601Y2074043I3998J-39800D01*
G01*
X1784995Y1980649D01*
G75*
G02*
X1796711Y1952365I-28284J-28284D01*
G01*
G75*
G02*
X1784995Y1924081I-40000J0D01*
G01*
X1714949Y1854035D01*
G75*
G02*
X1658381I-28284J28284D01*
G01*
X1564987Y1947429D01*
G75*
G02*
X1553271Y1975713I28284J28284D01*
G01*
G75*
G02*
X1564987Y2003997I40000J0D01*
G01*
X1614259Y2053269D01*
G75*
G02*
X1581977Y2064784I-3998J39800D01*
G01*
X1533761Y2113000D01*
X1118000D01*
Y2000500D01*
G75*
G02*
X1078000Y1960500I-40000J0D01*
G01*
X1035000D01*
G75*
G02*
X1024000Y1962042I-1J40000D01*
G01*
G75*
G02*
X1013000Y1960500I-10999J38458D01*
G01*
X970000D01*
G75*
G02*
X959000Y1962042I-1J40000D01*
G01*
G75*
G02*
X948000Y1960500I-10999J38458D01*
G01*
X905000D01*
G75*
G02*
X894000Y1962042I-1J40000D01*
G01*
G75*
G02*
X883000Y1960500I-10999J38458D01*
G01*
X840000D01*
G75*
G02*
X829000Y1962042I-1J40000D01*
G01*
G75*
G02*
X818000Y1960500I-10999J38458D01*
G01*
X775000D01*
G75*
G02*
X764000Y1962042I-1J40000D01*
G01*
G75*
G02*
X753000Y1960500I-10999J38458D01*
G01*
X710000D01*
G75*
G02*
X699000Y1962042I-1J40000D01*
G01*
G75*
G02*
X688000Y1960500I-10999J38458D01*
G01*
X645000D01*
G75*
G02*
X634000Y1962042I-1J40000D01*
G01*
G75*
G02*
X623000Y1960500I-10999J38458D01*
G01*
X580000D01*
G75*
G02*
X540000Y2000500I0J40000D01*
G01*
Y2113000D01*
X432500D01*
G37*
X2849641Y2266023D02*
G36*
X2849641Y2266023D02*
Y2225727D01*
G75*
G02*
X2880609Y2240409I30968J-25318D01*
G01*
X3012689D01*
G75*
G02*
X3052689Y2200409I0J-40000D01*
G01*
Y2113000D01*
X3427500D01*
Y2442250D01*
X3044519D01*
G75*
G02*
X3025067Y2428438I-31830J24225D01*
G01*
G75*
G02*
X3052689Y2390401I-12379J-38037D01*
G01*
Y2291341D01*
G75*
G02*
X3012689Y2251341I-40000J0D01*
G01*
X2880609D01*
G75*
G02*
X2849641Y2266023I0J40000D01*
G01*
G37*
Y2996273D02*
G36*
X2849641Y2996273D02*
Y2955977D01*
G75*
G02*
X2880609Y2970659I30968J-25318D01*
G01*
X3012689D01*
G75*
G02*
X3052689Y2930659I0J-40000D01*
G01*
Y2831599D01*
G75*
G02*
X3025067Y2793563I-40000J1D01*
G01*
G75*
G02*
X3052689Y2755526I-12379J-38037D01*
G01*
Y2656466D01*
G75*
G02*
X3012689Y2616466I-40000J0D01*
G01*
X2880609D01*
G75*
G02*
X2849641Y2631148I0J40000D01*
G01*
Y2590852D01*
G75*
G02*
X2880609Y2605534I30968J-25318D01*
G01*
X3012689D01*
G75*
G02*
X3052689Y2565534I0J-40000D01*
G01*
Y2466474D01*
G75*
G02*
X3044519Y2442250I-40000J1D01*
G01*
X3427500D01*
Y2537838D01*
G75*
G02*
X3278125Y2547500I-74375J9662D01*
G01*
G75*
G02*
X3297885Y2598230I75000J0D01*
G01*
Y3080243D01*
X3280878Y3097250D01*
X3052689D01*
Y3021591D01*
G75*
G02*
X3012689Y2981591I-40000J0D01*
G01*
X2880609D01*
G75*
G02*
X2849641Y2996273I0J40000D01*
G01*
G37*
X3408365Y3097250D02*
G36*
X3408365Y3097250D02*
Y2598230D01*
G75*
G02*
X3427500Y2557162I-55240J-50730D01*
G01*
Y3097250D01*
X3408365D01*
G37*
X432500Y4506500D02*
G36*
X432500Y4506500D02*
Y3097250D01*
X540000D01*
Y3209750D01*
G75*
G02*
X580000Y3249750I40000J0D01*
G01*
X623000D01*
G75*
G02*
X634000Y3248208I1J-40000D01*
G01*
G75*
G02*
X645000Y3249750I10999J-38458D01*
G01*
X688000D01*
G75*
G02*
X699000Y3248208I1J-40000D01*
G01*
G75*
G02*
X710000Y3249750I10999J-38458D01*
G01*
X753000D01*
G75*
G02*
X764000Y3248208I1J-40000D01*
G01*
G75*
G02*
X775000Y3249750I10999J-38458D01*
G01*
X818000D01*
G75*
G02*
X829000Y3248208I1J-40000D01*
G01*
G75*
G02*
X840000Y3249750I10999J-38458D01*
G01*
X883000D01*
G75*
G02*
X894000Y3248208I1J-40000D01*
G01*
G75*
G02*
X905000Y3249750I10999J-38458D01*
G01*
X948000D01*
G75*
G02*
X959000Y3248208I1J-40000D01*
G01*
G75*
G02*
X970000Y3249750I10999J-38458D01*
G01*
X1013000D01*
G75*
G02*
X1024000Y3248208I1J-40000D01*
G01*
G75*
G02*
X1035000Y3249750I10999J-38458D01*
G01*
X1078000D01*
G75*
G02*
X1118000Y3209750I0J-40000D01*
G01*
Y3097250D01*
X2376003D01*
X2329814Y3143439D01*
G75*
G02*
X2313634Y3182500I39061J39061D01*
G01*
X2313635Y3182757D01*
Y3721993D01*
X2313634Y3722250D01*
G75*
G02*
X2329814Y3761311I55241J0D01*
G01*
X2389193Y3820690D01*
G75*
G02*
X2539125Y3817500I74932J-3190D01*
G01*
G75*
G02*
X2467315Y3742568I-75000J0D01*
G01*
X2424115Y3699368D01*
Y3522235D01*
X2456602Y3554722D01*
G75*
G02*
X2495875Y3571115I39273J-38848D01*
G01*
X2762645D01*
G75*
G02*
X2840609Y3585756I50730J-55240D01*
G01*
Y3615652D01*
G75*
G02*
X2809641Y3600970I-30968J25318D01*
G01*
X2677561D01*
G75*
G02*
X2637561Y3640970I0J40000D01*
G01*
Y3740030D01*
G75*
G02*
X2677561Y3780030I40000J0D01*
G01*
X2809641D01*
G75*
G02*
X2840609Y3765348I0J-40000D01*
G01*
Y3835026D01*
G75*
G02*
X2880609Y3875026I40000J0D01*
G01*
X2979753D01*
G75*
G02*
X2977332Y3885737I71744J21845D01*
G01*
X2931264Y3931805D01*
X2435025D01*
X2422567Y3919347D01*
G75*
G02*
X2379681Y3901680I-42653J42653D01*
G01*
X2124267D01*
G75*
G02*
X2018750Y3962000I-35517J60320D01*
G01*
G75*
G02*
X2124267Y4022320I70000J0D01*
G01*
X2300222D01*
G75*
G02*
X2413445Y4052445I68653J-30195D01*
G01*
X2956017D01*
G75*
G02*
X2998903Y4034778I233J-60320D01*
G01*
X3062638Y3971043D01*
G75*
G02*
X3126500Y3896875I-11138J-74168D01*
G01*
G75*
G02*
X3052689Y3821884I-75000J0D01*
G01*
Y3735966D01*
G75*
G02*
X3012689Y3695966I-40000J0D01*
G01*
X2880609D01*
G75*
G02*
X2849641Y3710648I0J40000D01*
G01*
Y3670352D01*
G75*
G02*
X2880609Y3685034I30968J-25318D01*
G01*
X3012689D01*
G75*
G02*
X3052689Y3645034I0J-40000D01*
G01*
Y3545974D01*
G75*
G02*
X3039034Y3515875I-40000J0D01*
G01*
G75*
G02*
X3052689Y3485776I-26345J-30099D01*
G01*
Y3386716D01*
G75*
G02*
X3052485Y3382686I-39999J5D01*
G01*
G75*
G02*
X3189932Y3344440I62515J-41436D01*
G01*
X3392186Y3142186D01*
G75*
G02*
X3408366Y3103125I-39061J-39061D01*
G01*
X3408365Y3102868D01*
Y3097250D01*
X3427500D01*
Y4506500D01*
X1831000D01*
Y4300502D01*
G75*
G02*
X1351000I-240000J0D01*
G01*
Y4506500D01*
X432500D01*
G37*
D02*
D13*
X1130625Y962375D02*
X1003625D01*
X1892625D02*
X1765625D01*
X2146625D02*
X2019625D01*
D02*
D14*
X796996Y1087000D02*
X1241496D01*
X1685996D01*
X1384625Y962375D02*
X1257625D01*
X1948700Y1118750D02*
X1916950Y1087000D01*
X1685996D01*
X2099000Y2103000D02*
Y2182375D01*
X2400625Y2484000D01*
X2368875Y3992125D02*
X2956250D01*
X3051500Y3896875D01*
X2368875Y3992125D02*
X2373582Y3987418D01*
X2405332D01*
X2379914Y3962000D01*
X2088750D01*
X2400625Y962375D02*
X2273625D01*
X2540500Y3357125D02*
Y2623875D01*
X2400625Y2484000D01*
X2654625Y962375D02*
X2527625D01*
D02*
D18*
X876625D02*
X749625D01*
X1638625D02*
X1511625D01*
X1829125Y1785500D02*
X1712260D01*
X1130625Y1203865D01*
X2342750Y1914125D02*
X3178500D01*
X3305500Y1787125D01*
Y1499750D01*
X2432375Y2690375D02*
X2434858Y2692857D01*
Y3116517D01*
X2368875Y3182500D01*
Y3722250D01*
X2464125Y3817500D01*
X2813375Y3515875D02*
X2495875D01*
X2432375Y3452375D01*
X3162625Y962375D02*
X3035625D01*
X3353125Y2547500D02*
Y3103125D01*
X3115000Y3341250D01*
D02*
D19*
X2908625Y962375D02*
X2781625D01*
D02*
D86*
X469500Y3660375D03*
X707625Y3374625D03*
X796996Y1087000D03*
X929875Y1199750D03*
Y1850625D03*
Y3374625D03*
Y3882625D03*
X1130625Y1203865D03*
X1241496Y1087000D03*
X1242581Y1588798D03*
X1247375Y2866625D03*
X1338006Y2647882D03*
Y2727192D03*
Y2805668D03*
X1358500Y2993625D03*
Y3247625D03*
Y3501625D03*
X1453750Y1961750D03*
X1676000Y3485750D03*
X1685996Y1087000D03*
X1829125Y1785500D03*
X1948700Y1118750D03*
X2099000Y2103000D03*
X2104625Y1104500D03*
X2295125Y3676250D03*
X2342750Y1104500D03*
Y1914125D03*
X2368875Y3992125D03*
X2400625Y2484000D03*
X2432375Y2690375D03*
X2464125Y3817500D03*
X2483232Y4153924D03*
X2540500Y3357125D03*
X2813375Y3515875D03*
X2834875Y4311250D03*
X3009500D03*
X3051500Y3896875D03*
X3115000Y3341250D03*
X3168250Y1485500D03*
X3305500Y1499750D03*
X3353125Y2547500D03*
D02*
D87*
X2088750Y3962000D03*
X2432375Y3452375D03*
D02*
D92*
X1591000Y4438001D03*
X2162500D03*
D02*
D96*
X749625Y862375D03*
Y962375D03*
X876625Y862375D03*
Y962375D03*
X1003625Y862375D03*
Y962375D03*
X1130625Y862375D03*
Y962375D03*
X1257625Y862375D03*
Y962375D03*
X1384625Y862375D03*
Y962375D03*
X1511625Y862375D03*
Y962375D03*
X1638625Y862375D03*
Y962375D03*
X1765625Y862375D03*
Y962375D03*
X1892625Y862375D03*
Y962375D03*
X2019625Y862375D03*
Y962375D03*
X2146625Y862375D03*
Y962375D03*
X2273625Y862375D03*
Y962375D03*
X2400625Y862375D03*
Y962375D03*
X2527625Y862375D03*
Y962375D03*
X2654625Y862375D03*
Y962375D03*
X2781625Y862375D03*
Y962375D03*
X2908625Y862375D03*
Y962375D03*
X3035625Y862375D03*
Y962375D03*
X3162625Y862375D03*
Y962375D03*
D02*
D97*
X601500Y1458000D03*
Y2113000D03*
Y2442250D03*
Y3097250D03*
X666500Y1458000D03*
Y2113000D03*
Y2442250D03*
Y3097250D03*
X731500Y1458000D03*
Y2113000D03*
Y2442250D03*
Y3097250D03*
X796500Y1458000D03*
Y2113000D03*
Y2442250D03*
Y3097250D03*
X861500Y1458000D03*
Y2113000D03*
Y2442250D03*
Y3097250D03*
X926500Y1458000D03*
Y2113000D03*
Y2442250D03*
Y3097250D03*
X991500Y1458000D03*
Y2113000D03*
Y2442250D03*
Y3097250D03*
X1056500Y1458000D03*
Y2113000D03*
Y2442250D03*
Y3097250D03*
D02*
D98*
X2743601Y2245875D03*
Y2611000D03*
Y2976125D03*
Y3341250D03*
Y3690500D03*
X2946649Y2150879D03*
Y2340871D03*
Y2516004D03*
Y2705996D03*
Y2881129D03*
Y3071121D03*
Y3246254D03*
Y3436246D03*
Y3595504D03*
Y3785496D03*
D02*
D99*
X1598587Y2174788D03*
X1674991Y1964039D03*
X1809336Y2098384D03*
X1852587Y2428788D03*
X1928991Y2218039D03*
X2063336Y2352384D03*
X2106587Y2682788D03*
X2182991Y2472039D03*
X2317336Y2606384D03*
D02*
D100*
X2051629Y1382351D03*
X2146625Y1585399D03*
X2241621Y1382351D03*
X2432629D03*
X2527625Y1585399D03*
X2622621Y1382351D03*
X0Y0D02*
M02*
