G04 GENERATED BY PULSONIX 12.5 GERBER.DLL 9449*
G04 #@! TF.GenerationSoftware,Pulsonix,Pulsonix,12.5.9449*
G04 #@! TF.CreationDate,2024-02-09T14:36:55--1:00*
G04 #@! TF.Part,Single*
%FSLAX35Y35*%
%LPD*%
%MOMM*%
G04 #@! TF.FileFunction,Legend,Top*
G04 #@! TF.FilePolarity,Positive*
G04 #@! TA.AperFunction,Profile*
%ADD96C,0.30000*%
G04 #@! TA.AperFunction,Material*
%ADD97C,0.20000*%
%ADD98C,0.20320*%
G04 #@! TD.AperFunction*
%ADD99C,0.45000*%
%ADD100C,0.00001*%
G04 #@! TD.AperFunction*
X0Y0D02*
D02*
D96*
X342500Y4596500D02*
X3517500D01*
Y496500D01*
X342500D01*
Y4596500D01*
D02*
D97*
X876625Y896500D02*
Y1007625D01*
X3517500D01*
Y496500D01*
X342500D01*
Y896500D01*
X876625D01*
G36*
X876625Y896500D02*
Y1007625D01*
X3517500D01*
Y496500D01*
X342500D01*
Y896500D01*
X876625D01*
G37*
X3024500Y2435000D02*
X2824500D01*
G75*
G02*
X3024500I100000J0D01*
G01*
Y3387500D02*
X2824500D01*
G75*
G02*
X3024500I100000J0D01*
G01*
X3124500Y2435000D02*
X2724500D01*
Y3295000D01*
X3124500D01*
Y2435000D01*
Y3387500D02*
X2724500D01*
Y4247500D01*
X3124500D01*
Y3387500D01*
D02*
D98*
X529280Y1633100D02*
Y1810900D01*
X874720D01*
Y1633100D01*
X529280D01*
Y2141100D02*
Y2318900D01*
X874720D01*
Y2141100D01*
X529280D01*
Y2649100D02*
Y2826900D01*
X874720D01*
Y2649100D01*
X529280D01*
Y3157100D02*
Y3334900D01*
X874720D01*
Y3157100D01*
X529280D01*
Y3665100D02*
Y3842900D01*
X874720D01*
Y3665100D01*
X529280D01*
X547009Y1403179D02*
Y1278821D01*
X668218Y1251008D02*
X735782D01*
X856991Y1278821D02*
Y1403179D01*
Y1371480D02*
G75*
G03*
Y1310520I0J-30480D01*
G01*
X874720Y2064900D02*
Y1887100D01*
X529280D01*
Y2064900D01*
X874720D01*
Y2572900D02*
Y2395100D01*
X529280D01*
Y2572900D01*
X874720D01*
Y3080900D02*
Y2903100D01*
X529280D01*
Y3080900D01*
X874720D01*
Y3588900D02*
Y3411100D01*
X529280D01*
Y3588900D01*
X874720D01*
Y4096900D02*
Y3919100D01*
X529280D01*
Y4096900D01*
X874720D01*
X973780Y1633100D02*
Y1810900D01*
X1319220D01*
Y1633100D01*
X973780D01*
Y2141100D02*
Y2318900D01*
X1319220D01*
Y2141100D01*
X973780D01*
Y2649100D02*
Y2826900D01*
X1319220D01*
Y2649100D01*
X973780D01*
Y3157100D02*
Y3334900D01*
X1319220D01*
Y3157100D01*
X973780D01*
Y3665100D02*
Y3842900D01*
X1319220D01*
Y3665100D01*
X973780D01*
X991509Y1403179D02*
Y1278821D01*
X1112718Y1251008D02*
X1180282D01*
X1301491Y1278821D02*
Y1403179D01*
Y1371480D02*
G75*
G03*
Y1310520I0J-30480D01*
G01*
X1319220Y2064900D02*
Y1887100D01*
X973780D01*
Y2064900D01*
X1319220D01*
Y2572900D02*
Y2395100D01*
X973780D01*
Y2572900D01*
X1319220D01*
Y3080900D02*
Y2903100D01*
X973780D01*
Y3080900D01*
X1319220D01*
Y3588900D02*
Y3411100D01*
X973780D01*
Y3588900D01*
X1319220D01*
Y4096900D02*
Y3919100D01*
X973780D01*
Y4096900D01*
X1319220D01*
X1436009Y1403179D02*
Y1278821D01*
X1519790Y2370690D02*
Y2505310D01*
X1832210D01*
Y2370690D01*
X1519790D01*
Y2751690D02*
Y2886310D01*
X1832210D01*
Y2751690D01*
X1519790D01*
Y3132690D02*
Y3267310D01*
X1832210D01*
Y3132690D01*
X1519790D01*
Y3513690D02*
Y3648310D01*
X1832210D01*
Y3513690D01*
X1519790D01*
Y3894690D02*
Y4029310D01*
X1832210D01*
Y3894690D01*
X1519790D01*
X1557218Y1251008D02*
X1624782D01*
X1745991Y1278821D02*
Y1403179D01*
Y1371480D02*
G75*
G03*
Y1310520I0J-30480D01*
G01*
X1832210Y2314810D02*
Y2180190D01*
X1519790D01*
Y2314810D01*
X1832210D01*
Y2695810D02*
Y2561190D01*
X1519790D01*
Y2695810D01*
X1832210D01*
Y3076810D02*
Y2942190D01*
X1519790D01*
Y3076810D01*
X1832210D01*
Y3457810D02*
Y3323190D01*
X1519790D01*
Y3457810D01*
X1832210D01*
Y3838810D02*
Y3704190D01*
X1519790D01*
Y3838810D01*
X1832210D01*
X1866590Y1169550D02*
Y1385450D01*
X2331410D01*
Y1169550D01*
X1866590D01*
Y1423550D02*
Y1639450D01*
X2331410D01*
Y1423550D01*
X1866590D01*
Y1677550D02*
Y1893450D01*
X2331410D01*
Y1677550D01*
X1866590D01*
Y1931550D02*
Y2147450D01*
X2331410D01*
Y1931550D01*
X1866590D01*
X1942790Y2370690D02*
Y2505310D01*
X2255210D01*
Y2370690D01*
X1942790D01*
Y2751690D02*
Y2886310D01*
X2255210D01*
Y2751690D01*
X1942790D01*
Y3132690D02*
Y3267310D01*
X2255210D01*
Y3132690D01*
X1942790D01*
Y3513690D02*
Y3648310D01*
X2255210D01*
Y3513690D01*
X1942790D01*
Y3894690D02*
Y4029310D01*
X2255210D01*
Y3894690D01*
X1942790D01*
X2255210Y2314810D02*
Y2180190D01*
X1942790D01*
Y2314810D01*
X2255210D01*
Y2695810D02*
Y2561190D01*
X1942790D01*
Y2695810D01*
X2255210D01*
Y3076810D02*
Y2942190D01*
X1942790D01*
Y3076810D01*
X2255210D01*
Y3457810D02*
Y3323190D01*
X1942790D01*
Y3457810D01*
X2255210D01*
Y3838810D02*
Y3704190D01*
X1942790D01*
Y3838810D01*
X2255210D01*
X2435550Y2398910D02*
X2651450D01*
Y1934090D01*
X2435550D01*
Y2398910D01*
X2468500Y1377500D02*
Y1177500D01*
Y1822000D02*
Y1622000D01*
X2543500Y1252500D02*
X2593500Y1302500D01*
X2493500D01*
X2543500Y1252500D01*
Y1697000D02*
X2593500Y1747000D01*
X2493500D01*
X2543500Y1697000D01*
X2618500Y1377500D02*
Y1177500D01*
Y1822000D02*
Y1622000D01*
X2689550Y2398910D02*
X2905450D01*
Y1934090D01*
X2689550D01*
Y2398910D01*
X2722500Y1377500D02*
Y1177500D01*
Y1822000D02*
Y1622000D01*
X2797500Y1252500D02*
X2847500Y1302500D01*
X2747500D01*
X2797500Y1252500D01*
Y1697000D02*
X2847500Y1747000D01*
X2747500D01*
X2797500Y1697000D01*
X2872500Y1377500D02*
Y1177500D01*
Y1822000D02*
Y1622000D01*
X2943550Y2398910D02*
X3159450D01*
Y1934090D01*
X2943550D01*
Y2398910D01*
X2976500Y1377500D02*
Y1177500D01*
Y1822000D02*
Y1622000D01*
X3051500Y1252500D02*
X3101500Y1302500D01*
X3001500D01*
X3051500Y1252500D01*
Y1697000D02*
X3101500Y1747000D01*
X3001500D01*
X3051500Y1697000D01*
X3126500Y1377500D02*
Y1177500D01*
Y1822000D02*
Y1622000D01*
X3197550Y2398910D02*
X3413450D01*
Y1934090D01*
X3197550D01*
Y2398910D01*
X3230500Y1377500D02*
Y1177500D01*
Y1822000D02*
Y1622000D01*
X3305500Y1252500D02*
X3355500Y1302500D01*
X3255500D01*
X3305500Y1252500D01*
Y1697000D02*
X3355500Y1747000D01*
X3255500D01*
X3305500Y1697000D01*
X3380500Y1377500D02*
Y1177500D01*
Y1822000D02*
Y1622000D01*
D02*
D99*
X1241750Y4430088D02*
X1361279Y4430088D01*
X1301515Y4370324D02*
X1301515Y4489853D01*
X2448250Y4398338D02*
X2567779Y4398338D01*
D02*
D100*
X574104Y4201040D02*
Y4161611D01*
X575936D01*
X577522Y4161367D01*
X578621Y4161123D01*
X579354Y4160757D01*
X580086Y4160024D01*
X580574Y4159170D01*
X580940Y4158193D01*
X581063Y4157095D01*
X580940Y4155874D01*
X580696Y4154775D01*
X580086Y4153921D01*
X579476Y4153311D01*
X578987Y4153066D01*
X578499Y4152822D01*
X577889Y4152578D01*
X577156Y4152456D01*
X576180Y4152334D01*
X575203Y4152212D01*
X573982D01*
X572762D01*
X563118D01*
X561165D01*
X559578Y4152456D01*
X558357Y4152822D01*
X557381Y4153311D01*
X556771Y4153921D01*
X556282Y4154775D01*
X555916Y4155752D01*
Y4156973D01*
X556038Y4158315D01*
X556404Y4159292D01*
X556893Y4160269D01*
X557747Y4161001D01*
X558724Y4161367D01*
X559944Y4161611D01*
X561409Y4161733D01*
X563118Y4161855D01*
X563851D01*
Y4174551D01*
X542000D01*
Y4161855D01*
X543709D01*
X545052Y4161733D01*
X546272Y4161611D01*
X547371Y4161245D01*
X548226Y4160757D01*
X549080Y4160024D01*
X549568Y4159170D01*
X549935Y4158193D01*
X550057Y4157095D01*
X549935Y4155874D01*
X549690Y4154775D01*
X549202Y4153921D01*
X548592Y4153311D01*
X547737Y4152822D01*
X546517Y4152456D01*
X545052Y4152212D01*
X543343D01*
X531014D01*
X529427D01*
X527962Y4152456D01*
X526863Y4152944D01*
X526131Y4153433D01*
X525521Y4154165D01*
X525154Y4155020D01*
X524910Y4155996D01*
X524788Y4157095D01*
X524910Y4158315D01*
X525276Y4159292D01*
X525765Y4160146D01*
X526375Y4160757D01*
X527229Y4161123D01*
X528328Y4161367D01*
X529915Y4161611D01*
X531746D01*
Y4201040D01*
X529915Y4201162D01*
X528328Y4201406D01*
X527229Y4201772D01*
X526375Y4202139D01*
X525765Y4202749D01*
X525276Y4203604D01*
X524910Y4204702D01*
X524788Y4205923D01*
X524910Y4207021D01*
X525154Y4207998D01*
X525521Y4208730D01*
X526131Y4209463D01*
X526985Y4210073D01*
X528084Y4210439D01*
X529549Y4210684D01*
X531258D01*
X542854D01*
X544808D01*
X546272Y4210439D01*
X547493Y4210195D01*
X548348Y4209707D01*
X549080Y4209097D01*
X549690Y4208242D01*
X549935Y4207144D01*
X550057Y4205923D01*
X549935Y4204702D01*
X549568Y4203604D01*
X548958Y4202749D01*
X548104Y4202017D01*
X547127Y4201650D01*
X545906Y4201284D01*
X544319Y4201162D01*
X542610Y4201040D01*
X542000D01*
Y4183828D01*
X563851D01*
Y4201040D01*
X562142D01*
X560677Y4201162D01*
X559456Y4201406D01*
X558479Y4201650D01*
X557625Y4202139D01*
X556771Y4202871D01*
X556282Y4203726D01*
X556038Y4204702D01*
X555916Y4205923D01*
X556038Y4207144D01*
X556282Y4208242D01*
X556771Y4209097D01*
X557625Y4209707D01*
X558479Y4210195D01*
X559700Y4210439D01*
X561409Y4210684D01*
X563606D01*
X574715D01*
X576424D01*
X577767Y4210439D01*
X578865Y4210073D01*
X579720Y4209463D01*
X580330Y4208730D01*
X580696Y4207998D01*
X580940Y4207021D01*
X581063Y4205923D01*
X580940Y4204702D01*
X580696Y4203726D01*
X580086Y4202871D01*
X579476Y4202139D01*
X578621Y4201772D01*
X577522Y4201406D01*
X575936Y4201162D01*
X574104Y4201040D01*
G36*
X574104Y4201040D02*
Y4161611D01*
X575936D01*
X577522Y4161367D01*
X578621Y4161123D01*
X579354Y4160757D01*
X580086Y4160024D01*
X580574Y4159170D01*
X580940Y4158193D01*
X581063Y4157095D01*
X580940Y4155874D01*
X580696Y4154775D01*
X580086Y4153921D01*
X579476Y4153311D01*
X578987Y4153066D01*
X578499Y4152822D01*
X577889Y4152578D01*
X577156Y4152456D01*
X576180Y4152334D01*
X575203Y4152212D01*
X573982D01*
X572762D01*
X563118D01*
X561165D01*
X559578Y4152456D01*
X558357Y4152822D01*
X557381Y4153311D01*
X556771Y4153921D01*
X556282Y4154775D01*
X555916Y4155752D01*
Y4156973D01*
X556038Y4158315D01*
X556404Y4159292D01*
X556893Y4160269D01*
X557747Y4161001D01*
X558724Y4161367D01*
X559944Y4161611D01*
X561409Y4161733D01*
X563118Y4161855D01*
X563851D01*
Y4174551D01*
X542000D01*
Y4161855D01*
X543709D01*
X545052Y4161733D01*
X546272Y4161611D01*
X547371Y4161245D01*
X548226Y4160757D01*
X549080Y4160024D01*
X549568Y4159170D01*
X549935Y4158193D01*
X550057Y4157095D01*
X549935Y4155874D01*
X549690Y4154775D01*
X549202Y4153921D01*
X548592Y4153311D01*
X547737Y4152822D01*
X546517Y4152456D01*
X545052Y4152212D01*
X543343D01*
X531014D01*
X529427D01*
X527962Y4152456D01*
X526863Y4152944D01*
X526131Y4153433D01*
X525521Y4154165D01*
X525154Y4155020D01*
X524910Y4155996D01*
X524788Y4157095D01*
X524910Y4158315D01*
X525276Y4159292D01*
X525765Y4160146D01*
X526375Y4160757D01*
X527229Y4161123D01*
X528328Y4161367D01*
X529915Y4161611D01*
X531746D01*
Y4201040D01*
X529915Y4201162D01*
X528328Y4201406D01*
X527229Y4201772D01*
X526375Y4202139D01*
X525765Y4202749D01*
X525276Y4203604D01*
X524910Y4204702D01*
X524788Y4205923D01*
X524910Y4207021D01*
X525154Y4207998D01*
X525521Y4208730D01*
X526131Y4209463D01*
X526985Y4210073D01*
X528084Y4210439D01*
X529549Y4210684D01*
X531258D01*
X542854D01*
X544808D01*
X546272Y4210439D01*
X547493Y4210195D01*
X548348Y4209707D01*
X549080Y4209097D01*
X549690Y4208242D01*
X549935Y4207144D01*
X550057Y4205923D01*
X549935Y4204702D01*
X549568Y4203604D01*
X548958Y4202749D01*
X548104Y4202017D01*
X547127Y4201650D01*
X545906Y4201284D01*
X544319Y4201162D01*
X542610Y4201040D01*
X542000D01*
Y4183828D01*
X563851D01*
Y4201040D01*
X562142D01*
X560677Y4201162D01*
X559456Y4201406D01*
X558479Y4201650D01*
X557625Y4202139D01*
X556771Y4202871D01*
X556282Y4203726D01*
X556038Y4204702D01*
X555916Y4205923D01*
X556038Y4207144D01*
X556282Y4208242D01*
X556771Y4209097D01*
X557625Y4209707D01*
X558479Y4210195D01*
X559700Y4210439D01*
X561409Y4210684D01*
X563606D01*
X574715D01*
X576424D01*
X577767Y4210439D01*
X578865Y4210073D01*
X579720Y4209463D01*
X580330Y4208730D01*
X580696Y4207998D01*
X580940Y4207021D01*
X581063Y4205923D01*
X580940Y4204702D01*
X580696Y4203726D01*
X580086Y4202871D01*
X579476Y4202139D01*
X578621Y4201772D01*
X577522Y4201406D01*
X575936Y4201162D01*
X574104Y4201040D01*
G37*
X635994Y4157705D02*
X635872Y4156606D01*
X635628Y4155630D01*
X635140Y4154897D01*
X634529Y4154165D01*
X633675Y4153555D01*
X632820Y4153188D01*
X631844Y4152944D01*
X630623D01*
X623421D01*
X622566D01*
X621712Y4153188D01*
X620979Y4153555D01*
X620247Y4153921D01*
X619271Y4155386D01*
X618660Y4157339D01*
X617195Y4156240D01*
X615486Y4155264D01*
X613899Y4154409D01*
X612068Y4153677D01*
X609749Y4152822D01*
X607430Y4152212D01*
X604988Y4151846D01*
X602425Y4151724D01*
X600594Y4151846D01*
X598885Y4151968D01*
X597298Y4152334D01*
X595711Y4152822D01*
X594246Y4153433D01*
X592781Y4154165D01*
X591561Y4155020D01*
X590340Y4155996D01*
X589241Y4157095D01*
X588265Y4158315D01*
X587410Y4159536D01*
X586800Y4160879D01*
X586312Y4162344D01*
X585945Y4163809D01*
X585701Y4165396D01*
X585579Y4166982D01*
X585701Y4168936D01*
X585945Y4170889D01*
X586434Y4172598D01*
X587166Y4174185D01*
X588021Y4175771D01*
X589119Y4177114D01*
X590462Y4178457D01*
X591927Y4179556D01*
X593514Y4180532D01*
X595223Y4181509D01*
X597054Y4182241D01*
X599007Y4182852D01*
X601082Y4183218D01*
X603401Y4183584D01*
X605843Y4183828D01*
X608406D01*
X611214D01*
X614021Y4183584D01*
X617928Y4182974D01*
X617684Y4184561D01*
X617195Y4185903D01*
X616585Y4187124D01*
X615730Y4188101D01*
X614632Y4188955D01*
X613045Y4189687D01*
X611214Y4190054D01*
X609017Y4190176D01*
X607430Y4190054D01*
X605599Y4189687D01*
X603646Y4189199D01*
X601570Y4188345D01*
X599373Y4187490D01*
X597664Y4186880D01*
X596199Y4186514D01*
X595101Y4186392D01*
X594124Y4186514D01*
X593270Y4186758D01*
X592415Y4187246D01*
X591805Y4187856D01*
X591194Y4188711D01*
X590828Y4189565D01*
X590584Y4190664D01*
X590462Y4191763D01*
X590584Y4192617D01*
X590828Y4193594D01*
X591316Y4194326D01*
X592049Y4195181D01*
X592903Y4195913D01*
X594002Y4196523D01*
X595223Y4197134D01*
X596688Y4197744D01*
X599495Y4198599D01*
X602791Y4199209D01*
X606331Y4199575D01*
X610359Y4199697D01*
X612435Y4199575D01*
X614388Y4199331D01*
X616219Y4199087D01*
X617928Y4198477D01*
X619515Y4197866D01*
X620979Y4197134D01*
X622322Y4196157D01*
X623543Y4195181D01*
X624642Y4193960D01*
X625618Y4192617D01*
X626351Y4191152D01*
X626961Y4189565D01*
X627571Y4187856D01*
X627815Y4186025D01*
X628060Y4184072D01*
X628182Y4181875D01*
Y4162466D01*
X628914D01*
X630623Y4162344D01*
X632088Y4162222D01*
X633187Y4161978D01*
X634163Y4161611D01*
X634896Y4160879D01*
X635506Y4160024D01*
X635872Y4159048D01*
X635994Y4157705D01*
X614266Y4174551D02*
X612068Y4174795D01*
X609749Y4174917D01*
X606575Y4174673D01*
X603890Y4174307D01*
X601448Y4173696D01*
X599373Y4172720D01*
X597908Y4171621D01*
X596932Y4170400D01*
X596199Y4169058D01*
X596077Y4167593D01*
X596199Y4166372D01*
X596565Y4165396D01*
X597176Y4164541D01*
X598030Y4163687D01*
X599129Y4162832D01*
X600472Y4162344D01*
X601937Y4161978D01*
X603523Y4161855D01*
X606209Y4161978D01*
X608772Y4162588D01*
X611336Y4163442D01*
X613655Y4164785D01*
X614632Y4165396D01*
X615486Y4166006D01*
X616219Y4166738D01*
X616829Y4167349D01*
X617317Y4167959D01*
X617684Y4168569D01*
X617806Y4169180D01*
X617928Y4169790D01*
Y4173818D01*
X614266Y4174551D01*
X585667Y4168386D02*
G36*
X585667Y4168386D02*
X596143D01*
X596199Y4169058D01*
X596932Y4170400D01*
X597908Y4171621D01*
X599373Y4172720D01*
X601448Y4173696D01*
X603890Y4174307D01*
X606575Y4174673D01*
X609749Y4174917D01*
X612068Y4174795D01*
X614266Y4174551D01*
X617928Y4173818D01*
Y4169790D01*
X617806Y4169180D01*
X617684Y4168569D01*
X617574Y4168386D01*
X628182D01*
Y4181875D01*
X628060Y4184072D01*
X627815Y4186025D01*
X627571Y4187856D01*
X626961Y4189565D01*
X626351Y4191152D01*
X625618Y4192617D01*
X624642Y4193960D01*
X623543Y4195181D01*
X622322Y4196157D01*
X620979Y4197134D01*
X619515Y4197866D01*
X617928Y4198477D01*
X616219Y4199087D01*
X614388Y4199331D01*
X612435Y4199575D01*
X610359Y4199697D01*
X606331Y4199575D01*
X602791Y4199209D01*
X599495Y4198599D01*
X596688Y4197744D01*
X595223Y4197134D01*
X594002Y4196523D01*
X592903Y4195913D01*
X592049Y4195181D01*
X591316Y4194326D01*
X590828Y4193594D01*
X590584Y4192617D01*
X590462Y4191763D01*
X590584Y4190664D01*
X590828Y4189565D01*
X591194Y4188711D01*
X591805Y4187856D01*
X592415Y4187246D01*
X593270Y4186758D01*
X594124Y4186514D01*
X595101Y4186392D01*
X596199Y4186514D01*
X597664Y4186880D01*
X599373Y4187490D01*
X601570Y4188345D01*
X603646Y4189199D01*
X605599Y4189687D01*
X607430Y4190054D01*
X609017Y4190176D01*
X611214Y4190054D01*
X613045Y4189687D01*
X614632Y4188955D01*
X615730Y4188101D01*
X616585Y4187124D01*
X617195Y4185903D01*
X617684Y4184561D01*
X617928Y4182974D01*
X614021Y4183584D01*
X611214Y4183828D01*
X608406D01*
X605843D01*
X603401Y4183584D01*
X601082Y4183218D01*
X599007Y4182852D01*
X597054Y4182241D01*
X595223Y4181509D01*
X593514Y4180532D01*
X591927Y4179556D01*
X590462Y4178457D01*
X589119Y4177114D01*
X588021Y4175771D01*
X587166Y4174185D01*
X586434Y4172598D01*
X585945Y4170889D01*
X585701Y4168936D01*
X585667Y4168386D01*
G37*
X585579Y4166982D02*
G36*
X585579Y4166982D02*
X585701Y4165396D01*
X585945Y4163809D01*
X586312Y4162344D01*
X586800Y4160879D01*
X587410Y4159536D01*
X588265Y4158315D01*
X589241Y4157095D01*
X590340Y4155996D01*
X591561Y4155020D01*
X592781Y4154165D01*
X594246Y4153433D01*
X595711Y4152822D01*
X597298Y4152334D01*
X598885Y4151968D01*
X600594Y4151846D01*
X602425Y4151724D01*
X604988Y4151846D01*
X607430Y4152212D01*
X609749Y4152822D01*
X612068Y4153677D01*
X613899Y4154409D01*
X615486Y4155264D01*
X617195Y4156240D01*
X618660Y4157339D01*
X619271Y4155386D01*
X620247Y4153921D01*
X620979Y4153555D01*
X621712Y4153188D01*
X622566Y4152944D01*
X623421D01*
X630623D01*
X631844D01*
X632820Y4153188D01*
X633675Y4153555D01*
X634529Y4154165D01*
X635140Y4154897D01*
X635628Y4155630D01*
X635872Y4156606D01*
X635994Y4157705D01*
X635872Y4159048D01*
X635506Y4160024D01*
X634896Y4160879D01*
X634163Y4161611D01*
X633187Y4161978D01*
X632088Y4162222D01*
X630623Y4162344D01*
X628914Y4162466D01*
X628182D01*
Y4168386D01*
X617574D01*
X617317Y4167959D01*
X616829Y4167349D01*
X616219Y4166738D01*
X615486Y4166006D01*
X614632Y4165396D01*
X613655Y4164785D01*
X611336Y4163442D01*
X608772Y4162588D01*
X606209Y4161978D01*
X603523Y4161855D01*
X601937Y4161978D01*
X600472Y4162344D01*
X599129Y4162832D01*
X598030Y4163687D01*
X597176Y4164541D01*
X596565Y4165396D01*
X596199Y4166372D01*
X596077Y4167593D01*
X596143Y4168386D01*
X585667D01*
X585579Y4166982D01*
G37*
X694222Y4205923D02*
X694100Y4204702D01*
X693733Y4203604D01*
X693245Y4202749D01*
X692513Y4202017D01*
X691658Y4201650D01*
X690560Y4201284D01*
X689095Y4201162D01*
X687264Y4201040D01*
X682869D01*
Y4172964D01*
X682747Y4170278D01*
X682503Y4167837D01*
X682137Y4165518D01*
X681648Y4163320D01*
X680916Y4161367D01*
X680062Y4159658D01*
X679085Y4158071D01*
X677986Y4156729D01*
X676644Y4155508D01*
X675057Y4154531D01*
X673470Y4153555D01*
X671517Y4152822D01*
X669563Y4152334D01*
X667244Y4151846D01*
X664925Y4151602D01*
X662361D01*
X660042D01*
X657845Y4151846D01*
X655770Y4152090D01*
X653694Y4152578D01*
X651741Y4153066D01*
X649666Y4153921D01*
X647591Y4154775D01*
X645516Y4155874D01*
X644539Y4156362D01*
X643807Y4156973D01*
X643196Y4157461D01*
X642830Y4158071D01*
X642586Y4158804D01*
X642342Y4159658D01*
X642220Y4160757D01*
Y4161978D01*
Y4172842D01*
Y4174673D01*
X642464Y4176016D01*
X642708Y4177114D01*
X643196Y4177847D01*
X643807Y4178457D01*
X644661Y4178945D01*
X645516Y4179189D01*
X646492Y4179312D01*
X648079Y4179067D01*
X649300Y4178579D01*
X650398Y4177725D01*
X651009Y4176504D01*
X651253Y4175894D01*
X651497Y4175161D01*
Y4174673D01*
X651619Y4174062D01*
Y4173452D01*
Y4172598D01*
Y4172109D01*
X651741Y4169546D01*
X652107Y4167227D01*
X652596Y4165762D01*
X653450Y4164419D01*
X654305Y4163320D01*
X655403Y4162222D01*
X656868Y4161489D01*
X658333Y4160879D01*
X660042Y4160635D01*
X661873Y4160513D01*
X664559Y4160635D01*
X666756Y4161245D01*
X668587Y4162222D01*
X670052Y4163564D01*
X670540Y4164419D01*
X671150Y4165273D01*
X671517Y4166494D01*
X671883Y4167715D01*
X672127Y4169180D01*
X672371Y4170645D01*
X672493Y4172354D01*
Y4174185D01*
Y4201040D01*
X665779D01*
X663826Y4201162D01*
X662361Y4201284D01*
X661263Y4201650D01*
X660408Y4202017D01*
X659676Y4202749D01*
X659065Y4203604D01*
X658821Y4204702D01*
X658699Y4205923D01*
Y4207021D01*
X658943Y4207998D01*
X659432Y4208730D01*
X659920Y4209463D01*
X660652Y4210073D01*
X661507Y4210439D01*
X662483Y4210684D01*
X663582D01*
X689461D01*
X690560D01*
X691536Y4210439D01*
X692269Y4209951D01*
X693001Y4209341D01*
X693489Y4208608D01*
X693855Y4207876D01*
X694100Y4206899D01*
X694222Y4205923D01*
G36*
X694222Y4205923D02*
X694100Y4204702D01*
X693733Y4203604D01*
X693245Y4202749D01*
X692513Y4202017D01*
X691658Y4201650D01*
X690560Y4201284D01*
X689095Y4201162D01*
X687264Y4201040D01*
X682869D01*
Y4172964D01*
X682747Y4170278D01*
X682503Y4167837D01*
X682137Y4165518D01*
X681648Y4163320D01*
X680916Y4161367D01*
X680062Y4159658D01*
X679085Y4158071D01*
X677986Y4156729D01*
X676644Y4155508D01*
X675057Y4154531D01*
X673470Y4153555D01*
X671517Y4152822D01*
X669563Y4152334D01*
X667244Y4151846D01*
X664925Y4151602D01*
X662361D01*
X660042D01*
X657845Y4151846D01*
X655770Y4152090D01*
X653694Y4152578D01*
X651741Y4153066D01*
X649666Y4153921D01*
X647591Y4154775D01*
X645516Y4155874D01*
X644539Y4156362D01*
X643807Y4156973D01*
X643196Y4157461D01*
X642830Y4158071D01*
X642586Y4158804D01*
X642342Y4159658D01*
X642220Y4160757D01*
Y4161978D01*
Y4172842D01*
Y4174673D01*
X642464Y4176016D01*
X642708Y4177114D01*
X643196Y4177847D01*
X643807Y4178457D01*
X644661Y4178945D01*
X645516Y4179189D01*
X646492Y4179312D01*
X648079Y4179067D01*
X649300Y4178579D01*
X650398Y4177725D01*
X651009Y4176504D01*
X651253Y4175894D01*
X651497Y4175161D01*
Y4174673D01*
X651619Y4174062D01*
Y4173452D01*
Y4172598D01*
Y4172109D01*
X651741Y4169546D01*
X652107Y4167227D01*
X652596Y4165762D01*
X653450Y4164419D01*
X654305Y4163320D01*
X655403Y4162222D01*
X656868Y4161489D01*
X658333Y4160879D01*
X660042Y4160635D01*
X661873Y4160513D01*
X664559Y4160635D01*
X666756Y4161245D01*
X668587Y4162222D01*
X670052Y4163564D01*
X670540Y4164419D01*
X671150Y4165273D01*
X671517Y4166494D01*
X671883Y4167715D01*
X672127Y4169180D01*
X672371Y4170645D01*
X672493Y4172354D01*
Y4174185D01*
Y4201040D01*
X665779D01*
X663826Y4201162D01*
X662361Y4201284D01*
X661263Y4201650D01*
X660408Y4202017D01*
X659676Y4202749D01*
X659065Y4203604D01*
X658821Y4204702D01*
X658699Y4205923D01*
Y4207021D01*
X658943Y4207998D01*
X659432Y4208730D01*
X659920Y4209463D01*
X660652Y4210073D01*
X661507Y4210439D01*
X662483Y4210684D01*
X663582D01*
X689461D01*
X690560D01*
X691536Y4210439D01*
X692269Y4209951D01*
X693001Y4209341D01*
X693489Y4208608D01*
X693855Y4207876D01*
X694100Y4206899D01*
X694222Y4205923D01*
G37*
X743660Y4175771D02*
X743538Y4173208D01*
X743294Y4170767D01*
X742684Y4168325D01*
X741951Y4166128D01*
X740853Y4164053D01*
X739632Y4162100D01*
X738167Y4160146D01*
X736458Y4158437D01*
X734627Y4156851D01*
X732674Y4155508D01*
X730477Y4154409D01*
X728279Y4153433D01*
X725838Y4152700D01*
X723396Y4152212D01*
X720711Y4151846D01*
X717903Y4151724D01*
X715096Y4151846D01*
X712532Y4152212D01*
X709969Y4152700D01*
X707649Y4153433D01*
X705452Y4154409D01*
X703255Y4155508D01*
X701302Y4156851D01*
X699471Y4158437D01*
X697762Y4160146D01*
X696297Y4162100D01*
X695076Y4164053D01*
X693978Y4166128D01*
X693245Y4168325D01*
X692635Y4170645D01*
X692391Y4173086D01*
X692269Y4175649D01*
X692391Y4178213D01*
X692635Y4180776D01*
X693245Y4183096D01*
X693978Y4185293D01*
X695076Y4187368D01*
X696297Y4189321D01*
X697762Y4191274D01*
X699471Y4192983D01*
X701302Y4194570D01*
X703255Y4195913D01*
X705452Y4197012D01*
X707649Y4197988D01*
X709969Y4198721D01*
X712532Y4199209D01*
X715218Y4199575D01*
X717903Y4199697D01*
X720711Y4199575D01*
X723396Y4199209D01*
X725838Y4198721D01*
X728279Y4197988D01*
X730477Y4197012D01*
X732674Y4195913D01*
X734627Y4194570D01*
X736458Y4192983D01*
X738167Y4191274D01*
X739632Y4189321D01*
X740853Y4187368D01*
X741951Y4185293D01*
X742684Y4183096D01*
X743294Y4180776D01*
X743538Y4178335D01*
X743660Y4175771D01*
X703377D02*
X703499Y4174185D01*
X703621Y4172720D01*
X703987Y4171255D01*
X704354Y4169912D01*
X704964Y4168691D01*
X705696Y4167471D01*
X706551Y4166372D01*
X707405Y4165273D01*
X708504Y4164297D01*
X709603Y4163442D01*
X710823Y4162832D01*
X712044Y4162222D01*
X713509Y4161733D01*
X714852Y4161489D01*
X716438Y4161245D01*
X718025D01*
X719490D01*
X721077Y4161489D01*
X722542Y4161733D01*
X723885Y4162222D01*
X725105Y4162832D01*
X726326Y4163442D01*
X727425Y4164297D01*
X728523Y4165273D01*
X729500Y4166372D01*
X730354Y4167471D01*
X731087Y4168691D01*
X731575Y4169912D01*
X732063Y4171255D01*
X732430Y4172598D01*
X732552Y4174185D01*
X732674Y4175649D01*
X732552Y4177236D01*
X732430Y4178701D01*
X732063Y4180166D01*
X731575Y4181509D01*
X731087Y4182729D01*
X730354Y4183950D01*
X729500Y4185171D01*
X728523Y4186147D01*
X727425Y4187124D01*
X726326Y4187979D01*
X725105Y4188711D01*
X723885Y4189321D01*
X722542Y4189687D01*
X721077Y4190054D01*
X719490Y4190176D01*
X718025Y4190298D01*
X716438Y4190176D01*
X714852Y4190054D01*
X713509Y4189687D01*
X712044Y4189321D01*
X710823Y4188711D01*
X709603Y4187979D01*
X708504Y4187124D01*
X707405Y4186147D01*
X706551Y4185171D01*
X705696Y4183950D01*
X704964Y4182852D01*
X704354Y4181509D01*
X703987Y4180166D01*
X703621Y4178823D01*
X703499Y4177358D01*
X703377Y4175771D01*
X692269Y4175649D02*
G36*
X692269Y4175649D02*
X692391Y4173086D01*
X692635Y4170645D01*
X693245Y4168325D01*
X693978Y4166128D01*
X695076Y4164053D01*
X696297Y4162100D01*
X697762Y4160146D01*
X699471Y4158437D01*
X701302Y4156851D01*
X703255Y4155508D01*
X705452Y4154409D01*
X707649Y4153433D01*
X709969Y4152700D01*
X712532Y4152212D01*
X715096Y4151846D01*
X717903Y4151724D01*
X720711Y4151846D01*
X723396Y4152212D01*
X725838Y4152700D01*
X728279Y4153433D01*
X730477Y4154409D01*
X732674Y4155508D01*
X734627Y4156851D01*
X736458Y4158437D01*
X738167Y4160146D01*
X739632Y4162100D01*
X740853Y4164053D01*
X741951Y4166128D01*
X742684Y4168325D01*
X743294Y4170767D01*
X743538Y4173208D01*
X743660Y4175771D01*
X732665D01*
X732674Y4175649D01*
X732552Y4174185D01*
X732430Y4172598D01*
X732063Y4171255D01*
X731575Y4169912D01*
X731087Y4168691D01*
X730354Y4167471D01*
X729500Y4166372D01*
X728523Y4165273D01*
X727425Y4164297D01*
X726326Y4163442D01*
X725105Y4162832D01*
X723885Y4162222D01*
X722542Y4161733D01*
X721077Y4161489D01*
X719490Y4161245D01*
X718025D01*
X716438D01*
X714852Y4161489D01*
X713509Y4161733D01*
X712044Y4162222D01*
X710823Y4162832D01*
X709603Y4163442D01*
X708504Y4164297D01*
X707405Y4165273D01*
X706551Y4166372D01*
X705696Y4167471D01*
X704964Y4168691D01*
X704354Y4169912D01*
X703987Y4171255D01*
X703621Y4172720D01*
X703499Y4174185D01*
X703377Y4175771D01*
X692275D01*
X692269Y4175649D01*
G37*
X692275Y4175771D02*
G36*
X692275Y4175771D02*
X703377D01*
X703499Y4177358D01*
X703621Y4178823D01*
X703987Y4180166D01*
X704354Y4181509D01*
X704964Y4182852D01*
X705696Y4183950D01*
X706551Y4185171D01*
X707405Y4186147D01*
X708504Y4187124D01*
X709603Y4187979D01*
X710823Y4188711D01*
X712044Y4189321D01*
X713509Y4189687D01*
X714852Y4190054D01*
X716438Y4190176D01*
X718025Y4190298D01*
X719490Y4190176D01*
X721077Y4190054D01*
X722542Y4189687D01*
X723885Y4189321D01*
X725105Y4188711D01*
X726326Y4187979D01*
X727425Y4187124D01*
X728523Y4186147D01*
X729500Y4185171D01*
X730354Y4183950D01*
X731087Y4182729D01*
X731575Y4181509D01*
X732063Y4180166D01*
X732430Y4178701D01*
X732552Y4177236D01*
X732665Y4175771D01*
X743660D01*
X743538Y4178335D01*
X743294Y4180776D01*
X742684Y4183096D01*
X741951Y4185293D01*
X740853Y4187368D01*
X739632Y4189321D01*
X738167Y4191274D01*
X736458Y4192983D01*
X734627Y4194570D01*
X732674Y4195913D01*
X730477Y4197012D01*
X728279Y4197988D01*
X725838Y4198721D01*
X723396Y4199209D01*
X720711Y4199575D01*
X717903Y4199697D01*
X715218Y4199575D01*
X712532Y4199209D01*
X709969Y4198721D01*
X707649Y4197988D01*
X705452Y4197012D01*
X703255Y4195913D01*
X701302Y4194570D01*
X699471Y4192983D01*
X697762Y4191274D01*
X696297Y4189321D01*
X695076Y4187368D01*
X693978Y4185293D01*
X693245Y4183096D01*
X692635Y4180776D01*
X692391Y4178213D01*
X692275Y4175771D01*
G37*
X504891Y4168203D02*
X506233Y4168936D01*
X507576Y4169302D01*
X509163Y4169424D01*
X510628Y4169302D01*
X512093Y4168936D01*
X513436Y4168203D01*
X514534Y4167227D01*
X515511Y4166006D01*
X516243Y4164663D01*
X516609Y4163198D01*
X516854Y4161733D01*
X516609Y4160269D01*
X516243Y4158682D01*
X515511Y4157461D01*
X514656Y4156240D01*
X513436Y4155264D01*
X512093Y4154531D01*
X510628Y4154165D01*
X509163Y4154043D01*
X507576Y4154165D01*
X505501Y4155020D01*
X502815Y4154043D01*
X500252Y4153311D01*
X497811Y4152700D01*
X495247Y4152334D01*
X492684Y4152212D01*
X490242D01*
X487557Y4152334D01*
X484993Y4152578D01*
X482674Y4153066D01*
X480354Y4153799D01*
X478279Y4154653D01*
X476326Y4155752D01*
X474373Y4156973D01*
X472664Y4158437D01*
X470467Y4161001D01*
X468636Y4163931D01*
X467293Y4167227D01*
X466316Y4170889D01*
X465096Y4172354D01*
X464241Y4174062D01*
X463997Y4176016D01*
X464119Y4178091D01*
X464607Y4179434D01*
X465218Y4180776D01*
X466072Y4181875D01*
X467171Y4182852D01*
X468147Y4185537D01*
X469490Y4188101D01*
X471199Y4190420D01*
X473152Y4192617D01*
X474983Y4194082D01*
X476937Y4195425D01*
X479012Y4196523D01*
X481209Y4197378D01*
X483528Y4198110D01*
X486092Y4198599D01*
X488655Y4198965D01*
X491341Y4199087D01*
X493904Y4198965D01*
X496224Y4198721D01*
X498421Y4198232D01*
X500618Y4197500D01*
X502693Y4196646D01*
X504524Y4195669D01*
X506355Y4194448D01*
X508064Y4192983D01*
X509651Y4191396D01*
X510994Y4189687D01*
X512215Y4187856D01*
X513191Y4186025D01*
X513924Y4184072D01*
X514412Y4182119D01*
X514778Y4179922D01*
Y4177847D01*
Y4176382D01*
X514534Y4175161D01*
X514046Y4174307D01*
X513436Y4173574D01*
X512581Y4173086D01*
X511116Y4172842D01*
X509285Y4172598D01*
X506844D01*
X478279D01*
X477547Y4171499D01*
X476570Y4170522D01*
X477059Y4168569D01*
X477913Y4166860D01*
X478890Y4165273D01*
X480232Y4163931D01*
X482308Y4162466D01*
X484749Y4161367D01*
X487679Y4160757D01*
X490975Y4160635D01*
X493294Y4160757D01*
X495979Y4161245D01*
X498665Y4161978D01*
X501473Y4163076D01*
Y4163198D01*
X501961Y4164663D01*
X502693Y4166128D01*
X503670Y4167227D01*
X504891Y4168203D01*
X481575Y4187856D02*
X480232Y4186636D01*
X479012Y4185171D01*
X478035Y4183706D01*
X477181Y4181875D01*
X478279Y4180654D01*
X504280Y4180532D01*
X503792Y4182607D01*
X502938Y4184561D01*
X501717Y4186270D01*
X500252Y4187734D01*
X498299Y4189077D01*
X496224Y4189932D01*
X493904Y4190542D01*
X491341Y4190786D01*
X488533Y4190542D01*
X485970Y4190054D01*
X483650Y4189077D01*
X481575Y4187856D01*
X473763Y4173330D02*
X474373Y4173818D01*
X474861Y4174429D01*
X475228Y4175039D01*
X475472Y4175771D01*
Y4176504D01*
Y4177236D01*
X475228Y4177969D01*
X474861Y4178579D01*
X474373Y4179189D01*
X473763Y4179678D01*
X473152Y4180044D01*
X472420Y4180166D01*
X471688Y4180288D01*
X470955Y4180166D01*
X470223Y4180044D01*
X469490Y4179678D01*
X469002Y4179189D01*
X468514Y4178701D01*
X467903Y4177358D01*
Y4176504D01*
Y4175771D01*
X468147Y4175161D01*
X468514Y4174429D01*
X468880Y4173818D01*
X469490Y4173452D01*
X470101Y4173086D01*
X470833Y4172842D01*
X471565Y4172720D01*
X472298Y4172842D01*
X473030Y4173086D01*
X473763Y4173330D01*
X511238Y4158560D02*
X511849Y4159048D01*
X512215Y4159658D01*
X512581Y4160269D01*
X512825Y4161123D01*
X512947Y4161855D01*
X512825Y4162588D01*
X512581Y4163198D01*
X512337Y4163931D01*
X511238Y4164907D01*
X509896Y4165518D01*
X509041Y4165640D01*
X508309Y4165518D01*
X507576Y4165273D01*
X506966Y4164907D01*
X506355Y4164419D01*
X505867Y4163809D01*
X505379Y4162466D01*
X505257Y4161733D01*
X505379Y4161001D01*
X505501Y4160269D01*
X505989Y4159658D01*
X506478Y4159048D01*
X507088Y4158560D01*
X507698Y4158193D01*
X508431Y4158071D01*
X509163Y4157949D01*
X509896Y4158071D01*
X510506Y4158193D01*
X511238Y4158560D01*
X468211Y4185659D02*
G36*
X468211Y4185659D02*
X479418D01*
X480232Y4186636D01*
X481575Y4187856D01*
X483650Y4189077D01*
X485970Y4190054D01*
X488533Y4190542D01*
X491341Y4190786D01*
X493904Y4190542D01*
X496224Y4189932D01*
X498299Y4189077D01*
X500252Y4187734D01*
X501717Y4186270D01*
X502154Y4185659D01*
X513328D01*
X513191Y4186025D01*
X512215Y4187856D01*
X510994Y4189687D01*
X509651Y4191396D01*
X508064Y4192983D01*
X506355Y4194448D01*
X504524Y4195669D01*
X502693Y4196646D01*
X500618Y4197500D01*
X498421Y4198232D01*
X496224Y4198721D01*
X493904Y4198965D01*
X491341Y4199087D01*
X488655Y4198965D01*
X486092Y4198599D01*
X483528Y4198110D01*
X481209Y4197378D01*
X479012Y4196523D01*
X476937Y4195425D01*
X474983Y4194082D01*
X473152Y4192617D01*
X471199Y4190420D01*
X469490Y4188101D01*
X468211Y4185659D01*
G37*
X463997Y4176016D02*
G36*
X463997Y4176016D02*
X464241Y4174062D01*
X465096Y4172354D01*
X466316Y4170889D01*
X467293Y4167227D01*
X468636Y4163931D01*
X469971Y4161794D01*
X483801D01*
X482308Y4162466D01*
X480232Y4163931D01*
X478890Y4165273D01*
X477913Y4166860D01*
X477059Y4168569D01*
X476570Y4170522D01*
X477547Y4171499D01*
X478279Y4172598D01*
X506844D01*
X509285D01*
X511116Y4172842D01*
X512581Y4173086D01*
X513436Y4173574D01*
X514046Y4174307D01*
X514534Y4175161D01*
X514778Y4176382D01*
Y4176504D01*
X475472D01*
Y4175771D01*
X475228Y4175039D01*
X474861Y4174429D01*
X474373Y4173818D01*
X473763Y4173330D01*
X473030Y4173086D01*
X472298Y4172842D01*
X471565Y4172720D01*
X470833Y4172842D01*
X470101Y4173086D01*
X469490Y4173452D01*
X468880Y4173818D01*
X468514Y4174429D01*
X468147Y4175161D01*
X467903Y4175771D01*
Y4176504D01*
X464026D01*
X463997Y4176016D01*
G37*
X464026Y4176504D02*
G36*
X464026Y4176504D02*
X467903D01*
Y4177358D01*
X468514Y4178701D01*
X469002Y4179189D01*
X469490Y4179678D01*
X470223Y4180044D01*
X470955Y4180166D01*
X471688Y4180288D01*
X472420Y4180166D01*
X473152Y4180044D01*
X473763Y4179678D01*
X474373Y4179189D01*
X474861Y4178579D01*
X475228Y4177969D01*
X475472Y4177236D01*
Y4176504D01*
X514778D01*
Y4177847D01*
Y4179922D01*
X514412Y4182119D01*
X513924Y4184072D01*
X513328Y4185659D01*
X502154D01*
X502938Y4184561D01*
X503792Y4182607D01*
X504280Y4180532D01*
X478279Y4180654D01*
X477181Y4181875D01*
X478035Y4183706D01*
X479012Y4185171D01*
X479418Y4185659D01*
X468211D01*
X468147Y4185537D01*
X467171Y4182852D01*
X466072Y4181875D01*
X465218Y4180776D01*
X464607Y4179434D01*
X464119Y4178091D01*
X464026Y4176504D01*
G37*
X497991Y4161794D02*
G36*
X497991Y4161794D02*
X505267D01*
X505379Y4162466D01*
X505867Y4163809D01*
X506355Y4164419D01*
X506966Y4164907D01*
X507576Y4165273D01*
X508309Y4165518D01*
X509041Y4165640D01*
X509896Y4165518D01*
X511238Y4164907D01*
X512337Y4163931D01*
X512581Y4163198D01*
X512825Y4162588D01*
X512947Y4161855D01*
X512937Y4161794D01*
X516844D01*
X516609Y4163198D01*
X516243Y4164663D01*
X515511Y4166006D01*
X514534Y4167227D01*
X513436Y4168203D01*
X512093Y4168936D01*
X510628Y4169302D01*
X509163Y4169424D01*
X507576Y4169302D01*
X506233Y4168936D01*
X504891Y4168203D01*
X503670Y4167227D01*
X502693Y4166128D01*
X501961Y4164663D01*
X501473Y4163198D01*
Y4163076D01*
X498665Y4161978D01*
X497991Y4161794D01*
G37*
X469971D02*
G36*
X469971Y4161794D02*
X470467Y4161001D01*
X472664Y4158437D01*
X474373Y4156973D01*
X476326Y4155752D01*
X478279Y4154653D01*
X480354Y4153799D01*
X482674Y4153066D01*
X484993Y4152578D01*
X487557Y4152334D01*
X490242Y4152212D01*
X492684D01*
X495247Y4152334D01*
X497811Y4152700D01*
X500252Y4153311D01*
X502815Y4154043D01*
X505501Y4155020D01*
X507576Y4154165D01*
X509163Y4154043D01*
X510628Y4154165D01*
X512093Y4154531D01*
X513436Y4155264D01*
X514656Y4156240D01*
X515511Y4157461D01*
X516243Y4158682D01*
X516609Y4160269D01*
X516854Y4161733D01*
X516844Y4161794D01*
X512937D01*
X512825Y4161123D01*
X512581Y4160269D01*
X512215Y4159658D01*
X511849Y4159048D01*
X511238Y4158560D01*
X510506Y4158193D01*
X509896Y4158071D01*
X509163Y4157949D01*
X508431Y4158071D01*
X507698Y4158193D01*
X507088Y4158560D01*
X506478Y4159048D01*
X505989Y4159658D01*
X505501Y4160269D01*
X505379Y4161001D01*
X505257Y4161733D01*
X505267Y4161794D01*
X497991D01*
X495979Y4161245D01*
X493294Y4160757D01*
X490975Y4160635D01*
X487679Y4160757D01*
X484749Y4161367D01*
X483801Y4161794D01*
X469971D01*
G37*
X0Y0D02*
M02*
